<?xml version="1.0" standalone="no"?>
<!DOCTYPE svg PUBLIC "-//W3C//DTD SVG 20010904//EN"
 "http://www.w3.org/TR/2001/REC-SVG-20010904/DTD/svg10.dtd">
<svg version="1.0" xmlns="http://www.w3.org/2000/svg"
 width="100%" height="100%" viewBox="0 0 1280.000000 1280.000000"
 preserveAspectRatio="xMidYMid meet">
<metadata>
Created by potrace 1.15, written by Peter Selinger 2001-2017
</metadata>
<g transform="translate(0.000000,1280.000000) scale(0.100000,-0.100000)"
fill="#000000" stroke="none">
<path d="M6095 12794 c-27 -2 -115 -8 -195 -14 -1261 -93 -2504 -584 -3500
-1384 -454 -365 -875 -810 -1215 -1287 -1290 -1808 -1545 -4169 -673 -6221 75
-176 232 -491 328 -658 755 -1314 1927 -2308 3343 -2834 923 -343 1937 -466
2927 -356 1302 146 2508 677 3505 1544 248 216 581 565 801 842 1539 1932
1819 4616 713 6826 -783 1566 -2159 2738 -3824 3259 -428 134 -858 219 -1340
265 -150 14 -756 27 -870 18z"/>
</g>
</svg>
