<?xml version="1.0" standalone="no"?>
<!DOCTYPE svg PUBLIC "-//W3C//DTD SVG 20010904//EN"
 "http://www.w3.org/TR/2001/REC-SVG-20010904/DTD/svg10.dtd">
<svg version="1.0" xmlns="http://www.w3.org/2000/svg"
 viewBox="0 0 1280.000000 1205.000000"
 preserveAspectRatio="xMidYMid meet">
<metadata>
Created by potrace 1.15, written by Peter Selinger 2001-2017
</metadata>
<g transform="translate(0.000000,1205.000000) scale(0.100000,-0.100000)"
fill="#000000" stroke="none">
<path d="M2255 12043 c-347 -32 -715 -213 -990 -488 -278 -278 -444 -613 -485
-980 -8 -73 -10 -1221 -8 -4205 4 -3836 5 -4110 21 -4188 48 -231 159 -479
298 -666 284 -382 701 -633 1139 -686 70 -8 1168 -10 4215 -8 l4120 3 100 23
c702 161 1247 753 1325 1437 8 73 10 1209 8 4215 l-3 4115 -23 96 c-35 152
-68 243 -142 394 -165 333 -442 610 -775 775 -151 74 -242 107 -394 142 l-96
23 -4135 1 c-2274 0 -4153 -1 -4175 -3z"/>
</g>
</svg>
