<?xml version="1.0" encoding="UTF-8"?><svg
  id="Layer_1"
  xmlns="http://www.w3.org/2000/svg"
  viewBox="0 0 109.21 42.38"
>
  <path
    d="M104.79,12.63h-7.71v-3.68C97.08,4,93.07,0,88.13,0H8.95C4.01,0,0,4,0,8.95v24.48C0,38.37,4.01,42.38,8.95,42.38h79.18c4.94,0,8.95-4.01,8.95-8.95v-3.69h7.71c2.44,0,4.42-1.98,4.42-4.42v-8.27c0-2.44-1.98-4.42-4.42-4.42ZM91.41,33.43c0,1.81-1.47,3.28-3.28,3.28H8.95c-1.81,0-3.28-1.47-3.28-3.28V8.95c0-1.81,1.47-3.28,3.28-3.28h79.18c1.81,0,3.28,1.47,3.28,3.28v24.48Z"
    style="fill: #133c46"
  />
  <rect
    x="5.67"
    y="5.67"
    width="17.15"
    height="31.04"
    rx="3.28"
    ry="3.28"
  />
  <path
    d="M19.54,6.67c1.26,0,2.28,1.02,2.28,2.28v24.48c0,1.26-1.02,2.28-2.28,2.28h-10.59c-1.26,0-2.28-1.02-2.28-2.28V8.95c0-1.26,1.02-2.28,2.28-2.28h10.59M19.54,5.67h-10.59c-1.81,0-3.28,1.47-3.28,3.28v24.48c0,1.81,1.47,3.28,3.28,3.28h10.59c1.81,0,3.28-1.47,3.28-3.28V8.95c0-1.81-1.47-3.28-3.28-3.28h0Z"
    style="fill: #fff"
  />
  <rect
    x="22.82"
    y="5.67"
    width="17.15"
    height="31.04"
    rx="3.28"
    ry="3.28"
  />
  <path
    d="M36.69,6.67c1.26,0,2.28,1.02,2.28,2.28v24.48c0,1.26-1.02,2.28-2.28,2.28h-10.59c-1.26,0-2.28-1.02-2.28-2.28V8.95c0-1.26,1.02-2.28,2.28-2.28h10.59M36.69,5.67h-10.59c-1.81,0-3.28,1.47-3.28,3.28v24.48c0,1.81,1.47,3.28,3.28,3.28h10.59c1.81,0,3.28-1.47,3.28-3.28V8.95c0-1.81-1.47-3.28-3.28-3.28h0Z"
    style="fill: #fff"
  />
  <rect
    x="39.97"
    y="5.67"
    width="17.15"
    height="31.04"
    rx="3.28"
    ry="3.28"
  />
  <path
    d="M53.84,6.67c1.26,0,2.28,1.02,2.28,2.28v24.48c0,1.26-1.02,2.28-2.28,2.28h-10.59c-1.26,0-2.28-1.02-2.28-2.28V8.95c0-1.26,1.02-2.28,2.28-2.28h10.59M53.84,5.67h-10.59c-1.81,0-3.28,1.47-3.28,3.28v24.48c0,1.81,1.47,3.28,3.28,3.28h10.59c1.81,0,3.28-1.47,3.28-3.28V8.95c0-1.81-1.47-3.28-3.28-3.28h0Z"
    style="fill: #fff"
  />
  <rect
    x="57.12"
    y="5.67"
    width="17.15"
    height="31.04"
    rx="3.28"
    ry="3.28"
  />
  <path
    d="M70.98,6.67c1.26,0,2.28,1.02,2.28,2.28v24.48c0,1.26-1.02,2.28-2.28,2.28h-10.59c-1.26,0-2.28-1.02-2.28-2.28V8.95c0-1.26,1.02-2.28,2.28-2.28h10.59M70.98,5.67h-10.59c-1.81,0-3.28,1.47-3.28,3.28v24.48c0,1.81,1.47,3.28,3.28,3.28h10.59c1.81,0,3.28-1.47,3.28-3.28V8.95c0-1.81-1.47-3.28-3.28-3.28h0Z"
    style="fill: #fff"
  />
  <rect
    x="74.26"
    y="5.67"
    width="17.15"
    height="31.04"
    rx="3.28"
    ry="3.28"
  />
  <path
    d="M88.13,6.67c1.26,0,2.28,1.02,2.28,2.28v24.48c0,1.26-1.02,2.28-2.28,2.28h-10.59c-1.26,0-2.28-1.02-2.28-2.28V8.95c0-1.26,1.02-2.28,2.28-2.28h10.59M88.13,5.67h-10.59c-1.81,0-3.28,1.47-3.28,3.28v24.48c0,1.81,1.47,3.28,3.28,3.28h10.59c1.81,0,3.28-1.47,3.28-3.28V8.95c0-1.81-1.47-3.28-3.28-3.28h0Z"
    style="fill: #fff"
  />
</svg>
