<?xml version="1.0" encoding="UTF-8"?><svg id="Layer_1" xmlns="http://www.w3.org/2000/svg" viewBox="0 0 85.04 85.04"><circle cx="42.52" cy="42.52" r="42.52" style="fill:#ffda61;"/><path d="M42.51,74.03c-1.08,0-2.17-.29-3.15-.83l-21.82-12.61c-1.95-1.11-3.17-3.21-3.17-5.49v-25.17c0-2.25,1.21-4.35,3.16-5.48l21.8-12.6c2.01-1.12,4.36-1.11,6.31-.01l21.84,12.61c1.95,1.13,3.16,3.23,3.16,5.48v25.17c0,2.28-1.22,4.38-3.18,5.49l-21.8,12.59c-.99.56-2.08.85-3.17.85ZM22.27,54.2l20.25,11.7,20.25-11.7v-23.37l-14.64-8.44h-11.22l-14.64,8.44v23.37ZM42.52,16.27h0s0,0,0,0Z" style="fill:#ecba26;"/><path d="M66.61,25.96l-9.2-5.32-1.42-.82-11.18-6.45c-.73-.4-1.5-.61-2.29-.61s-1.57.21-2.29.61l-11.16,6.45-1.42.82-9.22,5.32c-1.42.82-2.29,2.34-2.29,3.97v25.17c0,1.64.87,3.17,2.29,3.97l21.8,12.59c.72.4,1.5.61,2.29.61s1.56-.21,2.29-.61l21.8-12.59c1.42-.8,2.29-2.33,2.29-3.97v-25.17c0-1.63-.87-3.15-2.29-3.97ZM42.52,14.52c.98,0,1.77.8,1.77,1.77,0,.59-.28,1.12-.75,1.43-.28.21-.65.33-1.01.33-.4,0-.75-.12-1.01-.33-.47-.31-.75-.84-.75-1.43,0-.96.8-1.77,1.77-1.77ZM64.51,54.35c0,.54-.3,1.03-.75,1.29l-20.48,11.84c-.45.26-1.05.26-1.5,0l-20.48-11.84c-.45-.26-.75-.75-.75-1.29v-23.67c0-.52.3-1.03.75-1.29l15.15-8.75h12.17l15.15,8.75c.45.26.75.77.75,1.29v23.67Z" style="fill:#35342c;"/><path d="M64.51,30.68v23.67c0,.54-.3,1.03-.75,1.29l-20.48,11.84c-.45.26-1.05.26-1.5,0l-20.48-11.84c-.45-.26-.75-.75-.75-1.29v-23.67c0-.52.3-1.03.75-1.29l15.15-8.75h12.17l15.15,8.75c.45.26.75.77.75,1.29Z" style="fill:#fff;"/><path d="M42.52,49.25c-3.71,0-6.73-3.02-6.73-6.73s3.02-6.73,6.73-6.73,6.73,3.02,6.73,6.73-3.02,6.73-6.73,6.73ZM42.52,39.03c-1.92,0-3.49,1.56-3.49,3.49s1.56,3.49,3.49,3.49,3.49-1.56,3.49-3.49-1.56-3.49-3.49-3.49Z" style="fill:#ecba26;"/><circle cx="42.52" cy="42.52" r="5.11" style="fill:#35342c;"/><g id="Layer_2-2"><g id="_Radial_Repeat_"><path d="M42.51,29.85c-1.6,0-2.91-1.31-2.91-2.91s1.3-2.91,2.91-2.91,2.91,1.3,2.91,2.91-1.3,2.91-2.91,2.91ZM42.51,24.53c-1.33,0-2.41,1.08-2.41,2.41s1.08,2.41,2.41,2.41,2.41-1.08,2.41-2.41-1.08-2.41-2.41-2.41Z" style="fill:#35342c;"/></g><g id="_Radial_Repeat_-2"><path d="M50.31,31.93c-1.6,0-2.91-1.3-2.91-2.91s1.3-2.91,2.91-2.91,2.91,1.31,2.91,2.91-1.3,2.91-2.91,2.91ZM50.31,26.61c-1.33,0-2.41,1.08-2.41,2.41s1.08,2.41,2.41,2.41,2.41-1.08,2.41-2.41-1.08-2.41-2.41-2.41Z" style="fill:#35342c;"/></g><g id="_Radial_Repeat_-3"><path d="M56.02,37.63c-1.6,0-2.91-1.3-2.91-2.91s1.3-2.91,2.91-2.91,2.91,1.31,2.91,2.91-1.3,2.91-2.91,2.91ZM56.02,32.31c-1.33,0-2.41,1.08-2.41,2.41s1.08,2.41,2.41,2.41,2.41-1.08,2.41-2.41-1.08-2.41-2.41-2.41Z" style="fill:#35342c;"/></g><g id="_Radial_Repeat_-4"><path d="M58.1,45.42c-1.6,0-2.91-1.3-2.91-2.91s1.3-2.91,2.91-2.91,2.91,1.31,2.91,2.91-1.3,2.91-2.91,2.91ZM58.1,40.1c-1.33,0-2.41,1.08-2.41,2.41s1.08,2.41,2.41,2.41,2.41-1.08,2.41-2.41-1.08-2.41-2.41-2.41Z" style="fill:#35342c;"/></g><g id="_Radial_Repeat_-5"><path d="M56.02,53.22c-1.6,0-2.91-1.3-2.91-2.91s1.3-2.91,2.91-2.91,2.91,1.3,2.91,2.91-1.3,2.91-2.91,2.91ZM56.02,47.9c-1.33,0-2.41,1.08-2.41,2.41s1.08,2.41,2.41,2.41,2.41-1.08,2.41-2.41-1.08-2.41-2.41-2.41Z" style="fill:#35342c;"/></g><g id="_Radial_Repeat_-6"><path d="M50.31,58.92c-1.6,0-2.91-1.3-2.91-2.91s1.3-2.91,2.91-2.91,2.91,1.3,2.91,2.91-1.3,2.91-2.91,2.91ZM50.31,53.6c-1.33,0-2.41,1.08-2.41,2.41s1.08,2.41,2.41,2.41,2.41-1.08,2.41-2.41-1.08-2.41-2.41-2.41Z" style="fill:#35342c;"/></g><g id="_Radial_Repeat_-7"><path d="M42.51,61c-1.6,0-2.91-1.3-2.91-2.91s1.3-2.91,2.91-2.91,2.91,1.3,2.91,2.91-1.3,2.91-2.91,2.91ZM42.51,55.68c-1.33,0-2.41,1.08-2.41,2.41s1.08,2.41,2.41,2.41,2.41-1.08,2.41-2.41-1.08-2.41-2.41-2.41Z" style="fill:#35342c;"/></g><g id="_Radial_Repeat_-8"><path d="M34.73,58.92c-1.6,0-2.91-1.3-2.91-2.91s1.3-2.91,2.91-2.91,2.91,1.3,2.91,2.91-1.3,2.91-2.91,2.91ZM34.73,53.6c-1.33,0-2.41,1.08-2.41,2.41s1.08,2.41,2.41,2.41,2.41-1.08,2.41-2.41-1.08-2.41-2.41-2.41Z" style="fill:#35342c;"/></g><g id="_Radial_Repeat_-9"><path d="M29.02,53.22c-1.6,0-2.91-1.3-2.91-2.91s1.3-2.91,2.91-2.91,2.91,1.3,2.91,2.91-1.3,2.91-2.91,2.91ZM29.02,47.9c-1.33,0-2.41,1.08-2.41,2.41s1.08,2.41,2.41,2.41,2.41-1.08,2.41-2.41-1.08-2.41-2.41-2.41Z" style="fill:#35342c;"/></g><g id="_Radial_Repeat_-10"><path d="M26.94,45.42c-1.6,0-2.91-1.3-2.91-2.91s1.3-2.91,2.91-2.91,2.91,1.31,2.91,2.91-1.3,2.91-2.91,2.91ZM26.94,40.1c-1.33,0-2.41,1.08-2.41,2.41s1.08,2.41,2.41,2.41,2.41-1.08,2.41-2.41-1.08-2.41-2.41-2.41Z" style="fill:#35342c;"/></g><g id="_Radial_Repeat_-11"><path d="M29.02,37.63c-1.6,0-2.91-1.3-2.91-2.91s1.3-2.91,2.91-2.91,2.91,1.31,2.91,2.91-1.3,2.91-2.91,2.91ZM29.02,32.31c-1.33,0-2.41,1.08-2.41,2.41s1.08,2.41,2.41,2.41,2.41-1.08,2.41-2.41-1.08-2.41-2.41-2.41Z" style="fill:#35342c;"/></g><g id="_Radial_Repeat_-12"><path d="M34.73,31.93c-1.6,0-2.91-1.3-2.91-2.91s1.3-2.91,2.91-2.91,2.91,1.31,2.91,2.91-1.3,2.91-2.91,2.91ZM34.73,26.61c-1.33,0-2.41,1.08-2.41,2.41s1.08,2.41,2.41,2.41,2.41-1.08,2.41-2.41-1.08-2.41-2.41-2.41Z" style="fill:#35342c;"/></g></g></svg>