<?xml version="1.0" encoding="UTF-8"?><svg id="a" xmlns="http://www.w3.org/2000/svg" viewBox="0 0 130.459 41.2808"><g><rect x=".5" y=".4998" width="129.459" height="40.2807" rx="9.1484" ry="9.1484" fill="#37abc8"/><path d="M120.8105,41.2808H9.6484c-5.3203,0-9.6484-4.3281-9.6484-9.6484V9.6479C0,4.3281,4.3281,0,9.6484,0H120.8105c5.3203,0,9.6484,4.3281,9.6484,9.6479V31.6323c0,5.3203-4.3281,9.6484-9.6484,9.6484ZM9.6484,1C4.8799,1,1,4.8794,1,9.6479V31.6323c0,4.7686,3.8799,8.6484,8.6484,8.6484H120.8105c4.7686,0,8.6484-3.8799,8.6484-8.6484V9.6479c0-4.7686-3.8799-8.6479-8.6484-8.6479H9.6484Z" fill="#050505"/></g><g><path d="M16.9359,6.385l4.9117-.034c1.645,1.0803,3.5667,1.9072,4.8462,3.3222,.9957,1.1011,1.1915,2.9347,1.7428,4.4428,.0095,3.9256,.019,7.8512,.0285,11.7767-.6671,5.5375-3.7846,7.5481-7.6714,8.0187-5.6149,.6798-8.9588-1.8845-10.4174-7.2356,.1065-2.2795,.2937-4.5588,.2962-6.8384,.0023-2.1509-.1897-4.3021-.2962-6.4531,.6907-3.7528,3.1175-5.8578,6.5595-6.9993Zm1.7097,13.7469l-4.2611,3.786,1.1169,1.0705,3.1608-2.9982v9.2853l6.1073-7.4185-4.5501-3.9891,4.3939-3.6057-6.0191-6.9697v8.4771q-3.421-2.3054-4.1466-1.3288l4.198,3.691Z" fill="#70888e"/><path d="M18.6456,20.1319l-4.198-3.691q.7256-.9766,4.1466,1.3288V9.2925l6.0191,6.9697-4.3939,3.6057,4.5501,3.9891-6.1073,7.4185v-9.2853l-3.1608,2.9982-1.1169-1.0705,4.2611-3.786Zm1.5837-1.723l2.2515-2.3882-2.2515-2.5694v4.9576Zm2.0312,6.2046l-2.0116-2.7327v5.1341l2.0116-2.4014Z" fill="#fcfdfd"/><path d="M20.2293,18.4088v-4.9576l2.2515,2.5694-2.2515,2.3882Z" fill="#70888e"/><path d="M22.2604,24.6135l-2.0116,2.4014v-5.1341l2.0116,2.7327Z" fill="#70888e"/></g><g><path d="M38.9786,23.4015v.6881c0,1.2177-.5734,1.8259-1.7214,1.8259h-.9276c-1.1474,0-1.7208-.6083-1.7208-1.8259v-7.0946c0-1.2177,.5734-1.8259,1.7208-1.8259h.9276c1.148,0,1.7214,.6083,1.7214,1.8259v1.212h-1.4369v-1.1075c0-.4194-.2148-.6285-.6431-.6285h-.2845c-.3789,0-.5689,.2091-.5689,.6285v6.8855c0,.4183,.19,.6285,.5689,.6285h.3598c.3789,0,.5678-.2103,.5678-.6285v-.5835h1.4369Z" fill="#f9f9f9"/><path d="M41.7625,25.9155c-1.157,0-1.736-.6083-1.736-1.8259v-7.08c0-1.2267,.5734-1.8406,1.7214-1.8406h1.3773c1.1468,0,1.7214,.6139,1.7214,1.8406v7.08c0,1.2177-.579,1.8259-1.736,1.8259h-1.3481Zm.3452-1.302h.7331c.3789,0,.5689-.2103,.5689-.6285v-6.8855c0-.4194-.2148-.6285-.6443-.6285h-.6735c-.4183,0-.6285,.2091-.6285,.6285v6.8855c0,.4183,.2148,.6285,.6443,.6285Z" fill="#f9f9f9"/><path d="M49.0966,20.3623v-5.1934h1.4369v10.7465h-1.4369v-2.1408l-1.5415-4.8943v7.035h-1.4369V15.169h1.4369l1.5415,5.1934Z" fill="#f9f9f9"/><path d="M54.8589,20.3623v-5.1934h1.4369v10.7465h-1.4369v-2.1408l-1.5415-4.8943v7.035h-1.4369V15.169h1.4369l1.5415,5.1934Z" fill="#f9f9f9"/><path d="M57.6428,25.9155V15.169h3.5631v1.302h-2.1261v3.2629h1.8867v1.302h-1.8867v3.5777h2.1261v1.302h-3.5631Z" fill="#f9f9f9"/><path d="M66.533,23.4015v.6881c0,1.2177-.5734,1.8259-1.7214,1.8259h-.9276c-1.148,0-1.7214-.6083-1.7214-1.8259v-7.0946c0-1.2177,.5734-1.8259,1.7214-1.8259h.9276c1.148,0,1.7214,.6083,1.7214,1.8259v1.212h-1.4369v-1.1075c0-.4194-.2148-.6285-.6431-.6285h-.2845c-.3789,0-.5689,.2091-.5689,.6285v6.8855c0,.4183,.19,.6285,.5689,.6285h.3598c.3789,0,.5678-.2103,.5678-.6285v-.5835h1.4369Z" fill="#f9f9f9"/><path d="M69.9465,16.471v9.4445h-1.4369v-9.4445h-1.3773v-1.302h4.1904v1.302h-1.3762Z" fill="#f9f9f9"/><path d="M76.8309,16.471v9.4445h-1.4369v-9.4445h-1.3773v-1.302h4.1904v1.302h-1.3762Z" fill="#f9f9f9"/><path d="M80.6919,25.9155c-1.1581,0-1.7371-.6083-1.7371-1.8259v-7.08c0-1.2267,.5745-1.8406,1.7214-1.8406h1.3773c1.148,0,1.7214,.6139,1.7214,1.8406v7.08c0,1.2177-.579,1.8259-1.736,1.8259h-1.347Zm.344-1.302h.7331c.3789,0,.5689-.2103,.5689-.6285v-6.8855c0-.4194-.2148-.6285-.6431-.6285h-.6735c-.4194,0-.6296,.2091-.6296,.6285v6.8855c0,.4183,.2148,.6285,.6443,.6285Z" fill="#f9f9f9"/><path d="M88.8029,25.9155h-1.4369v-8.9059c0-1.2267,.5745-1.8406,1.7214-1.8406h1.0782c1.1468,0,1.7214,.6139,1.7214,1.8406v8.9059h-1.4369v-3.9363h-1.6472v3.9363Zm1.6472-5.2383v-3.5777c0-.4194-.2103-.6285-.6285-.6285h-.389c-.4194,0-.6296,.2091-.6296,.6285v3.5777h1.6472Z" fill="#f9f9f9"/><path d="M98.4723,21.4856l1.3324-6.3166h1.5865v10.7465h-1.4369l.1495-7.035-1.0782,5.0888h-1.1075l-1.0771-5.0888,.1495,7.035h-1.4369V15.169h1.5865l1.3324,6.3166Z" fill="#f9f9f9"/><path d="M104.0996,25.9155h-1.4369v-8.9059c0-1.2267,.5745-1.8406,1.7214-1.8406h1.0782c1.1468,0,1.7214,.6139,1.7214,1.8406v8.9059h-1.4369v-3.9363h-1.6472v3.9363Zm1.6472-5.2383v-3.5777c0-.4194-.2103-.6285-.6285-.6285h-.389c-.4194,0-.6296,.2091-.6296,.6285v3.5777h1.6472Z" fill="#f9f9f9"/><path d="M108.4553,15.169h2.8142c1.0974,0,1.646,.6139,1.646,1.8406v2.6501c0,.9377-.2845,1.5314-.8534,1.781l1.0029,4.4749h-1.3616l-.9433-4.34h-.868v4.34h-1.4369V15.169Zm1.4369,5.1787h.9433c.4284,0,.6431-.2597,.6431-.778v-2.3207c0-.5183-.2148-.778-.6431-.778h-.9433v3.8767Z" fill="#f9f9f9"/><path d="M116.4033,16.471v9.4445h-1.4369v-9.4445h-1.3773v-1.302h4.1904v1.302h-1.3762Z" fill="#f9f9f9"/><path d="M121.2819,25.9155h-1.4369v-3.951l-1.7663-6.7955h1.4223l1.0771,4.6694h.045l.9726-4.6694h1.4223l-1.736,6.7955v3.951Z" fill="#f9f9f9"/></g><path d="M19.4209,34.1382c-5.0562,0-9.1694-4.1133-9.1694-9.1699V15.3955c0-5.0562,4.1133-9.1694,9.1694-9.1694s9.1694,4.1133,9.1694,9.1694v9.5728c0,5.0566-4.1133,9.1699-9.1694,9.1699Zm0-27.6621c-4.918,0-8.9194,4.0015-8.9194,8.9194v9.5728c0,4.9189,4.0015,8.9199,8.9194,8.9199s8.9194-4.001,8.9194-8.9199V15.3955c0-4.918-4.0015-8.9194-8.9194-8.9194Z"/></svg>