<?xml version="1.0" encoding="UTF-8" standalone="no"?>
<svg
   viewBox="0 0 474.65184 489.47122"
   version="1.1"
   id="svg564">
  <defs
     id="defs568" />
  <g
     id="g5156"
     style="opacity:0.35">
    <path
       id="path192-3"
       fill="#30a7dc"
       d="m 222.85648,355.3952 c 19.92,-22.54179 27.67888,17.97571 37.24877,27.08858 7.85835,14.17735 50.98141,81.75015 52.62988,90.00929 0.62376,3.12513 -2.64967,9.02407 -9.26516,8.99896 -15.32577,-0.0582 -45.20588,-10.31097 -44.87274,-8.90054 0.97024,4.10773 -16.03789,-34.75468 -18.0289,-37.00958 -2.31666,-2.62371 -4.93194,-10.19464 -7.80835,-12.22557 -2.94423,1.74935 -32.02233,21.16924 -34.60287,20.10369 -3.34938,-1.38302 4.73405,8.58974 7.18673,13.83212 1.79728,3.84152 31.91918,-22.22895 35.7137,-20.64867 10.54857,4.39308 17.10667,28.79503 8.44024,20.88589 l -26.1224,16.45448 c 1.2763,-0.70534 7.96073,12.30625 9.0078,12.62434 0,0 24.68881,-15.47146 24.95218,-14.84352 0,0 19.34027,-18.88006 26.05526,-14.35817 3.9374,2.65145 22.07414,28.97079 22.95852,31.50177 -10.55272,0.27929 -122.28988,1.05262 -131.40494,0.61583 -2.0783,-3.27649 -22.4306,-35.20307 -41.87891,-72.55953 -4.00817,-7.69892 6.86451,-8.66348 6.57116,-9.10661 l -6.71014,-12.44979 83.63266,-50.91117 6.29751,10.8982"
       style="" />
    <path
       id="path192"
       fill="#30a7dc"
       d="m 344.46634,281.3306 c 19.92,-22.54179 26.40341,18.43673 35.9733,27.5496 7.85835,14.17735 52.25688,81.28913 53.90535,89.54827 0.62376,3.12513 -5.1514,8.88886 -11.76689,8.86375 -15.32577,-0.0582 -41.67054,-10.03405 -42.37101,-8.76533 -2.39832,4.34393 -14.65784,-32.23433 -16.56156,-34.49535 -2.25434,-2.67744 -7.46866,-11.26668 -10.34507,-13.29761 -3.30101,1.33623 -34.82277,17.47003 -34.23883,20.0687 0.79446,3.53552 5.43939,7.18254 7.89207,12.42492 1.79728,3.84152 32.26328,-21.85181 36.06513,-20.28925 10.43372,4.28827 8.08881,20.52647 8.08881,20.52647 l -26.9638,14.86857 c 0,0 6.14305,15.3617 9.8492,14.21025 0,0 24.68881,-15.47146 24.95218,-14.84352 0,0 19.34027,-18.88006 26.05526,-14.35817 3.9374,2.65145 12.04767,21.70457 15.80619,24.3998 8.54978,6.13104 7.72101,14.97992 16.08768,23.51797 0,0 6.06522,-6.0203 12.00907,-2.22586 16.05427,10.24874 21.8016,41.60834 24.26895,52.89334 2.82923,12.94013 -123.95901,5.6736 -127.67563,7.03829 -3.73108,1.37001 10.36786,-10.69419 11.40995,-7.99579 2.01233,5.21077 -12.06155,-24.74306 -15.4617,-22.76271 -9.51174,5.53993 -5.21573,4.7876 -10.80612,5.91066 -5.51567,1.10805 -56.51541,-83.86117 -75.96372,-121.21763 -4.00817,-7.69892 6.86451,-8.66348 6.57116,-9.10661 l -6.71014,-12.44979 83.63266,-50.91117 6.29751,10.8982"
       style="" />
    <path
       id="path16"
       fill="#010101"
       d="m 312.34049,477.59064 -10.14764,6.17736 a 1.500002,1.500002 0 0 1 -1.55994,-2.56254 l 10.14764,-6.17735 a 3.3,3.3 0 0 0 1.09952,-4.52098 L 240.05534,352.51939 a 4.82,4.82 0 0 0 -6.62344,-1.61084 l -7.78157,4.73701 a 1.500002,1.500002 0 0 1 -1.55994,-2.56254 l 7.78157,-4.73701 a 7.83,7.83 0 0 1 10.73218,2.6101 l 71.85592,118.03899 a 6.29,6.29 0 0 1 -2.11957,8.59554 z"
       style="" />
    <path
       id="path24"
       fill="#010101"
       d="m 442.82071,445.42291 -71.38835,43.45747 -25.04123,0.0602 c -1.67405,-0.0979 -2.34018,0.0663 -1.64239,-2.59483 0.81256,-1.06231 1.81656,-1.96334 2.96026,-2.65667 l 7.56802,-4.60702 c 1.70836,-1.03996 3.2683,1.52258 1.55994,2.56254 l -7.56802,4.60701 c -0.82938,0.49838 -1.55767,1.14824 -2.14694,1.91572 1.38098,0.30886 2.701,0.78478 4.00674,0.77796 l 14.81018,-0.0797 75.33745,-45.97955 c 0.61773,-0.36417 1.10185,-0.91748 1.38077,-1.57809 l 4.56768,-11.15118 c -0.0115,-0.19201 -0.0565,-0.2466 -0.16119,-0.26479 -2.44618,-0.55978 -5.01431,-0.13948 -7.15443,1.17089 l -2.87858,1.75233 c -1.70836,1.03996 -3.2683,-1.52258 -1.55994,-2.56254 l 2.87859,-1.75233 c 2.80306,-1.71894 6.16948,-2.26716 9.3731,-1.5264 1.91821,0.44558 2.97024,2.51394 2.20065,4.32662 l -4.58477,11.16158 c -0.50559,1.22795 -1.38685,2.26438 -2.51754,2.96082 z"
       style="" />
    <path
       d="m 249.00017,444.95731 c -0.76098,0.013 -1.50495,0.22731 -2.15625,0.62109 l -32.87696,20.01563 c -2.0298,1.23579 -2.67634,3.88137 -1.44531,5.91406 l 10.73703,17.81607 3.61595,0.14706 -11.79829,-19.51782 c -0.37341,-0.62224 -0.1745,-1.42921 0.44531,-1.80664 l 32.87695,-20.01367 c 0.61805,-0.37669 1.42447,-0.18078 1.80079,0.4375 l 10.61718,17.44336 c 1.21995,2.02473 3.85032,2.67708 5.875,1.45703 l 16.23047,-9.8789 c 0.62182,-0.37209 1.42734,-0.17333 1.80469,0.44531 l 19.15639,30.92058 2.46602,-0.0497 -19.06772,-32.4256 c -1.23579,-2.0298 -3.88137,-2.67634 -5.91406,-1.44531 l -16.23047,9.8789 c -0.61537,0.34963 -1.39718,0.14726 -1.76563,-0.45703 L 252.75407,447.0159 c -0.79793,-1.30311 -2.22616,-2.08633 -3.7539,-2.05859 z"
       id="path28"
       style="" />
    <path
       id="path32"
       fill="#010101"
       d="m 437.60392,439.31485 -75.50087,45.96096 a 4.32,4.32 0 0 1 -5.92262,-1.4404 l -30.77757,-50.55885 a 4.31,4.31 0 0 1 1.4404,-5.92262 l 16.83586,-10.24879 a 1.32,1.32 0 0 0 0.44635,-1.80535 l -10.61798,-17.44234 a 4.31,4.31 0 0 1 1.43706,-5.90888 l 32.87735,-20.014 a 4.31,4.31 0 0 1 5.91742,1.43186 l 10.61797,17.44234 a 1.31,1.31 0 0 0 1.76598,0.4586 l 16.2294,-9.87961 a 4.31,4.31 0 0 1 5.92262,1.4404 l 30.77757,50.55885 a 4.32,4.32 0 0 1 -1.44894,5.92783 z m -109.20593,-9.40692 a 1.32,1.32 0 0 0 -0.44114,1.81389 l 30.77757,50.55885 a 1.32,1.32 0 0 0 1.81389,0.44114 l 75.50087,-45.96096 a 1.32,1.32 0 0 0 0.44115,-1.81389 l -30.77757,-50.55885 a 1.32,1.32 0 0 0 -1.81389,-0.44114 l -16.2294,9.8796 a 4.28,4.28 0 0 1 -5.87471,-1.45786 l -10.61798,-17.44233 a 1.32,1.32 0 0 0 -1.80869,-0.4326 l -32.8688,20.0088 a 1.31,1.31 0 0 0 -0.4378,1.80015 l 10.61797,17.44233 a 4.31,4.31 0 0 1 -1.4456,5.91408 z"
       style="" />
    <path
       id="path36"
       fill="#010101"
       d="m 258.64201,471.78635 -25.87308,15.75017 a 1,1 0 0 1 -1.37416,-0.3342 l -8.55366,-14.05124 a 1,1 0 0 1 0.3342,-1.37416 l 25.87308,-15.75017 a 1,1 0 0 1 1.37416,0.3342 l 8.55886,14.05978 a 1,1 0 0 1 -0.3394,1.36562 z m -26.05886,13.52183 24.16472,-14.71021 -7.5137,-12.34288 -24.16472,14.71021 z"
       style="" />
    <path
       id="path40"
       fill="#010101"
       d="m 247.53846,400.77501 -77.86695,47.40131 a 4.62,4.62 0 0 1 -6.36309,-1.3947 l -31.04796,-51.00303 a 1.5,1.5 0 0 1 0.5013,-2.06123 l 83.62412,-50.90597 a 1.5,1.5 0 0 1 2.06123,0.5013 l 8.07008,13.25686 a 2.11,2.11 0 0 1 0.13,0.21354 l 22.71269,37.31054 a 4.89,4.89 0 0 1 -1.82142,6.68138 z m -111.93364,-5.2528 30.27319,49.73029 a 1.63,1.63 0 0 0 2.25436,0.39545 l 77.86695,-47.40131 a 1.91,1.91 0 0 0 0.78279,-2.56039 l -22.85308,-37.54117 a 2.28,2.28 0 0 1 -0.1352,-0.22208 l -7.14451,-11.73642 z"
       style="" />
    <path
       id="path44"
       fill="#010101"
       d="m 241.45721,437.47941 -34.92738,21.26195 a 1,1 0 0 1 -1.37416,-0.3342 L 196.8984,444.8428 a 1,1 0 0 1 0.3342,-1.37416 l 34.92738,-21.26195 a 1,1 0 0 1 1.37416,0.3342 l 8.28327,13.60707 a 1,1 0 0 1 -0.3602,1.33145 z m -35.11316,19.03362 33.22756,-20.2272 -7.24851,-11.90725 -33.22756,20.22719 z"
       style="" />
    <path
       id="path46"
       fill="#010101"
       d="m 174.45525,488.88728 -42.77331,-70.71195 c -2.14781,-3.54938 -1.02477,-8.16709 2.51318,-10.33367 l 5.20195,-3.16667 c 1.70951,-1.04474 3.27308,1.52374 1.55994,2.56253 l -5.20195,3.16668 c -2.13222,1.30442 -2.80895,4.08699 -1.51393,6.22493 l 43.23,72.21036 z"
       style="" />
    <path
       id="path48"
       fill="#010101"
       d="m 267.53581,435.33662 -7.26052,4.41982 a 0.49,0.49 0 0 1 -0.68188,-0.15856 l -10.49838,-17.24587 a 0.5,0.5 0 0 1 0.1671,-0.68708 l 7.26052,-4.41982 a 0.49,0.49 0 0 1 0.67854,0.1723 l 10.49838,17.24587 a 0.49,0.49 0 0 1 -0.16376,0.67334 z m -7.35341,3.30565 6.40634,-3.89984 -9.9732,-16.38315 -6.40634,3.89984 z"
       style="" />
    <path
       id="path50"
       fill="#010101"
       d="m 283.26124,425.7638 -7.2776,4.43022 a 0.5,0.5 0 0 1 -0.68188,-0.15855 l -10.49838,-17.24588 a 0.5,0.5 0 0 1 0.1671,-0.68708 l 7.26052,-4.41982 a 0.5,0.5 0 0 1 0.68708,0.1671 l 10.49838,17.24587 a 0.5,0.5 0 0 1 -0.15522,0.66814 z m -7.35341,3.30566 6.38926,-3.88945 -9.9732,-16.38315 -6.40634,3.89984 z"
       style="" />
    <path
       id="path64"
       fill="#ffda62"
       d="m 68.244402,361.33267 -13.803532,8.40286 c -4.496543,2.74412 -6.775072,8.02458 -5.686607,13.17864 l 21.649204,106.01005 30.478673,-0.25914 -13.313003,-73.81723 9.096945,-7.15333 z"
       style="" />
    <path
       id="path66"
       fill="#010101"
       d="M 70.403467,488.92422 C 60.948888,444.27981 57.264754,428.03641 47.776399,383.13482 46.584585,377.56166 49.0401,371.84319 53.90195,368.86947 l 13.803531,-8.40286 c 0.47175,-0.28718 1.086982,-0.13755 1.374158,0.3342 l 15.50058,25.46307 c 0.287178,0.47175 0.137552,1.08698 -0.334199,1.37416 l -11.17266,6.80133 20.636099,94.2798 c 0,0 -15.728646,-0.08 -23.305992,0.20505 z m 1.826625,-0.15168 19.638317,-0.0344 -20.880418,-94.55127 c -0.08853,-0.41427 0.09358,-0.83937 0.454542,-1.06108 L 82.384565,386.46485 67.918744,362.7016 54.96085,370.58968 c -4.13084,2.52652 -6.225762,7.37839 -5.232066,12.11756 z"
       style="" />
    <path
       id="path72"
       fill="#010101"
       d="m 99.479549,488.71254 -13.459111,-73.8702 c -0.07323,-0.40574 0.110059,-0.81484 0.461599,-1.03026 l 9.139715,-5.56378 -12.739491,-20.92738 c -0.693306,-1.1389 1.015052,-2.17886 1.708358,-1.03996 l 13.25947,21.78157 c 0.287171,0.47175 0.137545,1.08697 -0.3342,1.37415 l -9.395968,5.71977 12.762219,73.50863 z"
       style="" />
    <path
       id="path96"
       fill="#010101"
       d="m 179.52185,387.83536 -36.72969,22.35911 a 1.0000013,1.0000013 0 0 1 -1.03996,-1.70836 l 35.87552,-21.83913 -8.92805,-14.66625 a 1.0000013,1.0000013 0 0 1 1.70836,-1.03996 l 9.44802,15.52043 a 1,1 0 0 1 -0.3342,1.37416 z"
       style="" />
    <path
       id="path98"
       fill="#010101"
       d="m 166.38919,449.01541 a 0.52,0.52 0 0 1 -0.43193,0.0405 0.5,0.5 0 0 1 -0.28711,-0.64472 l 14.60459,-38.89593 a 0.49,0.49 0 0 1 0.63952,-0.29565 0.5,0.5 0 0 1 0.29565,0.63953 l -14.57896,38.88032 a 0.51,0.51 0 0 1 -0.24176,0.27595 z"
       style="" />
    <path
       id="path100"
       fill="#010101"
       d="m 278.47923,488.88167 c -0.37877,0.22334 -0.84063,-0.1158 -0.74094,-0.54406 l 6.34482,-33.60722 c 0.0621,-0.26741 0.33185,-0.43159 0.59793,-0.36399 0.27014,0.0645 0.43592,0.33686 0.36918,0.60647 l -6.33294,33.58828 c -0.0278,0.13691 -0.11501,0.25437 -0.23805,0.32052 z"
       style="" />
    <path
       id="path102"
       fill="#010101"
       d="m 285.33884,456.12008 a 1.49,1.49 0 0 1 -2.0475,-0.49796 l -34.80221,-57.17019 a 1.500002,1.500002 0 1 1 2.56254,-1.55994 l 34.80221,57.1702 a 1.5,1.5 0 0 1 -0.51504,2.05789 z"
       style="" />
    <path
       id="path104"
       fill="#010101"
       d="m 250.02185,398.10425 a 0.5,0.5 0 0 1 -0.34948,0.0605 l -38.42284,-6.61562 a 0.49,0.49 0 0 1 -0.4067,-0.57192 0.51,0.51 0 0 1 0.58047,-0.4119 l 38.42284,6.61562 a 0.51,0.51 0 0 1 0.4119,0.58047 0.52,0.52 0 0 1 -0.23619,0.3428 z"
       style="" />
    <path
       id="path106"
       fill="#010101"
       d="m 302.18495,451.75375 -14.23062,8.66285 a 0.5,0.5 0 0 1 -0.68708,-0.1671 0.51,0.51 0 0 1 0.1671,-0.68708 l 14.23062,-8.66285 a 0.5,0.5 0 0 1 0.68708,0.1671 0.5,0.5 0 0 1 -0.1671,0.68708 z"
       style="" />
    <path
       id="path110"
       fill="#010101"
       d="m 159.72306,438.06484 -10.34411,6.29695 a 0.50000067,0.50000067 0 1 1 -0.51998,-0.85418 l 10.34411,-6.29695 a 0.50000067,0.50000067 0 1 1 0.51998,0.85418 z"
       style="" />
    <path
       id="path112"
       fill="#010101"
       d="m 257.58633,378.49082 -14.23062,8.66286 a 0.50000067,0.50000067 0 1 1 -0.51998,-0.85418 l 14.23063,-8.66286 a 0.5,0.5 0 1 1 0.51997,0.85418 z"
       style="" />
    <path
       id="path114"
       fill="#ffda62"
       d="m 68.835953,349.53468 -0.33313,0.20279 a 5.6,5.6 0 0 1 -7.686744,-1.87672 l -40.76637,-66.96762 a 5.6,5.6 0 0 1 1.862977,-7.69009 l 0.33313,-0.20279 a 5.6,5.6 0 0 1 7.686743,1.87672 l 40.797569,67.01887 a 5.6,5.6 0 0 1 -1.894175,7.63884 z"
       style="" />
    <path
       id="path116"
       fill="#010101"
       d="m 69.355932,350.38886 -0.33313,0.20279 A 6.6,6.6 0 0 1 59.9671,348.38927 L 19.19553,281.4131 a 6.6,6.6 0 0 1 2.197177,-9.06424 l 0.333129,-0.20279 a 6.6,6.6 0 0 1 9.060902,2.21092 l 40.797569,67.01887 a 6.6,6.6 0 0 1 -2.228375,9.013 z M 22.406666,274.01451 a 4.61,4.61 0 0 0 -1.519861,6.36904 l 40.797568,67.01887 a 4.61,4.61 0 0 0 6.321128,1.53732 l 0.341671,-0.20799 a 4.61,4.61 0 0 0 1.537319,-6.32113 L 29.086922,275.39175 a 4.61,4.61 0 0 0 -6.321127,-1.53732 z"
       style="" />
    <path
       id="path118"
       fill="#ffda62"
       d="m 105.5754,408.46408 -1.58023,0.96196 a 4.86,4.86 0 0 1 -6.669866,-1.62941 L 66.079753,356.46902 a 4.87,4.87 0 0 1 1.615669,-6.67321 l 1.580231,-0.96196 a 4.87,4.87 0 0 1 6.669867,1.62941 l 31.24555,51.32761 a 4.86,4.86 0 0 1 -1.61567,6.67321 z"
       style="" />
    <path
       id="path120"
       fill="#010101"
       d="m 106.09538,409.31826 -1.58023,0.96196 a 5.87,5.87 0 0 1 -8.044025,-1.96361 L 65.225574,356.989 a 5.86,5.86 0 0 1 1.955068,-8.03883 l 1.580231,-0.96196 a 5.86,5.86 0 0 1 8.038825,1.95507 l 31.245552,51.32761 a 5.87,5.87 0 0 1 -1.94987,8.04737 z M 68.215401,350.64999 a 3.87,3.87 0 0 0 -1.290011,5.30425 l 31.245551,51.32761 a 3.87,3.87 0 0 0 5.304249,1.29001 l 1.58023,-0.96196 a 3.86,3.86 0 0 0 1.29001,-5.30425 L 75.099882,350.97804 a 3.86,3.86 0 0 0 -5.30425,-1.29001 z"
       style="" />
    <path
       id="path122"
       fill="#010101"
       d="m 29.272943,274.17803 -9.541179,5.80817 a 0.50000041,0.50000041 0 1 1 -0.519979,-0.85418 l 9.541179,-5.80816 a 0.5,0.5 0 1 1 0.519979,0.85417 z"
       style="" />
    <path
       id="path124"
       fill="#010101"
       d="m 31.482855,277.80829 -9.541179,5.80817 a 0.5,0.5 0 0 1 -0.687079,-0.1671 0.5,0.5 0 0 1 0.1671,-0.68708 l 9.541178,-5.80816 a 0.5,0.5 0 0 1 0.687079,0.1671 0.5,0.5 0 0 1 -0.167099,0.68707 z"
       style="" />
    <path
       id="path126"
       fill="#010101"
       d="m 34.441536,282.66857 -9.541178,5.80817 a 0.5,0.5 0 0 1 -0.687079,-0.1671 0.5,0.5 0 0 1 0.1671,-0.68708 l 9.541178,-5.80817 a 0.5,0.5 0 0 1 0.687079,0.1671 0.5,0.5 0 0 1 -0.1671,0.68708 z"
       style="" />
    <path
       id="path128"
       fill="#010101"
       d="m 38.11259,288.69908 -9.541179,5.80816 a 0.5,0.5 0 0 1 -0.687079,-0.1671 0.5,0.5 0 0 1 0.1671,-0.68708 l 9.541178,-5.80816 a 0.5,0.5 0 0 1 0.687079,0.1671 0.5,0.5 0 0 1 -0.167099,0.68708 z"
       style="" />
    <path
       id="path130"
       fill="#010101"
       d="m 41.794042,294.74666 -9.541178,5.80817 a 0.5,0.5 0 0 1 -0.687079,-0.1671 0.5,0.5 0 0 1 0.1671,-0.68708 l 9.541178,-5.80817 a 0.5,0.5 0 0 1 0.687079,0.1671 0.5,0.5 0 0 1 -0.1671,0.68708 z"
       style="" />
    <path
       id="path132"
       fill="#010101"
       d="m 46.213866,302.00718 -9.541179,5.80817 a 0.5,0.5 0 0 1 -0.687079,-0.1671 0.5,0.5 0 0 1 0.1671,-0.68708 l 9.541178,-5.80817 a 0.5,0.5 0 0 1 0.68708,0.1671 0.5,0.5 0 0 1 -0.1671,0.68708 z"
       style="" />
    <path
       id="path134"
       fill="#010101"
       d="m 51.36686,310.4721 -9.541179,5.80816 a 0.50000041,0.50000041 0 1 1 -0.519979,-0.85418 l 9.541178,-5.80816 a 0.50000067,0.50000067 0 1 1 0.51998,0.85418 z"
       style="" />
    <path
       id="path136"
       fill="#010101"
       d="m 55.786683,317.73262 -9.541179,5.80816 a 0.5,0.5 0 0 1 -0.687079,-0.1671 0.5,0.5 0 0 1 0.1671,-0.68707 l 9.541179,-5.80817 a 0.5,0.5 0 0 1 0.687079,0.1671 0.5,0.5 0 0 1 -0.1671,0.68708 z"
       style="" />
    <path
       id="path138"
       fill="#010101"
       d="m 59.468136,323.7802 -9.541179,5.80817 a 0.50000041,0.50000041 0 1 1 -0.519979,-0.85418 l 9.541179,-5.80817 a 0.50000041,0.50000041 0 1 1 0.519979,0.85418 z"
       style="" />
    <path
       id="path140"
       fill="#010101"
       d="m 63.154788,329.83633 -9.541178,5.80817 a 0.5,0.5 0 0 1 -0.687079,-0.1671 0.5,0.5 0 0 1 0.1671,-0.68708 l 9.541178,-5.80817 a 0.5,0.5 0 0 1 0.687079,0.1671 0.5,0.5 0 0 1 -0.1671,0.68708 z"
       style="" />
    <path
       id="path142"
       fill="#010101"
       d="m 66.836241,335.88392 -9.541178,5.80817 a 0.5,0.5 0 0 1 -0.687079,-0.1671 0.5,0.5 0 0 1 0.167099,-0.68708 l 9.541179,-5.80817 a 0.5,0.5 0 0 1 0.687079,0.1671 0.5,0.5 0 0 1 -0.1671,0.68708 z"
       style="" />
    <path
       id="path144"
       fill="#010101"
       d="m 69.800123,340.75274 -9.541179,5.80817 a 0.5,0.5 0 0 1 -0.687079,-0.1671 0.5,0.5 0 0 1 0.1671,-0.68708 l 9.541178,-5.80817 a 0.5,0.5 0 0 1 0.68708,0.1671 0.5,0.5 0 0 1 -0.1671,0.68708 z"
       style="" />
    <path
       id="path146"
       fill="#010101"
       d="m 71.989235,344.34883 -9.541178,5.80817 a 0.5,0.5 0 0 1 -0.687079,-0.1671 0.5,0.5 0 0 1 0.167099,-0.68708 l 9.541179,-5.80817 a 0.5,0.5 0 0 1 0.687079,0.1671 0.5,0.5 0 0 1 -0.1671,0.68708 z"
       style="" />
    <path
       id="path148"
       fill="#010101"
       d="m 76.210709,350.89889 -9.899934,6.02656 a 0.5,0.5 0 0 1 -0.687079,-0.1671 0.5,0.5 0 0 1 0.1671,-0.68708 l 9.865767,-6.00576 a 0.5,0.5 0 0 1 0.687079,0.1671 0.5,0.5 0 0 1 -0.132933,0.66628 z"
       style="" />
    <path
       id="path150"
       fill="#010101"
       d="m 79.153791,355.73354 -9.899933,6.02656 a 0.5,0.5 0 0 1 -0.687079,-0.1671 0.5,0.5 0 0 1 0.167099,-0.68708 l 9.865767,-6.00576 a 0.5,0.5 0 0 1 0.687079,0.1671 0.5,0.5 0 0 1 -0.132933,0.66628 z"
       style="" />
    <path
       id="path152"
       fill="#010101"
       d="m 82.835244,361.78113 -9.899934,6.02656 a 0.5,0.5 0 0 1 -0.687079,-0.1671 0.5,0.5 0 0 1 0.1671,-0.68708 l 9.865767,-6.00576 a 0.5,0.5 0 0 1 0.687079,0.1671 0.5,0.5 0 0 1 -0.132933,0.66628 z"
       style="" />
    <path
       id="path154"
       fill="#010101"
       d="m 86.516697,367.82872 -9.899934,6.02655 a 0.5,0.5 0 0 1 -0.687079,-0.16709 0.5,0.5 0 0 1 0.1671,-0.68708 l 9.865767,-6.00576 a 0.5,0.5 0 0 1 0.687079,0.1671 0.5,0.5 0 0 1 -0.132933,0.66628 z"
       style="" />
    <path
       id="path156"
       fill="#010101"
       d="m 90.93652,375.08924 -9.899933,6.02656 a 0.5,0.5 0 0 1 -0.687079,-0.1671 0.5,0.5 0 0 1 0.167099,-0.68708 l 9.865767,-6.00576 a 0.5,0.5 0 0 1 0.687079,0.1671 0.5,0.5 0 0 1 -0.132933,0.66628 z"
       style="" />
    <path
       id="path158"
       fill="#010101"
       d="m 95.351144,382.34122 -9.899934,6.02655 a 0.5,0.5 0 1 1 -0.519979,-0.85417 l 9.865766,-6.00576 a 0.5,0.5 0 1 1 0.51998,0.85417 z"
       style="" />
    <path
       id="path160"
       fill="#010101"
       d="m 99.037796,388.39734 -9.899933,6.02656 a 0.5,0.5 0 0 1 -0.687079,-0.1671 0.5,0.5 0 0 1 0.167099,-0.68708 l 9.865767,-6.00576 a 0.5,0.5 0 0 1 0.687079,0.1671 0.5,0.5 0 0 1 -0.132933,0.66628 z"
       style="" />
    <path
       id="path162"
       fill="#010101"
       d="m 101.98088,393.232 -9.899935,6.02656 a 0.5,0.5 0 0 1 -0.687079,-0.1671 0.5,0.5 0 0 1 0.1671,-0.68708 l 9.865764,-6.00576 a 0.5,0.5 0 0 1 0.68708,0.1671 0.5,0.5 0 0 1 -0.13293,0.66628 z"
       style="" />
    <path
       id="path164"
       fill="#010101"
       d="m 104.92916,398.07519 -9.899933,6.02656 a 0.5,0.5 0 0 1 -0.687079,-0.1671 0.5,0.5 0 0 1 0.1671,-0.68708 l 9.865762,-6.00576 a 0.5,0.5 0 0 1 0.68708,0.1671 0.5,0.5 0 0 1 -0.13293,0.66628 z"
       style="" />
    <path
       id="path166"
       fill="#010101"
       d="m 107.87225,402.90984 -9.899941,6.02656 a 0.5,0.5 0 0 1 -0.687079,-0.1671 0.5,0.5 0 0 1 0.1671,-0.68708 l 9.86577,-6.00576 a 0.5,0.5 0 0 1 0.68708,0.1671 0.5,0.5 0 0 1 -0.13293,0.66628 z"
       style="" />
    <path
       id="path168"
       fill="#929292"
       d="m 263.43561,434.0629 -2.07566,1.26355 a 1.83,1.83 0 0 1 -2.50096,-0.60824 l -6.01616,-9.88285 a 1.83,1.83 0 0 1 0.60824,-2.50097 l 2.07565,-1.26355 a 1.83,1.83 0 0 1 2.50097,0.60825 l 6.03176,9.90847 a 1.82,1.82 0 0 1 -0.62384,2.47534 z"
       style="" />
    <path
       id="path170"
       fill="#010101"
       d="m 263.6956,434.48999 -2.06712,1.25835 a 2.32,2.32 0 0 1 -3.18804,-0.77534 l -6.01616,-9.88285 a 2.32,2.32 0 0 1 0.77534,-3.18805 l 2.06711,-1.25835 a 2.32,2.32 0 0 1 3.18805,0.77535 l 6.03176,9.90847 a 2.32,2.32 0 0 1 -0.79094,3.16242 z m -9.9916,-11.75933 a 1.33,1.33 0 0 0 -0.44968,1.81908 l 6.03176,9.90848 a 1.34,1.34 0 0 0 1.82763,0.44449 l 2.06711,-1.25835 a 1.34,1.34 0 0 0 0.44448,-1.82763 l -6.01616,-9.88285 a 1.33,1.33 0 0 0 -1.82243,-0.43595 z"
       style="" />
    <path
       id="path172"
       fill="#929292"
       d="m 279.16958,424.48489 -2.07565,1.26355 a 1.83,1.83 0 0 1 -2.50097,-0.60825 l -6.01616,-9.88285 a 1.83,1.83 0 0 1 0.60825,-2.50097 l 2.07565,-1.26355 a 1.83,1.83 0 0 1 2.50097,0.60825 l 6.03176,9.90847 a 1.83,1.83 0 0 1 -0.62385,2.47535 z"
       style="" />
    <path
       id="path174"
       fill="#010101"
       d="m 279.42957,424.91198 -2.07565,1.26355 a 2.32,2.32 0 0 1 -3.18805,-0.77535 l -6.01616,-9.88285 a 2.32,2.32 0 0 1 0.77535,-3.18805 l 2.07565,-1.26354 a 2.33,2.33 0 0 1 3.17951,0.78054 l 6.03175,9.90847 a 2.33,2.33 0 0 1 -0.7824,3.15723 z m -10.00013,-11.75414 a 1.32,1.32 0 0 0 -0.44115,1.81389 l 6.03176,9.90847 a 1.33,1.33 0 0 0 1.81909,0.44969 l 2.07565,-1.26355 a 1.33,1.33 0 0 0 0.43595,-1.82243 l -6.01616,-9.88285 a 1.33,1.33 0 0 0 -1.81389,-0.44115 z"
       style="" />
    <path
       id="path176"
       fill="#010101"
       d="m 274.65083,413.56171 -5.18486,3.15628 a 0.5,0.5 0 0 1 -0.68708,-0.1671 0.5,0.5 0 0 1 0.1671,-0.68708 l 5.18486,-3.15627 a 0.5,0.5 0 0 1 0.68708,0.1671 0.51,0.51 0 0 1 -0.1671,0.68707 z"
       style="" />
    <path
       id="path178"
       fill="#010101"
       d="m 279.30465,421.20662 -5.18487,3.15627 a 0.5,0.5 0 0 1 -0.68708,-0.1671 0.5,0.5 0 0 1 0.1671,-0.68708 l 5.18487,-3.15627 a 0.5,0.5 0 0 1 0.68708,0.1671 0.51,0.51 0 0 1 -0.1671,0.68708 z"
       style="" />
    <path
       id="path180"
       fill="#010101"
       d="m 258.91686,423.13973 -5.20195,3.16667 a 0.5,0.5 0 0 1 -0.67854,-0.1723 0.49,0.49 0 0 1 0.15856,-0.68187 l 5.18486,-3.15628 a 0.5,0.5 0 0 1 0.68708,0.1671 0.5,0.5 0 0 1 -0.15001,0.67668 z"
       style="" />
    <path
       id="path182"
       fill="#010101"
       d="m 263.57067,430.78463 -5.20195,3.16668 a 0.5,0.5 0 0 1 -0.67854,-0.1723 0.49,0.49 0 0 1 0.15856,-0.68188 l 5.18487,-3.15628 a 0.5,0.5 0 0 1 0.68708,0.1671 0.5,0.5 0 0 1 -0.15002,0.67668 z"
       style="" />
    <path
       id="path190"
       fill="#010101"
       d="m 379.61937,398.14169 -25.86454,15.74497 a 1,1 0 0 1 -1.37416,-0.3342 l -8.55366,-14.05124 a 1,1 0 0 1 0.3342,-1.37416 l 25.86454,-15.74497 a 1,1 0 0 1 1.37416,0.3342 l 8.55886,14.05979 a 1,1 0 0 1 -0.3394,1.36561 z m -26.05886,13.52184 24.16472,-14.71021 -7.5137,-12.34289 -24.16472,14.71021 z"
       style="" />
    <path
       id="path194"
       fill="#010101"
       d="m 368.55853,327.10436 -77.88404,47.4117 a 4.61,4.61 0 0 1 -6.36309,-1.3947 l -31.04795,-51.00302 a 1.5,1.5 0 0 1 0.49275,-2.05604 l 83.63266,-50.91116 a 1.5,1.5 0 0 1 2.06124,0.5013 l 8.07008,13.25685 a 1.07,1.07 0 0 1 0.12999,0.21355 l 22.71269,37.31053 a 4.88,4.88 0 0 1 -1.80433,6.67099 z m -111.95072,-5.24241 30.27319,49.7303 a 1.63,1.63 0 0 0 2.25436,0.39544 l 77.88403,-47.4117 a 1.91,1.91 0 0 0 0.78279,-2.5604 L 344.9491,284.47443 a 2.28,2.28 0 0 1 -0.1352,-0.22209 l -7.14451,-11.73641 z"
       style="" />
    <path
       id="path198"
       fill="#010101"
       d="m 362.44311,363.82956 -34.93592,21.26715 a 1,1 0 0 1 -1.37416,-0.3342 l -8.25727,-13.56436 a 1,1 0 0 1 0.3342,-1.37416 l 34.93592,-21.26715 a 1,1 0 0 1 1.37416,0.3342 l 8.28327,13.60707 a 1,1 0 0 1 -0.3602,1.33145 z m -35.1217,19.03881 33.22756,-20.22719 -7.24851,-11.90725 -33.22756,20.22719 z"
       style="" />
    <path
       id="path202"
       fill="#010101"
       d="m 433.28368,403.96679 -10.10493,6.15135 a 1.500002,1.500002 0 1 1 -1.55994,-2.56254 l 10.10494,-6.15135 a 3.3,3.3 0 0 0 1.09951,-4.52098 L 360.99853,278.89554 a 4.82,4.82 0 0 0 -6.62344,-1.61085 l -7.7474,4.71621 a 1.5,1.5 0 0 1 -1.55994,-2.56253 l 7.78157,-4.73701 a 7.82,7.82 0 0 1 10.73218,2.6101 l 71.85592,118.03898 a 6.29,6.29 0 0 1 -2.15374,8.61635 z"
       style="" />
    <path
       id="path204"
       fill="#010101"
       d="m 342.86885,459.00659 -9.90848,6.03175 a 5.93,5.93 0 0 1 -8.14022,-1.987 L 252.66784,344.52547 a 7.53,7.53 0 0 1 2.51318,-10.33366 l 5.20195,-3.16668 a 1.500002,1.500002 0 0 1 1.55994,2.56254 l -5.20195,3.16667 a 4.54,4.54 0 0 0 -1.51393,6.22494 l 72.15752,118.53441 a 2.94,2.94 0 0 0 4.03148,0.98774 l 9.90848,-6.03176 a 1.5,1.5 0 1 1 1.55993,2.56254 z"
       style="" />
    <path
       id="path206"
       fill="#010101"
       d="m 388.51317,361.69196 -7.26052,4.41983 a 0.5,0.5 0 0 1 -0.68188,-0.15856 l -10.49838,-17.24587 a 0.5,0.5 0 0 1 0.1671,-0.68708 l 7.26052,-4.41983 a 0.5,0.5 0 0 1 0.68708,0.1671 l 10.49838,17.24588 a 0.5,0.5 0 0 1 -0.1723,0.67853 z m -7.35341,3.30566 6.40634,-3.89985 -9.9732,-16.38315 -6.40634,3.89985 z"
       style="" />
    <path
       id="path208"
       fill="#010101"
       d="m 404.2386,352.11915 -7.26052,4.41982 a 0.5,0.5 0 0 1 -0.68188,-0.15856 l -10.49838,-17.24587 a 0.5,0.5 0 0 1 0.1671,-0.68708 l 7.26052,-4.41982 a 0.5,0.5 0 0 1 0.68708,0.1671 l 10.49838,17.24587 a 0.49,0.49 0 0 1 -0.1723,0.67854 z m -7.35341,3.30565 6.40634,-3.89984 -9.9732,-16.38316 -6.40634,3.89985 z"
       style="" />
    <path
       id="path210"
       fill="#010101"
       d="m 403.06868,459.14396 a 0.5,0.5 0 0 1 -0.68708,-0.1671 l -9.38562,-15.41793 a 0.5,0.5 0 0 1 0.1671,-0.68708 l 32.6638,-19.88401 a 0.50000067,0.50000067 0 1 1 0.51998,0.85418 l -32.23672,19.62402 9.13084,14.99938 a 0.51,0.51 0 0 1 -0.1723,0.67854 z"
       style="" />
    <path
       id="path212"
       fill="#010101"
       d="m 375.78429,444.67078 a 0.52,0.52 0 0 1 -0.39924,0.0557 l -50.25861,-14.17334 a 0.5,0.5 0 1 1 0.26996,-0.96043 l 50.24301,14.14772 a 0.49,0.49 0 0 1 0.36399,0.59792 0.51,0.51 0 0 1 -0.21911,0.33241 z"
       style="" />
    <rect
       transform="rotate(-31.330857)"
       id="rect214"
       fill="#ffda62"
       height="6.0615249"
       width="41.749382"
       y="614.10687"
       x="77.838066"
       style="" />
    <path
       id="path216"
       fill="#010101"
       d="m 425.74651,468.26148 -34.28349,20.855 c -0.12943,0.0788 -1.24212,0.0336 -1.93575,0.0362 -0.8233,0.003 -1.19888,0.0589 -1.2931,-0.0943 l -2.75471,-4.47945 c -0.17152,-0.28168 -0.0788,-0.64926 0.20572,-0.81595 l 36.11469,-21.98473 c 0.27876,-0.17623 0.64785,-0.0897 0.81929,0.19198 l 3.31747,5.44966 c 0.18602,0.28382 0.0998,0.66529 -0.19012,0.84158 z m -36.61862,20.44772 35.49588,-21.1574 -2.70389,-4.44173 -35.10676,21.37114 z"
       style="" />
    <path
       id="path218"
       fill="#010101"
       d="m 473.85969,485.12229 a 1.49,1.49 0 0 1 -2.2659,-1.39523 c 0.52153,-7.20129 -3.49704,-20.36062 -5.94255,-27.57034 a 26.62,26.62 0 0 0 -2.49521,-5.32973 l -10.06679,-16.5369 c -1.03996,-1.70836 -3.39429,-3.78732 -5.21597,-4.10664 a 1.508944,1.508944 0 0 1 0.53321,-2.97041 c 2.84152,0.49459 5.86363,3.20897 7.26238,5.50671 l 10.06679,16.5369 a 30.1,30.1 0 0 1 2.7734,5.92135 c 2.5172,7.42364 6.65352,21.02641 6.09078,28.75618 a 1.49,1.49 0 0 1 -0.74014,1.18811 z"
       style="" />
    <path
       id="path224"
       fill="#010101"
       d="m 468.58853,484.71359 a 1,1 0 0 1 -1.37416,-0.3342 l -24.66261,-40.51371 a 1,1 0 0 1 -0.0743,-0.89134 l 0.47979,-1.13498 a 1,1 0 0 1 1.84844,0.74791 l -0.26849,0.65514 24.40782,40.09516 a 1,1 0 0 1 -0.35648,1.37602 z"
       style="" />
    <path
       id="path228"
       fill="#010101"
       d="m 300.50775,314.18551 -36.72969,22.3591 a 1.0000013,1.0000013 0 0 1 -1.03996,-1.70836 l 35.87552,-21.83912 -8.92805,-14.66625 a 1.0000013,1.0000013 0 0 1 1.70836,-1.03996 l 9.44802,15.52043 a 1,1 0 0 1 -0.3342,1.37416 z"
       style="" />
    <path
       id="path230"
       fill="#010101"
       d="m 287.39217,375.35516 a 0.5,0.5 0 0 1 -0.72757,-0.59903 l 14.57896,-38.88032 a 0.5,0.5 0 1 1 0.92663,0.34907 l -14.57042,38.87513 a 0.51,0.51 0 0 1 -0.2076,0.25515 z"
       style="" />
    <path
       id="path232"
       fill="#010101"
       d="m 393.32912,433.9904 a 0.5,0.5 0 0 1 -0.74094,-0.54406 l 12.48937,-52.37101 a 0.5,0.5 0 0 1 0.60647,-0.36918 0.5,0.5 0 0 1 0.36919,0.60646 l -12.48938,52.37102 a 0.51,0.51 0 0 1 -0.23471,0.30677 z"
       style="" />
    <path
       id="path234"
       fill="#010101"
       d="m 406.34182,382.45983 a 1.5,1.5 0 0 1 -2.05604,-0.49276 l -34.80221,-57.1702 a 1.5,1.5 0 1 1 2.56254,-1.55993 l 34.80221,57.17019 a 1.49,1.49 0 0 1 -0.5065,2.0527 z"
       style="" />
    <path
       id="path236"
       fill="#010101"
       d="m 371.02483,324.444 a 0.48,0.48 0 0 1 -0.34947,0.0606 l -38.44847,-6.60002 a 0.5,0.5 0 0 1 -0.36399,-0.59793 0.49,0.49 0 0 1 0.57193,-0.40669 l 38.44847,6.60002 a 0.51,0.51 0 0 1 0.36918,0.60646 0.5,0.5 0 0 1 -0.22765,0.33761 z"
       style="" />
    <path
       id="path238"
       fill="#010101"
       d="m 423.16231,378.10909 -14.20499,8.64726 a 0.5,0.5 0 0 1 -0.68708,-0.1671 0.5,0.5 0 0 1 0.1671,-0.68708 l 14.20499,-8.64726 a 0.5,0.5 0 0 1 0.68708,0.1671 0.5,0.5 0 0 1 -0.1671,0.68708 z"
       style="" />
    <path
       id="path240"
       fill="#010101"
       d="m 328.64741,435.64479 -13.66686,8.31967 a 0.5,0.5 0 0 1 -0.68708,-0.1671 0.51,0.51 0 0 1 0.1671,-0.68708 l 13.66686,-8.31967 a 0.5,0.5 0 0 1 0.68708,0.1671 0.5,0.5 0 0 1 -0.1671,0.68708 z"
       style="" />
    <path
       id="path242"
       fill="#010101"
       d="m 280.72604,364.40459 -10.36973,6.31254 a 0.50000067,0.50000067 0 1 1 -0.51998,-0.85418 l 10.36973,-6.31254 a 0.50000067,0.50000067 0 1 1 0.51998,0.85418 z"
       style="" />
    <path
       id="path248"
       fill="#010101"
       d="m 378.56369,304.84617 -14.20499,8.64725 a 0.50000067,0.50000067 0 1 1 -0.51998,-0.85418 l 14.20499,-8.64725 a 0.50000067,0.50000067 0 1 1 0.51998,0.85418 z"
       style="" />
    <path
       id="path250"
       fill="#929292"
       d="m 384.42151,360.41305 -2.07565,1.26355 a 1.83,1.83 0 0 1 -2.50097,-0.60825 l -6.01616,-9.88285 a 1.83,1.83 0 0 1 0.60824,-2.50096 l 2.07566,-1.26355 a 1.83,1.83 0 0 1 2.50096,0.60824 l 6.03176,9.90848 a 1.81,1.81 0 0 1 -0.62384,2.47534 z"
       style="" />
    <path
       id="path252"
       fill="#010101"
       d="m 384.6815,360.84014 -2.07566,1.26355 a 2.32,2.32 0 0 1 -3.18804,-0.77535 l -6.01616,-9.88285 a 2.32,2.32 0 0 1 0.77534,-3.18804 l 2.07566,-1.26355 a 2.33,2.33 0 0 1 3.18804,0.77534 l 6.03176,9.90848 a 2.33,2.33 0 0 1 -0.79094,3.16242 z M 374.68136,349.086 a 1.32,1.32 0 0 0 -0.44114,1.81389 l 6.03176,9.90847 a 1.33,1.33 0 0 0 1.81909,0.44969 l 2.07565,-1.26355 a 1.31,1.31 0 0 0 0.43594,-1.82243 l -6.01616,-9.88285 a 1.33,1.33 0 0 0 -1.81388,-0.44114 z"
       style="" />
    <path
       id="path254"
       fill="#929292"
       d="m 400.14694,350.84023 -2.07565,1.26355 a 1.83,1.83 0 0 1 -2.50097,-0.60824 l -6.01616,-9.88285 a 1.83,1.83 0 0 1 0.60825,-2.50097 l 2.07565,-1.26355 a 1.83,1.83 0 0 1 2.50097,0.60824 l 6.03176,9.90848 a 1.81,1.81 0 0 1 -0.62385,2.47534 z"
       style="" />
    <path
       id="path256"
       fill="#010101"
       d="m 400.40693,351.26732 -2.07565,1.26355 a 2.32,2.32 0 0 1 -3.18805,-0.77534 l -6.01616,-9.88285 a 2.32,2.32 0 0 1 0.77535,-3.18805 l 2.07565,-1.26355 a 2.32,2.32 0 0 1 3.18805,0.77534 l 6.03176,9.90848 a 2.32,2.32 0 0 1 -0.79095,3.16242 z M 390.4068,339.51318 a 1.32,1.32 0 0 0 -0.44115,1.81389 l 6.03176,9.90848 a 1.33,1.33 0 0 0 1.81909,0.44968 l 2.07565,-1.26355 a 1.31,1.31 0 0 0 0.43595,-1.82243 l -6.01616,-9.88285 a 1.32,1.32 0 0 0 -1.81389,-0.44114 z"
       style="" />
    <path
       id="path258"
       fill="#010101"
       d="m 395.62819,339.91706 -5.18486,3.15627 a 0.5,0.5 0 0 1 -0.68708,-0.1671 0.5,0.5 0 0 1 0.1671,-0.68708 l 5.18486,-3.15627 a 0.5,0.5 0 0 1 0.68708,0.1671 0.51,0.51 0 0 1 -0.1671,0.68708 z"
       style="" />
    <path
       id="path260"
       fill="#010101"
       d="m 400.28201,347.56196 -5.18487,3.15627 a 0.5,0.5 0 0 1 -0.68708,-0.1671 0.5,0.5 0 0 1 0.1671,-0.68708 l 5.18487,-3.15627 a 0.5,0.5 0 0 1 0.68708,0.1671 0.51,0.51 0 0 1 -0.1671,0.68708 z"
       style="" />
    <path
       id="path262"
       fill="#010101"
       d="m 379.90276,349.48988 -5.18487,3.15627 a 0.5,0.5 0 0 1 -0.68708,-0.1671 0.5,0.5 0 0 1 0.1671,-0.68708 l 5.18487,-3.15627 a 0.5,0.5 0 0 1 0.68708,0.1671 0.51,0.51 0 0 1 -0.1671,0.68708 z"
       style="" />
    <path
       id="path264"
       fill="#010101"
       d="m 384.55657,357.13478 -5.18486,3.15627 a 0.5,0.5 0 0 1 -0.68708,-0.1671 0.5,0.5 0 0 1 0.1671,-0.68708 l 5.18486,-3.15627 a 0.5,0.5 0 0 1 0.68708,0.1671 0.51,0.51 0 0 1 -0.1671,0.68708 z"
       style="" />
    <path
       id="path266"
       fill="#929292"
       d="m 401.36912,457.00592 v 0 l -7.79969,-12.81268 a 0.78,0.78 0 0 1 0.26921,-1.07704 v 0 a 5,5 0 0 1 6.8708,1.67099 l 2.59989,4.2709 a 5.79,5.79 0 0 1 -1.94021,7.94783 z"
       style="" />
    <path
       id="path268"
       fill="#010101"
       d="m 401.6291,457.43301 a 0.5,0.5 0 0 1 -0.68187,-0.15856 l -7.82569,-12.85539 a 1.29,1.29 0 0 1 0.43632,-1.76412 5.51,5.51 0 0 1 7.57161,1.84144 l 2.59989,4.27089 a 6.29,6.29 0 0 1 -2.10026,8.66574 z m -7.55127,-13.92389 a 0.28,0.28 0 0 0 -0.10211,0.38996 l 7.5501,12.40268 a 5.29,5.29 0 0 0 1.37016,-6.98034 l -2.59989,-4.27089 a 4.51,4.51 0 0 0 -6.17555,-1.56741 z"
       style="" />
    <g
       transform="matrix(0.85417892,-0.51997921,-0.51997921,-0.85417892,83.425105,609.08687)"
       id="g2331"
       style="">
      <polygon
         id="polygon244"
         fill="#ffda62"
         points="526.46,385.68 534.26,386.85 543.14,366.3 539.81,359.95 546.15,335.62 523.83,319.04 492.49,315.04 451.05,194.74 437.25,194.74 436.57,219.74 448.94,220.24 487.72,320.44 478.68,336.56 475.58,367.38 504.51,389.68 514.95,389.04 521.1,372.12 495.9,355.19 492.2,340.38 518.95,338.69 537.09,352.95 534.12,362.73 524.18,377.83 "
         style="" />
      <path
         id="path246"
         fill="#010101"
         transform="translate(-20.5,-70)"
         d="m 525,460.18 a 0.57,0.57 0 0 1 -0.31,-0.1 l -28.93,-22.31 a 0.47,0.47 0 0 1 -0.19,-0.44 l 3.1,-30.82 a 0.66,0.66 0 0 1 0.06,-0.2 l 8.92,-15.91 -38.55,-99.68 -12,-0.48 a 0.5,0.5 0 0 1 -0.48,-0.51 l 0.67,-25 a 0.51,0.51 0 0 1 0.5,-0.49 h 13.81 a 0.51,0.51 0 0 1 0.47,0.34 l 41.33,120 31,4 a 0.43,0.43 0 0 1 0.23,0.09 L 567,405.21 a 0.51,0.51 0 0 1 0.18,0.53 l -6.3,24.15 3.24,6.18 a 0.5,0.5 0 0 1 0,0.43 l -8.88,20.55 a 0.52,0.52 0 0 1 -0.53,0.29 l -7.81,-1.17 a 0.48,0.48 0 0 1 -0.4,-0.35 L 544.21,448 a 0.49,0.49 0 0 1 0.06,-0.41 l 9.9,-15.05 2.85,-9.38 -17.73,-13.96 -26,1.64 3.51,14 25,16.83 a 0.49,0.49 0 0 1 0.19,0.58 l -6.16,16.92 a 0.5,0.5 0 0 1 -0.44,0.33 l -10.43,0.64 z m -28.41,-23 28.56,22 9.92,-0.61 5.93,-16.25 -24.87,-16.72 a 0.51,0.51 0 0 1 -0.21,-0.29 l -3.7,-14.81 a 0.48,0.48 0 0 1 0.08,-0.42 0.49,0.49 0 0 1 0.37,-0.2 l 26.75,-1.68 a 0.57,0.57 0 0 1 0.34,0.1 l 18.14,14.25 a 0.51,0.51 0 0 1 0.17,0.54 l -3,9.78 a 0.31,0.31 0 0 1 -0.06,0.13 l -9.81,14.92 2.12,7.31 7.1,1.07 8.64,-20 -3.22,-6.14 a 0.5,0.5 0 0 1 0,-0.36 l 6.26,-24 -22,-16.29 -31.21,-4 a 0.52,0.52 0 0 1 -0.41,-0.33 l -41.32,-120 h -13 l -0.65,24 11.87,0.48 a 0.5,0.5 0 0 1 0.45,0.32 l 38.78,100.2 a 0.51,0.51 0 0 1 0,0.42 l -9,16 z"
         style="" />
      <path
         id="path270"
         fill="#ffda62"
         transform="translate(-20.5,-70)"
         d="m 458.61,234.77 h 16.17 a 12.43,12.43 0 0 1 11.71,8.3 l 48.79,139.25 -21.43,2.56 -41.43,-120.3 h -13.81 z"
         style="" />
      <path
         id="path272"
         fill="#010101"
         transform="translate(-20.5,-70)"
         d="m 513.85,385.88 a 1,1 0 0 1 -0.94,-0.67 l -41.2,-119.63 h -13.1 a 1,1 0 0 1 -1,-1 v -29.81 a 1,1 0 0 1 1,-1 h 16.17 a 13.43,13.43 0 0 1 12.65,9 L 536.22,382 a 1,1 0 0 1 -0.1,0.86 1,1 0 0 1 -0.73,0.46 L 514,385.87 Z M 459.61,263.59 h 12.81 a 1,1 0 0 1 0.94,0.67 l 41.17,119.54 19.39,-2.32 -48.37,-138.08 a 11.45,11.45 0 0 0 -10.77,-7.63 h -15.17 z"
         style="" />
      <path
         id="path274"
         fill="#ffda62"
         transform="translate(-20.5,-70)"
         d="m 554.23,436.7 -0.38,-2.18 a 2.83,2.83 0 0 1 2.29,-3.28 l 0.76,-0.13 a 6.66,6.66 0 0 0 5.33,-5.15 l 3.17,-14.73 a 8.14,8.14 0 0 0 -2.76,-8 l -14.26,-11.75 a 9.34,9.34 0 0 0 -7.3,-2 l -19.29,2.81 a 6.16,6.16 0 0 0 -5.24,5.49 L 515,413.55 a 10,10 0 0 0 4.16,9.15 l 12.25,8.7 a 11.7,11.7 0 0 0 7.13,2.18 l 2.77,-0.07 a 2.2,2.2 0 0 1 2.18,1.73 l 0.9,4.27 a 2,2 0 0 1 -1.85,2.45 l -3.77,0.27 a 11.48,11.48 0 0 1 -7.51,-2.15 L 510,424.77 a 9,9 0 0 1 -3.67,-8 l 2.05,-22.84 a 9.91,9.91 0 0 1 8.52,-9 l 23.76,-3.37 a 10.87,10.87 0 0 1 8.39,2.31 l 21,16.91 a 9.38,9.38 0 0 1 3.17,9.73 l -5.69,21.14 a 9.74,9.74 0 0 1 -7.57,7 l -2.18,0.41 a 2.94,2.94 0 0 1 -3.55,-2.36 z"
         style="" />
      <path
         id="path276"
         fill="#010101"
         transform="translate(-20.5,-70)"
         d="m 538,443.26 a 12.42,12.42 0 0 1 -7.33,-2.38 l -21.2,-15.31 a 10,10 0 0 1 -4.07,-8.91 l 2,-22.85 a 10.85,10.85 0 0 1 9.37,-9.87 l 23.76,-3.37 a 11.93,11.93 0 0 1 9.15,2.53 l 21,16.9 a 10.42,10.42 0 0 1 3.5,10.77 l -5.69,21.13 a 10.78,10.78 0 0 1 -8.35,7.76 l -2.18,0.41 a 3.83,3.83 0 0 1 -3,-0.58 4,4 0 0 1 -1.7,-2.61 v 0 l -0.39,-2.18 a 3.85,3.85 0 0 1 3.11,-4.44 l 0.76,-0.13 a 5.72,5.72 0 0 0 4.53,-4.38 L 564.43,411 A 7.13,7.13 0 0 0 562,404 l -14.25,-11.76 a 8.39,8.39 0 0 0 -6.53,-1.82 l -19.29,2.8 a 5.15,5.15 0 0 0 -4.39,4.6 l -1.6,15.79 a 9.07,9.07 0 0 0 3.75,8.24 l 12.25,8.7 a 10.72,10.72 0 0 0 6.53,2 l 2.76,-0.07 a 3.23,3.23 0 0 1 3.18,2.52 l 0.9,4.28 a 3,3 0 0 1 -2.74,3.65 l -3.78,0.27 z m 4.25,-60.82 a 10.83,10.83 0 0 0 -1.39,0.1 l -23.76,3.38 a 8.87,8.87 0 0 0 -7.67,8.06 l -2,22.85 a 7.89,7.89 0 0 0 3.25,7.13 l 21.2,15.31 a 10.37,10.37 0 0 0 6.86,2 l 3.77,-0.27 a 1,1 0 0 0 0.75,-0.4 1.05,1.05 0 0 0 0.19,-0.86 l -0.9,-4.26 a 1.19,1.19 0 0 0 -1.16,-0.94 v 0 l -2.76,0.07 a 12.5,12.5 0 0 1 -7.74,-2.37 l -12.24,-8.7 A 11.05,11.05 0 0 1 514,413.45 l 1.6,-15.78 a 7.12,7.12 0 0 1 6.08,-6.38 l 19.29,-2.81 a 10.39,10.39 0 0 1 8.09,2.27 l 14.25,11.75 a 9.14,9.14 0 0 1 3.11,8.94 l -3.17,14.73 a 7.62,7.62 0 0 1 -6.13,5.92 l -0.77,0.13 a 1.84,1.84 0 0 0 -1.48,2.13 l 0.38,2.18 a 2,2 0 0 0 0.85,1.31 1.88,1.88 0 0 0 1.46,0.27 l 2.21,-0.41 a 8.79,8.79 0 0 0 6.8,-6.31 l 5.69,-21.14 a 8.41,8.41 0 0 0 -2.84,-8.7 l -21,-16.9 a 9.94,9.94 0 0 0 -6.22,-2.21 z"
         style="" />
      <path
         id="path278"
         fill="#010101"
         transform="translate(-20.5,-70)"
         d="m 531.32,460.52 h -5.42 a 0.93,0.93 0 0 1 -0.6,-0.21 L 500,440.93 a 9.58,9.58 0 0 1 -3.53,-8.46 l 2.63,-26.17 a 0.89,0.89 0 0 1 0.12,-0.39 L 508,390.2 469.64,291.07 h -11 a 1,1 0 0 1 -1,-1 v -25.5 a 1,1 0 0 1 2,0 v 24.5 h 10.7 a 1,1 0 0 1 0.93,0.64 L 510,389.92 a 1.05,1.05 0 0 1 -0.06,0.85 l -8.94,15.93 -2.61,26 a 7.61,7.61 0 0 0 2.79,6.7 l 25,19.16 h 5.08 a 5.66,5.66 0 0 0 5,-3 l 6.21,-14.13 a 1,1 0 0 1 1.32,-0.51 1,1 0 0 1 0.51,1.31 l -6.25,14.21 a 7.7,7.7 0 0 1 -6.73,4.08 z"
         style="" />
      <path
         id="path280"
         fill="#010101"
         transform="translate(-20.5,-70)"
         d="m 525.9,460 a 0.41,0.41 0 0 1 -0.21,0 0.49,0.49 0 0 1 -0.24,-0.66 l 8.68,-18.41 a 0.5,0.5 0 0 1 0.9,0.42 l -8.68,18.42 A 0.5,0.5 0 0 1 525.9,460 Z"
         style="" />
      <path
         id="path282"
         fill="#010101"
         transform="translate(-20.5,-70)"
         d="m 496.94,437.72 a 0.54,0.54 0 0 1 -0.26,-0.07 0.51,0.51 0 0 1 -0.16,-0.69 l 10.36,-16.82 a 0.51,0.51 0 0 1 0.69,-0.16 0.49,0.49 0 0 1 0.16,0.68 l -10.36,16.82 a 0.51,0.51 0 0 1 -0.43,0.24 z"
         style="" />
      <path
         id="path284"
         fill="#010101"
         transform="translate(-20.5,-70)"
         d="m 553,457.69 h -4.43 a 1.84,1.84 0 0 1 -1.55,-0.85 1.81,1.81 0 0 1 -0.12,-1.73 l 8.35,-17.27 a 1,1 0 1 1 1.79,0.87 l -8.25,17.05 4.21,-0.07 a 3,3 0 0 0 2.77,-1.83 l 7.8,-18.11 a 1,1 0 0 1 1.83,0.79 l -7.8,18.12 a 5,5 0 0 1 -4.6,3.03 z"
         style="" />
      <path
         id="path286"
         fill="#010101"
         transform="translate(-20.5,-70)"
         d="m 555.65,457.19 a 0.53,0.53 0 0 1 -0.24,-0.06 0.51,0.51 0 0 1 -0.21,-0.67 l 11.8,-22.6 5.83,-29.31 a 0.50894499,0.50894499 0 0 1 1,0.19 L 568,434.13 a 0.65,0.65 0 0 1 0,0.13 l -11.87,22.66 a 0.51,0.51 0 0 1 -0.48,0.27 z"
         style="" />
      <path
         id="path288"
         fill="#010101"
         transform="translate(-20.5,-70)"
         d="m 515.27,411.17 a 0.5,0.5 0 0 1 -0.5,-0.46 0.51,0.51 0 0 1 0.46,-0.54 l 24.71,-2.1 4.77,-19.3 a 0.51305458,0.51305458 0 1 1 1,0.23 l -4.85,19.65 a 0.5,0.5 0 0 1 -0.44,0.38 l -25.07,2.14 z"
         style="" />
      <path
         id="path290"
         fill="#010101"
         transform="translate(-20.5,-70)"
         d="m 547.33,457.69 a 1,1 0 0 1 -1,-0.68 l -2.07,-6.09 a 5,5 0 0 1 0.38,-3.71 l 7.76,-14.55 a 1,1 0 0 1 1.76,0.94 l -7.76,14.54 a 3,3 0 0 0 -0.23,2.19 l 2,6 a 1,1 0 0 1 -0.62,1.26 1,1 0 0 1 -0.22,0.1 z"
         style="" />
      <path
         id="path292"
         fill="#010101"
         transform="translate(-20.5,-70)"
         d="m 556.36,431.18 h -0.12 a 0.5,0.5 0 0 1 -0.36,-0.61 l 2,-7.57 L 540,408.93 a 0.5,0.5 0 0 1 0.61,-0.79 l 18.15,14.25 a 0.53,0.53 0 0 1 0.17,0.53 l -2.11,7.89 a 0.51,0.51 0 0 1 -0.46,0.37 z"
         style="" />
      <path
         id="path294"
         fill="#010101"
         transform="translate(-20.5,-70)"
         d="m 558.48,423.29 a 0.65,0.65 0 0 1 -0.19,0 0.51,0.51 0 0 1 -0.28,-0.65 l 6.55,-16.36 a 0.49,0.49 0 0 1 0.64,-0.28 0.5,0.5 0 0 1 0.28,0.65 L 558.94,423 a 0.49,0.49 0 0 1 -0.46,0.29 z"
         style="" />
    </g>
    <path
       id="path300"
       fill="#ffda62"
       d="m 368.25251,248.56007 1.58023,-0.96196 a 4.86,4.86 0 0 0 1.61567,-6.67321 l -31.24556,-51.32761 a 4.87,4.87 0 0 0 -6.66986,-1.62941 l -1.58023,0.96196 a 4.87,4.87 0 0 0 -1.61567,6.67321 l 31.24555,51.32761 a 4.86,4.86 0 0 0 6.66987,1.62941 z"
       style="" />
    <path
       id="path302"
       fill="#010101"
       d="m 370.35272,248.45229 -1.58023,0.96196 a 5.87,5.87 0 0 1 -8.04403,-1.96361 l -31.24555,-51.32761 a 5.86,5.86 0 0 1 1.95507,-8.03882 l 1.58023,-0.96196 a 5.86,5.86 0 0 1 8.03882,1.95506 l 31.24555,51.32761 a 5.87,5.87 0 0 1 -1.94986,8.04737 z m -37.87998,-58.66827 a 3.86,3.86 0 0 0 -1.29001,5.30425 l 31.24555,51.32761 a 3.86,3.86 0 0 0 5.30425,1.29001 l 1.58023,-0.96196 a 3.87,3.87 0 0 0 1.29001,-5.30425 l -31.24555,-51.32761 a 3.87,3.87 0 0 0 -5.30425,-1.29001 z"
       style="" />
    <g
       transform="translate(-0.09037093)"
       id="g1572"
       style="">
      <path
         id="path296"
         fill="#ffda62"
         d="m 332.86761,188.86111 0.33313,-0.2028 a 5.6,5.6 0 0 0 1.86298,-7.69008 L 294.29735,114.0006 a 5.6,5.6 0 0 0 -7.68675,-1.87672 l -0.33313,0.20279 a 5.6,5.6 0 0 0 -1.86297,7.69009 l 40.79757,67.01888 a 5.58,5.58 0 0 0 7.65554,1.82547 z"
         style="" />
      <path
         id="path298"
         fill="#010101"
         d="m 333.72072,189.51249 -0.33313,0.20279 a 6.6,6.6 0 0 1 -9.0557,-2.20237 l -40.77157,-66.97617 a 6.6,6.6 0 0 1 2.19718,-9.06424 l 0.33313,-0.2028 a 6.6,6.6 0 0 1 9.07798,2.20052 l 40.79757,67.01888 a 6.6,6.6 0 0 1 -2.24546,9.02339 z m -46.94407,-76.3658 a 4.61,4.61 0 0 0 -1.53731,6.32112 l 40.79756,67.01888 a 4.61,4.61 0 0 0 6.31073,1.52024 l 0.33313,-0.2028 a 4.61,4.61 0 0 0 1.53732,-6.32112 l -40.76637,-66.96763 a 4.61,4.61 0 0 0 -6.32113,-1.53732 z"
         style="" />
      <g
         id="g1518"
         style="">
        <path
           id="path304"
           fill="#010101"
           d="m 293.62065,113.31207 -9.5241,5.79777 a 0.50000067,0.50000067 0 1 1 -0.51998,-0.85418 l 9.5241,-5.79777 a 0.50000067,0.50000067 0 1 1 0.51998,0.85418 z"
           style="" />
        <path
           id="path306"
           fill="#010101"
           d="m 295.83056,116.94233 -9.5241,5.79777 a 0.5,0.5 0 0 1 -0.68707,-0.1671 0.5,0.5 0 0 1 0.1671,-0.68708 l 9.52409,-5.79777 a 0.51,0.51 0 0 1 0.68708,0.1671 0.5,0.5 0 0 1 -0.1671,0.68708 z"
           style="" />
        <path
           id="path308"
           fill="#010101"
           d="m 298.78924,121.80261 -9.52409,5.79777 a 0.5,0.5 0 0 1 -0.68708,-0.1671 0.5,0.5 0 0 1 0.1671,-0.68708 l 9.52409,-5.79777 a 0.5,0.5 0 0 1 0.68708,0.1671 0.51,0.51 0 0 1 -0.1671,0.68708 z"
           style="" />
        <path
           id="path310"
           fill="#010101"
           d="m 302.46029,127.83311 -9.52409,5.79777 a 0.5,0.5 0 0 1 -0.68708,-0.1671 0.5,0.5 0 0 1 0.1671,-0.68708 l 9.5241,-5.79777 a 0.51,0.51 0 0 1 0.68707,0.1671 0.5,0.5 0 0 1 -0.1671,0.68708 z"
           style="" />
        <path
           id="path312"
           fill="#010101"
           d="m 306.14175,133.8807 -9.5241,5.79776 a 0.5,0.5 0 0 1 -0.68708,-0.1671 0.5,0.5 0 0 1 0.1671,-0.68707 l 9.5241,-5.79777 a 0.51,0.51 0 0 1 0.68708,0.1671 0.5,0.5 0 0 1 -0.1671,0.68708 z"
           style="" />
        <path
           id="path314"
           fill="#010101"
           d="m 310.56157,141.14122 -9.52409,5.79777 a 0.5,0.5 0 0 1 -0.68708,-0.1671 0.5,0.5 0 0 1 0.1671,-0.68708 l 9.52409,-5.79777 a 0.51,0.51 0 0 1 0.68708,0.1671 0.5,0.5 0 0 1 -0.1671,0.68708 z"
           style="" />
        <path
           id="path316"
           fill="#010101"
           d="m 315.71456,149.60613 -9.52409,5.79777 a 0.50000067,0.50000067 0 1 1 -0.51998,-0.85418 l 9.5241,-5.79777 a 0.5,0.5 0 1 1 0.51997,0.85418 z"
           style="" />
        <path
           id="path318"
           fill="#010101"
           d="m 320.13439,156.86665 -9.5241,5.79777 a 0.5,0.5 0 0 1 -0.68708,-0.1671 0.5,0.5 0 0 1 0.1671,-0.68708 l 9.5241,-5.79777 a 0.51,0.51 0 0 1 0.68708,0.1671 0.5,0.5 0 0 1 -0.1671,0.68708 z"
           style="" />
        <path
           id="path320"
           fill="#010101"
           d="m 323.81584,162.91424 -9.52409,5.79777 a 0.50000067,0.50000067 0 1 1 -0.51998,-0.85418 l 9.52409,-5.79777 a 0.50000067,0.50000067 0 1 1 0.51998,0.85418 z"
           style="" />
        <path
           id="path322"
           fill="#010101"
           d="m 327.50249,168.97037 -9.52409,5.79776 a 0.5,0.5 0 0 1 -0.68708,-0.1671 0.5,0.5 0 0 1 0.1671,-0.68707 l 9.52409,-5.79777 a 0.5,0.5 0 0 1 0.68708,0.1671 0.51,0.51 0 0 1 -0.1671,0.68708 z"
           style="" />
        <path
           id="path324"
           fill="#010101"
           d="m 331.18395,175.01795 -9.5241,5.79777 a 0.5,0.5 0 0 1 -0.68708,-0.1671 0.5,0.5 0 0 1 0.1671,-0.68708 l 9.5241,-5.79777 a 0.5,0.5 0 0 1 0.68708,0.1671 0.51,0.51 0 0 1 -0.1671,0.68708 z"
           style="" />
        <path
           id="path326"
           fill="#010101"
           d="m 334.14783,179.88677 -9.5241,5.79777 a 0.5,0.5 0 0 1 -0.68708,-0.1671 0.5,0.5 0 0 1 0.1671,-0.68708 l 9.5241,-5.79777 a 0.51,0.51 0 0 1 0.68708,0.1671 0.5,0.5 0 0 1 -0.1671,0.68708 z"
           style="" />
        <path
           id="path328"
           fill="#010101"
           d="m 336.33694,183.48287 -9.52409,5.79777 a 0.5,0.5 0 0 1 -0.68708,-0.1671 0.5,0.5 0 0 1 0.1671,-0.68708 l 9.52409,-5.79777 a 0.51,0.51 0 0 1 0.68708,0.1671 0.5,0.5 0 0 1 -0.1671,0.68708 z"
           style="" />
      </g>
    </g>
    <path
       id="path330"
       fill="#010101"
       d="m 340.50221,190.01212 -9.89993,6.02656 a 0.5,0.5 0 0 1 -0.68708,-0.1671 0.5,0.5 0 0 1 0.1671,-0.68708 l 9.89993,-6.02655 a 0.5,0.5 0 0 1 0.68708,0.1671 0.5,0.5 0 0 1 -0.1671,0.68707 z"
       style="" />
    <path
       id="path332"
       fill="#30a7dc"
       d="M 354.68011,260.38121 122.59116,401.66476 a 13.33,13.33 0 0 1 -18.32274,-4.46343 L 14.468014,249.68464 a 13.33,13.33 0 0 1 4.454882,-18.31753 L 251.01185,90.083562 a 13.33,13.33 0 0 1 18.32607,4.449682 l 89.80041,147.516696 a 13.37,13.37 0 0 1 -4.45822,18.33127 z"
       style="" />
    <path
       id="path334"
       fill="#010101"
       d="M 355.47048,261.67956 123.38152,402.96311 A 14.84,14.84 0 0 1 103.00424,397.9709 L 13.203829,250.4542 a 14.85,14.85 0 0 1 4.94764,-20.37356 L 250.23188,88.802294 a 14.85,14.85 0 0 1 20.37877,4.956181 l 89.80041,147.516695 a 14.87,14.87 0 0 1 -4.94058,20.40439 z M 19.697665,232.63983 a 11.84,11.84 0 0 0 -3.931299,16.25444 l 89.800414,147.5167 a 11.84,11.84 0 0 0 16.25481,3.9896 L 353.91054,259.11702 a 11.88,11.88 0 0 0 3.95692,-16.27003 L 268.05665,95.313213 a 11.85,11.85 0 0 0 -16.27003,-3.956924 z"
       style="" />
    <path
       id="path336"
       fill="#010101"
       d="m 343.44529,194.84677 -9.89993,6.02656 a 0.5,0.5 0 0 1 -0.68708,-0.1671 0.5,0.5 0 0 1 0.1671,-0.68707 l 9.89993,-6.02656 a 0.5,0.5 0 0 1 0.68708,0.1671 0.5,0.5 0 0 1 -0.1671,0.68707 z"
       style="" />
    <path
       id="path342"
       fill="#010101"
       d="m 347.12675,200.89436 -9.89994,6.02656 a 0.5,0.5 0 0 1 -0.68708,-0.1671 0.5,0.5 0 0 1 0.1671,-0.68708 l 9.89994,-6.02656 a 0.5,0.5 0 0 1 0.68708,0.1671 0.5,0.5 0 0 1 -0.1671,0.68708 z"
       style="" />
    <path
       id="path352"
       fill="#010101"
       d="m 350.8082,206.94195 -9.89993,6.02656 a 0.5,0.5 0 0 1 -0.68708,-0.1671 0.5,0.5 0 0 1 0.1671,-0.68708 l 9.89993,-6.02656 a 0.5,0.5 0 0 1 0.68708,0.1671 0.5,0.5 0 0 1 -0.1671,0.68708 z"
       style="" />
    <path
       id="path354"
       fill="#010101"
       d="m 355.22802,214.20247 -9.89993,6.02656 a 0.5,0.5 0 0 1 -0.68708,-0.1671 0.5,0.5 0 0 1 0.1671,-0.68708 l 9.89993,-6.02656 a 0.5,0.5 0 0 1 0.68708,0.1671 0.5,0.5 0 0 1 -0.1671,0.68708 z"
       style="" />
    <path
       id="path356"
       fill="#010101"
       d="m 359.64265,221.45445 -9.89994,6.02656 a 0.50000067,0.50000067 0 1 1 -0.51998,-0.85418 l 9.89994,-6.02656 a 0.50000067,0.50000067 0 1 1 0.51998,0.85418 z"
       style="" />
    <path
       id="path358"
       fill="#010101"
       d="m 363.3293,227.51058 -9.89993,6.02656 a 0.5,0.5 0 0 1 -0.68708,-0.1671 0.5,0.5 0 0 1 0.1671,-0.68708 l 9.89993,-6.02656 a 0.5,0.5 0 0 1 0.68708,0.1671 0.5,0.5 0 0 1 -0.1671,0.68708 z"
       style="" />
    <path
       id="path360"
       fill="#010101"
       d="m 366.27238,232.34523 -9.89993,6.02656 a 0.5,0.5 0 0 1 -0.68708,-0.1671 0.5,0.5 0 0 1 0.1671,-0.68708 l 9.89993,-6.02656 a 0.5,0.5 0 0 1 0.68708,0.1671 0.5,0.5 0 0 1 -0.1671,0.68708 z"
       style="" />
    <path
       id="path362"
       fill="#010101"
       d="m 369.22066,237.18842 -9.89993,6.02656 a 0.5,0.5 0 0 1 -0.68708,-0.1671 0.5,0.5 0 0 1 0.1671,-0.68708 l 9.89993,-6.02656 a 0.5,0.5 0 0 1 0.68708,0.1671 0.5,0.5 0 0 1 -0.1671,0.68708 z"
       style="" />
    <path
       id="path364"
       fill="#010101"
       d="m 372.16375,242.02308 -9.89994,6.02656 a 0.5,0.5 0 0 1 -0.68708,-0.1671 0.5,0.5 0 0 1 0.1671,-0.68708 l 9.89994,-6.02656 a 0.5,0.5 0 0 1 0.68708,0.1671 0.5,0.5 0 0 1 -0.1671,0.68708 z"
       style="" />
    <path
       id="path536"
       fill="#1d1d1b"
       d="M 240.43739,300.26025 Z"
       style="" />
    <path
       id="path538"
       fill="#1d1d1b"
       d="M 240.29773,299.87698 Z"
       style="" />
    <g
       transform="translate(-1.2091909,-2.339017)"
       id="g1503"
       style="">
      <path
         id="path544"
         fill="#be1622"
         d="m 197.35204,318.18446 c -0.26486,-1.45436 -0.58097,-2.87752 -0.78937,-4.35453 a 113.39,113.39 0 0 1 -1.54784,-16.46629 0.89,0.89 0 0 1 0.76169,-1.03732 78.32,78.32 0 0 0 32.04767,-19.68455 l 0.24214,-0.21764 c 3.59737,2.29394 12.87039,15.66143 13.73264,22.2896 -0.2845,-0.23656 -0.48617,-0.39477 -0.67075,-0.56337 a 17.73,17.73 0 0 0 -8.22982,-4.46121 c -5.85576,-1.17671 -10.43827,0.96899 -14.01199,5.57956 -0.36914,0.47057 -0.6848,0.99053 -1.01272,1.47112 -6.04628,-0.93196 -10.9753,1.20224 -14.88253,5.68804 -2.81947,3.21486 -4.27892,6.43302 -5.44563,11.70904 z"
         style="" />
      <g
         id="g1491"
         style="">
        <path
           id="path534"
           fill="#1d1d1b"
           d="m 227.93617,256.40208 a 13.51,13.51 0 0 1 -3.60139,-0.24275 4.29,4.29 0 0 0 -0.30749,0.45645 l -0.73902,1.36303 c -0.51025,0.9311 -1.02719,1.88968 -1.56679,2.79181 a 85.2,85.2 0 0 1 -12.01428,15.16916 108.8,108.8 0 0 1 -16.3845,13.77884 96,96 0 0 1 -11.00146,6.48638 l -1.25787,0.68378 1.01326,2.89533 1.48258,-0.41082 0.0769,-0.0468 a 2.73,2.73 0 0 0 0.83673,-0.29863 l 1.4406,-0.80671 c 1.94307,-1.07748 3.94928,-2.2051 5.91427,-3.34274 l 1.34106,-0.81637 0.0276,2.96853 a 117.71,117.71 0 0 0 1.79638,18.58617 c 0.92237,5.57306 3.06434,9.84174 6.53028,13.0352 a 22.93,22.93 0 0 0 6.01,4.10327 c 3.68463,1.72571 7.51404,1.68917 10.81087,1.50855 a 53.53,53.53 0 0 0 11.76705,-2.36323 l 0.46906,-0.13335 a 19.91,19.91 0 0 0 6.86095,-3.34537 16.87,16.87 0 0 0 4.11409,-4.58832 24.35,24.35 0 0 0 3.07332,-8.2981 c 1.34342,-7.13966 0.0518,-13.8577 -1.38714,-19.4909 a 33.26,33.26 0 0 0 -4.7252,-9.68532 l -0.37958,-0.62355 a 49.53,49.53 0 0 0 -6.61666,-8.84999 94.36,94.36 0 0 0 -10.00187,-8.27606 l -0.49284,-0.36729 a 60.43,60.43 0 0 0 6.33589,-10.61198 z m -31.14416,37.30403 c 0.006,-0.68261 0.0118,-1.36523 -0.006,-2.06827 a 99.75,99.75 0 0 0 11.23534,-9.06384 89,89 0 0 0 10.09622,-10.72355 l 0.67219,-0.81894 6.72237,5.27349 a 77,77 0 0 1 -28.80551,17.66406 z m 38.51665,31.96303 a 15.55,15.55 0 0 1 -6.48622,3.21092 c -0.83413,0.16827 -1.65787,0.35362 -2.49535,0.53564 -1.78972,0.38705 -3.63588,0.79677 -5.45049,1.04678 a 23.78,23.78 0 0 1 -11.68955,-0.79805 4.17,4.17 0 0 1 0.68846,-2.56151 7.38,7.38 0 0 1 1.83833,-1.36493 88.94,88.94 0 0 1 12.97247,-5.61406 l 2.65578,-0.92597 -0.0468,-0.0769 0.9073,-0.25964 c 1.90707,-0.54044 3.87059,-1.10354 5.80552,-1.579 a 8.63,8.63 0 0 1 5.13262,0.20036 2.05,2.05 0 0 1 1.05478,0.80959 15,15 0 0 1 -4.88685,7.37675 z m 5.41767,-24.37086 a 37.26,37.26 0 0 1 0.82186,9.15809 c -0.10134,1.31436 -0.29033,2.60012 -0.49603,3.95459 a 10.54,10.54 0 0 0 -5.34843,-0.95873 24.44,24.44 0 0 0 -6.93975,1.48508 l -0.62133,0.19092 a 119.08,119.08 0 0 0 -14.21143,5.50194 c -1.21405,0.56345 -2.40359,1.20563 -3.56751,1.83221 l -1.34515,0.71349 a 6.2,6.2 0 0 0 -3.23538,4.41633 17.11,17.11 0 0 1 -4.78557,-5.18815 c -0.33799,-0.55521 -0.6043,-1.16577 -0.89475,-1.79675 -0.12999,-0.21355 -0.20874,-0.45829 -0.32165,-0.68223 a 2.23,2.23 0 0 1 -0.1824,-1.43431 c 1.21197,-6.50941 4.22117,-11.16267 9.19918,-14.21644 a 11.73,11.73 0 0 1 6.55238,-1.71755 18.52,18.52 0 0 0 -1.35536,5.81231 l -0.008,1.4098 3.2393,0.74414 0.29444,-1.95872 0.0691,-0.4635 a 15.22,15.22 0 0 1 4.84146,-9.64371 11.36,11.36 0 0 1 12.82145,-1.88121 19.51,19.51 0 0 1 5.275,3.68437 z m -1.9315,-7.01921 a 16.73,16.73 0 0 0 -5.44541,-2.17578 14.4,14.4 0 0 0 -12.16814,2.66594 19.62,19.62 0 0 0 -3.47608,3.52091 c -0.17864,0.22581 -0.35541,0.47391 -0.52364,0.7168 -5.92927,-0.60514 -11.07444,1.52015 -15.307,6.35619 a 22.7,22.7 0 0 0 -3.88971,6.14926 110.61,110.61 0 0 1 -1.21756,-13.63519 80.56,80.56 0 0 0 31.49357,-19.17163 c 2.87096,2.67762 7.98156,9.88055 10.53435,15.63181 z"
           style="" />
        <path
           id="path548"
           fill="#ffffff"
           d="m 225.17996,317.91526 c 2.7854,-0.77074 5.56523,-1.60833 8.37514,-2.30034 a 10.26,10.26 0 0 1 5.98683,0.2189 3.77,3.77 0 0 1 2.19425,1.98908 0.89,0.89 0 0 1 -0.0134,0.59348 17.13,17.13 0 0 1 -5.51297,8.42521 21.19,21.19 0 0 1 -7.24534,3.31011 c -2.67882,0.54196 -5.26961,1.44008 -7.96663,1.81751 -4.4225,0.62002 -8.83202,0.58825 -13.08414,-1.1081 -0.44196,-0.18754 -0.59572,-0.3632 -0.51998,-0.85418 0.14331,-1.45697 0.1919,-2.97336 1.24624,-4.10689 a 9.07,9.07 0 0 1 2.2565,-1.67803 92,92 0 0 1 13.07347,-5.90969 l 1.25789,-0.41452 c -0.0706,-0.039 -0.0338,0.0791 -0.0479,0.0175 z"
           style="" />
        <path
           id="path550"
           fill="#1d1d1b"
           d="m 236.60727,327.57136 a 22.48,22.48 0 0 1 -7.43882,3.35765 l -0.0683,0.0416 c -1.04657,0.20393 -2.14402,0.49737 -3.18502,0.76815 a 41.77,41.77 0 0 1 -4.83472,1.05828 c -5.38365,0.77195 -9.63423,0.38587 -13.49601,-1.15006 a 1.51,1.51 0 0 1 -1.03996,-1.70836 l 0.0401,-0.43415 a 6.61,6.61 0 0 1 1.43118,-4.14924 9.63,9.63 0 0 1 2.46299,-1.83884 92.4,92.4 0 0 1 13.18637,-5.95501 l 0.52366,-0.17829 v 0 l 0.80108,-0.2418 2.50797,-0.70722 c 1.92416,-0.55085 3.90996,-1.11581 5.898,-1.60018 a 11.1,11.1 0 0 1 6.42952,0.25379 4.63,4.63 0 0 1 2.64291,2.4184 1.65,1.65 0 0 1 0.007,1.16616 17.89,17.89 0 0 1 -5.78482,8.82484 z m -7.86561,1.79114 c 2.94732,-0.92785 5.01297,-1.61165 6.93931,-3.15894 a 16,16 0 0 0 5.24448,-8.03932 v 0 a 2.92,2.92 0 0 0 -1.69026,-1.4881 9.45,9.45 0 0 0 -5.47207,-0.18103 c -1.95721,0.47731 -3.92074,1.04041 -5.83635,1.58606 l -2.49089,0.69682 -0.5853,0.1924 -0.64176,0.21506 a 91.76,91.76 0 0 0 -12.9732,5.7667 8.13,8.13 0 0 0 -2.04482,1.52575 5.11,5.11 0 0 0 -0.99149,3.17915 l -0.0453,0.42561 v 0 c 3.58844,1.43306 7.61061,1.77088 12.65852,1.06281 a 42.09,42.09 0 0 0 4.65832,-1.02112 c 1.08742,-0.25222 2.16779,-0.53526 3.27081,-0.76185 z m 12.19864,-11.28925 z"
           style="" />
        <path
           id="path552"
           fill="#ffffff"
           d="m 227.95304,276.14187 c -9.29406,9.57964 -20.35272,15.97206 -32.90074,20.1102 -0.009,-0.53332 -0.0272,-1.02541 -0.0234,-1.51936 -0.005,-1.08558 0.0289,-2.18341 -0.007,-3.26193 a 1.21,1.21 0 0 1 0.59121,-1.14427 100.39,100.39 0 0 0 11.22197,-9.00888 87.73,87.73 0 0 0 9.91573,-10.52002 c 0.52735,-0.67223 1.09778,-1.31216 1.73432,-2.07428 z"
           style="" />
        <path
           id="path554"
           fill="#1d1d1b"
           d="m 220.07613,283.66469 a 82.8,82.8 0 0 1 -24.91017,12.92794 l -0.52365,0.17828 -0.0223,-1.07517 -0.0219,-1.01687 0.0118,-1.09597 c 0.007,-0.71864 0.0148,-1.43729 -0.0138,-2.15741 a 1.6,1.6 0 0 1 0.77764,-1.49191 99.51,99.51 0 0 0 11.14695,-8.93979 88.4,88.4 0 0 0 9.82697,-10.45428 c 0.36061,-0.46536 0.73681,-0.9051 1.14532,-1.38793 l 0.85788,-1.01393 10.14038,7.9459 -0.31345,0.33129 a 76.08,76.08 0 0 1 -8.10161,7.24985 z m -24.66917,11.99685 c 12.81801,-4.29079 23.24196,-10.70658 31.89095,-19.5189 l -8.79071,-6.88265 -0.36097,0.40706 c -0.39143,0.47242 -0.76429,0.89842 -1.11635,1.35859 a 88.64,88.64 0 0 1 -9.95659,10.5683 99.6,99.6 0 0 1 -11.27322,9.04007 0.8,0.8 0 0 0 -0.41853,0.79331 c 0.0253,0.73386 0.0145,1.46625 0.0123,2.19343 -0.001,0.36359 -0.0159,0.72384 -0.009,1.08223 0.007,0.35839 0.016,0.62245 0.0216,0.95856 z"
           style="" />
        <polygon
           transform="rotate(-31.330857,442.55597,347.78576)"
           id="polygon556"
           fill="#941820"
           points="276.61,183.18 277.74,183.34 278.99,183.63 281.35,184.43 284.24,186.08 286.36,188.18 286.5,189.47 283.62,189 279.74,189.16 275.32,190.36 265.77,186.77 268.78,184.23 271.61,183.32 273.82,183.06 274.58,183.05 275.27,183.07 "
           style="" />
        <path
           id="path558"
           fill="#1d1d1b"
           d="m 227.61241,293.90996 -3.16978,1.27399 -3.15414,2.10739 -3.20943,3.382 -10.84973,2.06238 1.55559,-4.54106 1.94414,-2.24884 1.80714,-1.41618 1.28981,-0.78517 1.21888,-0.61321 1.07924,-0.45797 1.24414,-0.41786 2.47642,-0.54752 3.4673,-0.0737 3.05397,0.72818 z m -6.86134,2.74855 3.33352,-2.21659 2.21011,-0.88882 -0.37698,-0.48465 -2.74832,-0.6684 -3.27343,0.0844 -2.35646,0.53304 -1.17395,0.39854 -1.02279,0.43531 -1.77076,0.93746 -0.63209,0.38478 -1.72357,1.3419 -1.82828,2.13148 -1.01861,2.96151 9.20708,-1.74143 z"
           style="" />
        <path
           id="path560"
           fill="#e30613"
           d="m 207.34701,330.46852 a 20.08,20.08 0 0 1 -7.53728,-7.18909 c -0.51998,-0.85418 -0.87209,-1.74031 -1.28585,-2.61232 a 3.88,3.88 0 0 1 -0.31578,-2.44188 c 1.21383,-6.48713 4.23415,-11.81447 9.95529,-15.32061 a 13.87,13.87 0 0 1 9.65795,-1.77004 1,1 0 0 1 0.21318,0.081 17.88,17.88 0 0 0 -2.15713,7.2838 l 0.21467,0.0449 0.0954,-0.63174 a 17,17 0 0 1 5.36322,-10.65206 13,13 0 0 1 14.6394,-2.14496 21,21 0 0 1 5.73331,4.01414 1.26,1.26 0 0 1 0.38478,0.63209 c 0.59251,3.60804 1.35139,7.22016 1.06631,10.90585 -0.1548,2.07274 -0.54468,4.12469 -0.83503,6.18629 a 7.47,7.47 0 0 1 -0.2332,0.80927 c -1.58444,-2.37202 -3.94538,-2.53868 -6.38207,-2.48362 a 25.87,25.87 0 0 0 -7.10019,1.60616 115.73,115.73 0 0 0 -14.01645,5.41837 c -1.62778,0.76847 -3.21358,1.66358 -4.8135,2.49705 a 4.6,4.6 0 0 0 -2.44955,3.66869 c -0.0509,0.62802 -0.12363,1.31621 -0.1975,2.09873 z"
           style="" />
      </g>
    </g>
    <g
       transform="translate(-0.09037093)"
       id="g1473"
       style="">
      <path
         id="path350"
         fill="#010101"
         d="m 150.72149,312.43263 a 1,1 0 0 1 -0.57193,0.13744 l -3.24931,-0.16441 -1.63698,2.81112 a 1,1 0 0 1 -1.01908,0.47988 l -3.21886,-0.49903 -1.92296,2.61058 a 1,1 0 0 1 -1.05919,0.37551 l -3.1524,-0.83216 -2.2004,2.40483 a 1,1 0 0 1 -1.08742,0.25222 l -3.04991,-1.16382 -2.42658,2.1679 a 1,1 0 0 1 -1.08817,0.13559 l -2.8839,-1.48731 -2.64275,1.88974 a 0.93,0.93 0 0 1 -1.14537,0.0416 l -2.72459,-1.78332 -2.83142,1.61826 a 1,1 0 0 1 -1.12049,-0.0906 l -2.53593,-2.05035 -2.97925,1.29849 a 1,1 0 0 1 -1.10749,-0.20385 l -2.30086,-2.29882 -3.102927,0.99916 a 1,1 0 0 1 -1.077417,-0.32753 l -2.043488,-2.54914 -3.170165,0.67716 a 1,1 0 0 1 -1.045481,-0.42892 l -1.777208,-2.74636 -3.239257,0.33288 a 1,1 0 0 1 -0.998319,-0.56299 l -1.481588,-2.91461 -3.25524,-0.0203 a 1,1 0 0 1 -0.912901,-0.61499 l -1.165168,-3.0487 -3.24374,-0.36681 a 1,1 0 0 1 -0.841599,-0.72864 l -0.858774,-3.14156 -3.163532,-0.69661 a 1,1 0 0 1 -0.77178,-0.80626 l -0.509298,-3.20211 -3.083324,-1.02641 a 1,1 0 0 1 -0.684878,-0.89428 l -0.163163,-3.24892 -2.978975,-1.33578 a 1,1 0 0 1 -0.587577,-0.96522 l 0.181487,-3.2597 -2.811118,-1.63699 a 1,1 0 0 1 -0.479875,-1.01907 l 0.504227,-3.21032 -2.610577,-1.92297 a 1,1 0 0 1 -0.375516,-1.05919 l 0.840709,-3.15759 -2.404838,-2.2004 a 1,1 0 0 1 -0.257415,-1.09597 l 1.155281,-3.0447 -2.167899,-2.42659 a 1,1 0 0 1 -0.127057,-1.09337 l 1.466512,-2.91807 -1.898277,-2.63754 a 1,1 0 0 1 -0.04164,-1.14537 l 1.783315,-2.72459 -1.618256,-2.83142 a 1,1 0 0 1 0.09058,-1.12049 l 2.058893,-2.54113 -1.307036,-2.97405 a 1,1 0 0 1 0.212394,-1.11269 l 2.300679,-2.27857 -1.009558,-3.12002 a 1,1 0 0 1 0.327526,-1.07741 l 2.549149,-2.04349 -0.668624,-3.17537 a 1,1 0 0 1 0.428917,-1.04548 l 2.737825,-1.77201 -0.332888,-3.23925 a 1,1 0 0 1 0.56299,-0.99832 l 2.917961,-1.49533 0.01696,-3.2415 a 1,1 0 0 1 0.614989,-0.9129 l 3.04016,-1.15997 0.366811,-3.24374 a 1,1 0 0 1 0.731979,-0.85534 l 3.138219,-0.84503 0.69141,-3.17208 a 1,1 0 0 1 0.820001,-0.76843 l 3.202112,-0.5093 1.034949,-3.08853 a 1,1 0 0 1 0.894283,-0.68487 l 3.240377,-0.15797 1.33578,-2.97897 a 1,1 0 0 1 0.973764,-0.59278 l 3.251161,0.18669 1.636984,-2.81112 a 1,1 0 0 1 1.019078,-0.47988 l 3.21032,0.50423 1.922962,-2.61058 a 1,1 0 0 1 1.050651,-0.37031 l 3.135311,0.84256 2.200397,-2.40483 a 1,1 0 0 1 1.09597,-0.25742 l 3.0499,1.16383 2.43513,-2.1731 a 1,1 0 0 1 1.09337,-0.12706 l 2.89579,1.46837 2.65983,-1.90014 a 1,1 0 0 1 1.14536,-0.0416 l 2.72459,1.78332 2.83142,-1.61826 a 1,1 0 0 1 1.12569,0.0991 l 2.51365,2.05221 2.99633,-1.30889 a 1,1 0 0 1 1.10416,0.21759 l 2.29231,2.30402 3.08919,-1.0025 a 1,1 0 0 1 1.07741,0.32753 l 2.06057,2.53875 3.18391,-0.67383 a 1,1 0 0 1 1.03694,0.43412 l 1.78055,2.73263 3.23071,-0.32769 a 1,1 0 0 1 1.00687,0.55779 l 1.48158,2.91462 3.25524,0.0203 a 1,1 0 0 1 0.90436,0.62019 l 1.15997,3.04016 3.24374,0.36681 a 1,1 0 0 1 0.85014,0.72344 l 0.85023,3.14676 3.17208,0.69141 a 1,1 0 0 1 0.76844,0.82 l 0.50929,3.20211 3.09187,1.02121 a 1,1 0 0 1 0.67634,0.89948 l 0.16316,3.24892 2.97043,1.34098 a 1,1 0 0 1 0.58758,0.96522 l -0.17295,3.25451 2.81112,1.63698 a 1,1 0 0 1 0.48842,1.01388 l -0.51277,3.21552 2.61058,1.92296 a 1,1 0 0 1 0.37031,1.05065 l -0.83216,3.15239 2.38923,2.17478 a 1,1 0 0 1 0.25742,1.09596 l -1.16382,3.04991 2.1731,2.43512 a 1,1 0 0 1 0.12705,1.09337 l -1.47654,2.9593 1.92057,2.63569 a 1,1 0 0 1 0.0331,1.15056 l -1.77477,2.71939 1.61491,2.84517 a 1,1 0 0 1 -0.0958,1.11194 l -2.05036,2.53594 1.2985,2.97924 a 1,1 0 0 1 -0.20385,1.1075 l -2.30402,2.29231 0.99395,3.09439 a 1,1 0 0 1 -0.31898,1.07221 l -2.53875,2.06058 0.66862,3.17536 a 1,1 0 0 1 -0.42891,1.04548 l -2.74637,1.77721 0.32101,3.2582 a 1,1 0 0 1 -0.56819,0.98978 l -2.89234,1.47973 -0.0203,3.25524 a 1,1 0 0 1 -0.62019,0.90436 l -3.0487,1.16516 -0.36682,3.24374 a 1,1 0 0 1 -0.73197,0.85534 l -3.14676,0.85024 -0.65391,3.13753 a 1,1 0 0 1 -0.81146,0.76324 l -3.20211,0.5093 -1.0264,3.08332 a 1,1 0 0 1 -0.89429,0.68488 l -3.24892,0.16316 -1.34618,2.96189 a 1,1 0 0 1 -0.41891,0.46574 z m -4.87271,-1.92733 a 1,1 0 0 1 0.57193,-0.13744 l 3.18245,0.16998 1.31053,-2.90507 a 1,1 0 0 1 0.82298,-0.57123 l 3.18207,-0.15759 1.0097,-3.01461 a 1,1 0 0 1 0.77098,-0.65665 l 3.13526,-0.50373 0.6747,-3.10336 a 1,1 0 0 1 0.71899,-0.74207 l 3.06802,-0.82572 0.35011,-3.17503 a 1,1 0 0 1 0.66178,-0.83602 l 2.97517,-1.13211 0.014,-3.16945 a 1,1 0 0 1 0.55,-0.88505 l 2.824,-1.43813 -0.31023,-3.18281 a 1,1 0 0 1 0.45195,-0.93072 l 2.67803,-1.73561 -0.66305,-3.10851 a 1,1 0 0 1 0.3487,-0.98494 l 2.48081,-2.00189 -0.97464,-3.0242 a 1,1 0 0 1 0.24731,-1.01688 l 2.25462,-2.23883 -1.26543,-2.90571 a 1,1 0 0 1 0.13403,-1.02987 l 2.00616,-2.47391 -1.58186,-2.77163 a 1,1 0 0 1 0.0345,-1.03952 l 1.73058,-2.65737 -1.86708,-2.58629 a 1,1 0 0 1 -0.0821,-1.03878 l 1.455,-2.84082 -2.11442,-2.37719 a 1,1 0 0 1 -0.20393,-1.04657 l 1.11257,-3.01871 -2.32016,-2.09975 a 1,1 0 0 1 -0.29789,-0.98938 l 0.81546,-3.08368 -2.55376,-1.88732 a 1,1 0 0 1 -0.38331,-0.93737 l 0.49272,-3.13307 -2.74575,-1.60653 a 1,1 0 0 1 -0.47727,-0.88018 l 0.16997,-3.18246 -2.90506,-1.31052 a 1,1 0 0 1 -0.56269,-0.82818 l -0.16613,-3.17687 -3.00942,-1.00116 a 1,1 0 0 1 -0.65665,-0.77098 l -0.50892,-3.1438 -3.08962,-0.67136 a 1,1 0 0 1 -0.75061,-0.71379 l -0.83092,-3.07656 -3.16129,-0.34676 a 1,1 0 0 1 -0.83603,-0.66179 l -1.14065,-2.96997 -3.17465,-0.0225 a 1,1 0 0 1 -0.87984,-0.54146 l -1.45373,-2.84962 -3.16387,0.32211 a 1,1 0 0 1 -0.93926,-0.44675 l -1.73041,-2.66949 -3.10852,0.66305 a 1,1 0 0 1 -0.9764,-0.3539 l -2.01563,-2.48415 -3.02419,0.97464 a 1,1 0 0 1 -1.01688,-0.24731 l -2.23883,-2.25462 -2.9176,1.28437 a 1,1 0 0 1 -1.03507,-0.14257 l -2.45682,-2.01656 -2.77163,1.58186 a 1,1 0 0 1 -1.03953,-0.0345 l -2.65736,-1.73058 -2.5915,1.85854 a 1,1 0 0 1 -1.03877,0.0821 l -2.82708,-1.45166 -2.37199,2.12296 a 1,1 0 0 1 -1.04658,0.20393 l -2.99531,-1.20876 -2.14246,2.34616 a 1,1 0 0 1 -0.99458,0.28935 l -3.066602,-0.82586 -1.887311,2.55375 a 1,1 0 0 1 -0.937375,0.38331 l -3.141612,-0.48751 -1.601333,2.75429 a 1,1 0 0 1 -0.885378,0.46873 l -3.209562,-0.11835 -1.305328,2.91361 a 1,1 0 0 1 -0.822981,0.57123 l -3.182069,0.15759 -1.001156,3.00941 a 1,1 0 0 1 -0.770982,0.65665 l -3.143803,0.50892 -0.666158,3.09817 a 1,1 0 0 1 -0.713784,0.75061 l -3.076569,0.83092 -0.34676,3.16129 a 1,1 0 0 1 -0.661786,0.83602 l -2.975168,1.13211 -0.01734,3.18319 a 0.94,0.94 0 0 1 -0.541455,0.87985 l -2.849625,1.45373 0.316915,3.15532 a 1,1 0 0 1 -0.446747,0.93927 l -2.669491,1.73041 0.705758,3.08251 a 1,1 0 0 1 -0.35724,0.99014 l -2.491214,1.98481 0.985043,3.04128 a 1,1 0 0 1 -0.247307,1.01688 l -2.254629,2.23882 1.27398,2.90052 a 1,1 0 0 1 -0.134033,1.02987 l -2.000959,2.48245 1.568116,2.76829 a 1,1 0 0 1 -0.02596,1.03432 l -1.739122,2.66257 1.848138,2.57441 a 1,1 0 0 1 0.08212,1.03877 l -1.432718,2.83897 2.119617,2.38573 a 1,1 0 0 1 0.195391,1.05177 l -1.145629,2.94517 2.351356,2.15101 a 1,1 0 0 1 0.289351,0.99457 l -0.815458,3.08369 2.567495,1.89065 a 1,1 0 0 1 0.374769,0.94258 l -0.450008,3.10707 2.754294,1.60133 a 1,1 0 0 1 0.468728,0.88538 l -0.178518,3.18765 2.908409,1.29679 a 1,1 0 0 1 0.57123,0.82298 l 0.15759,3.18207 2.966707,1.02715 a 1,1 0 0 1 0.66519,0.76579 l 0.495182,3.14046 3.098166,0.66615 a 1,1 0 0 1 0.750608,0.71379 l 0.830917,3.07657 3.192489,0.39801 a 1,1 0 0 1 0.836026,0.66179 l 1.140653,2.96996 3.174648,0.0225 a 1,1 0 0 1 0.879845,0.54145 l 1.453731,2.84963 3.163865,-0.32212 a 1,1 0 0 1 0.930722,0.45195 l 1.738952,2.66429 3.113714,-0.65451 a 1,1 0 0 1 0.984942,0.3487 l 1.993347,2.48602 3.015656,-0.96945 a 1,1 0 0 1 1.01168,0.23877 l 2.26111,2.25277 2.90906,-1.27918 a 1,1 0 0 1 1.02653,0.14777 l 2.48245,2.00096 2.76309,-1.57665 a 1,1 0 0 1 1.03952,0.0345 l 2.66257,1.73912 2.58295,-1.85334 a 0.92,0.92 0 0 1 1.03023,-0.0769 l 2.83042,1.43792 2.372,-2.12296 a 1,1 0 0 1 1.04657,-0.20393 l 2.97265,1.15231 2.15101,-2.35135 a 1,1 0 0 1 0.98937,-0.2979 l 3.08369,0.81546 1.89585,-2.55895 a 1,1 0 0 1 0.93738,-0.38331 l 3.13307,0.49272 1.60133,-2.7543 a 1,1 0 0 1 0.27928,-0.31049 z"
         style="" />
      <path
         id="path380"
         fill="#010101"
         d="m 261.18168,245.10833 a 1,1 0 0 1 -0.52217,0.14226 l -3.26712,-10e-4 -1.49066,2.89765 a 1,1 0 0 1 -0.99642,0.53632 l -3.24374,-0.36681 -1.82936,2.76433 a 1,1 0 0 1 -1.05028,0.42862 l -3.15833,-0.68806 -2.07784,2.52925 a 1,1 0 0 1 -1.08705,0.31052 l -3.08332,-1.02641 -2.32111,2.30271 a 1,1 0 0 1 -1.10488,0.20431 l -2.87795,-1.36215 -2.55435,2.03494 a 1,1 0 0 1 -1.11937,0.0844 l -2.81966,-1.63178 -2.73448,1.75826 a 1,1 0 0 1 -1.17657,-0.01 l -2.62766,-1.91256 -2.88379,1.47453 a 1,1 0 0 1 -1.12087,-0.14889 l -2.42192,-2.19 -3.05056,1.14289 a 1,1 0 0 1 -1.09412,-0.25882 l -2.17644,-2.42139 -3.15716,0.83315 a 1,1 0 0 1 -1.06405,-0.38249 l -1.88974,-2.64274 -3.20731,0.50075 a 1,1 0 0 1 -1.04957,-0.53179 l -1.6268,-2.82622 -3.24892,0.16316 a 1,1 0 0 1 -0.96415,-0.58379 l -1.32598,-2.98593 -3.23742,-0.18334 a 1,1 0 0 1 -0.88765,-0.6889 l -1.00435,-3.11147 -3.21032,-0.50423 a 1,1 0 0 1 -0.82304,-0.77506 l -0.68422,-3.20099 -3.12677,-0.84777 a 1,1 0 0 1 -0.73093,-0.85454 l -0.36408,-3.29051 -3.04471,-1.15528 a 1,1 0 0 1 -0.63883,-0.93402 l 0.0151,-3.26379 -2.88205,-1.46502 a 1,1 0 0 1 -0.53633,-0.99642 l 0.37202,-3.2352 -2.75579,-1.83457 a 1,1 0 0 1 -0.42343,-1.04173 l 0.68287,-3.16688 -2.52925,-2.07783 a 1,1 0 0 1 -0.31052,-1.08705 l 1.02641,-3.08332 -2.30271,-2.32111 a 1,1 0 0 1 -0.20431,-1.10488 l 1.3291,-2.95149 -2.04869,-2.55769 a 1,1 0 0 1 -0.0758,-1.12457 l 1.63699,-2.81112 -1.76347,-2.74302 a 1,1 0 0 1 0.0408,-1.12531 l 1.91256,-2.62767 -1.47973,-2.89233 a 1,1 0 0 1 0.14889,-1.12086 l 2.1952,-2.41338 -1.15663,-3.0539 a 1,1 0 0 1 0.27256,-1.09079 l 2.41619,-2.18498 -0.83315,-3.15716 a 1,1 0 0 1 0.37915,-1.05031 l 2.62714,-1.91536 -0.49221,-3.21251 a 1,1 0 0 1 0.53699,-1.04103 l 2.81248,-1.63014 -0.15462,-3.25412 a 1,1 0 0 1 0.58899,-0.95561 l 2.98593,-1.32598 0.18334,-3.23742 a 1,1 0 0 1 0.6837,-0.89619 l 3.11147,-1.00436 0.50423,-3.21032 a 1,1 0 0 1 0.78026,-0.81449 l 3.20099,-0.68422 0.83403,-3.13011 a 1,1 0 0 1 0.86308,-0.73613 l 3.29571,-0.35554 1.16382,-3.04991 a 1,1 0 0 1 0.93403,-0.63883 l 3.25858,0.007 1.45017,-2.79105 a 1,1 0 0 1 0.99642,-0.53633 l 3.2352,0.37201 1.78666,-2.73833 a 1,1 0 0 1 1.05028,-0.42862 l 3.16353,0.69661 2.08303,-2.52071 a 1,1 0 0 1 1.08185,-0.31906 l 3.08333,1.0264 2.3211,-2.30271 a 1,1 0 0 1 1.11862,-0.20096 l 2.95149,1.32909 2.54915,-2.04348 a 1,1 0 0 1 1.11937,-0.0844 l 2.81112,1.63698 2.74822,-1.75492 a 1,1 0 0 1 1.12012,0.0323 l 2.62766,1.91256 2.90793,-1.45411 a 1,1 0 0 1 1.10713,0.14555 l 2.42192,2.19 3.0591,-1.14809 a 1,1 0 0 1 1.08558,0.26402 l 2.18499,2.41619 3.14861,-0.82795 a 1,1 0 0 1 1.06405,0.38249 l 1.91536,2.62714 3.21251,-0.49221 a 1,1 0 0 1 1.00983,0.48574 l 1.63534,2.82102 3.24892,-0.16316 a 1,1 0 0 1 0.95561,0.58899 l 1.33118,2.99447 3.23222,0.17481 a 1,1 0 0 1 0.89619,0.68369 l 1.00436,3.11147 3.21032,0.50423 a 1,1 0 0 1 0.81449,0.78026 l 0.72693,3.17499 3.12677,0.84777 a 1,1 0 0 1 0.73093,0.85454 l 0.36409,3.29051 3.0447,1.15528 a 1,1 0 0 1 0.53744,0.90209 l -0.01,3.27232 2.90619,1.48546 a 1,1 0 0 1 0.53633,0.99642 l -0.37201,3.2352 2.75579,1.83456 a 1,1 0 0 1 0.42342,1.04174 l -0.62308,3.13047 2.52925,2.07784 a 1,1 0 0 1 0.31907,1.08185 l -1.02641,3.08332 2.30271,2.32111 a 1,1 0 0 1 0.19577,1.11007 l -1.3239,2.96004 2.04349,2.54915 a 1,1 0 0 1 0.0844,1.11937 l -1.67115,2.83191 1.75492,2.74823 a 1,1 0 0 1 -0.0323,1.12011 l -1.91256,2.62766 1.4541,2.90794 a 1,1 0 0 1 -0.14888,1.12086 l -2.18146,2.41672 1.14288,3.05056 a 1,1 0 0 1 -0.26401,1.08559 l -2.42473,2.19018 0.83315,3.15716 a 1,1 0 0 1 -0.38249,1.06405 l -2.63421,1.88453 0.49222,3.21251 a 1,1 0 0 1 -0.48054,1.01838 l -2.82623,1.62679 0.16317,3.24892 a 1,1 0 0 1 -0.58899,0.95561 l -2.98073,1.33452 -0.18001,3.22368 a 1,1 0 0 1 -0.68369,0.89619 l -3.12002,1.00956 -0.50422,3.21032 a 1,1 0 0 1 -0.77507,0.82303 l -3.20099,0.68422 -0.83922,3.12157 a 1,1 0 0 1 -0.86309,0.73613 l -3.25299,0.32955 -1.15529,3.0447 a 1,1 0 0 1 -0.42039,0.50177 z m -10.52182,1.31252 a 1,1 0 0 1 0.62504,-0.14635 l 3.15795,0.3605 1.455,-2.84082 a 1,1 0 0 1 0.85418,-0.51998 l 3.19174,0.0121 1.13003,-2.97079 a 1,1 0 0 1 0.79698,-0.61394 l 3.18095,-0.33252 0.82251,-3.05286 a 1,1 0 0 1 0.73978,-0.7079 l 3.11372,-0.65451 0.45001,-3.10707 a 1,1 0 0 1 0.68258,-0.80186 l 3.04128,-0.98504 0.17704,-3.15163 a 1,1 0 0 1 0.58788,-0.86127 l 2.92094,-1.29812 -0.15759,-3.18207 a 1,1 0 0 1 0.49837,-0.91216 l 2.75788,-1.5852 -0.49184,-3.1542 a 1,1 0 0 1 0.40887,-0.96303 l 2.57441,-1.84814 -0.80863,-3.07843 a 1,1 0 0 1 0.28519,-0.99311 l 2.37533,-2.1367 -1.12357,-2.98036 a 1,1 0 0 1 0.19754,-1.02171 l 2.13207,-2.36324 -1.42105,-2.8344 a 1,1 0 0 1 0.0843,-1.03469 l 1.85982,-2.56044 -1.71852,-2.68843 a 1,1 0 0 1 -0.0238,-1.03915 l 1.60133,-2.7543 -1.99335,-2.48601 a 1,1 0 0 1 -0.13522,-1.02986 l 1.29864,-2.88613 -2.25442,-2.28025 a 1,1 0 0 1 -0.24665,-1.02057 l 1.0357,-2.97191 -2.46537,-2.01136 a 1,1 0 0 1 -0.33206,-0.96857 l 0.66616,-3.09817 -2.67296,-1.7562 a 1,1 0 0 1 -0.42602,-0.91138 l 0.35195,-3.15275 -2.83228,-1.4602 a 1,1 0 0 1 -0.51997,-0.85418 l 0.004,-3.18653 -2.91213,-1.34135 a 1,1 0 0 1 -0.61394,-0.79699 l -0.33251,-3.18094 -3.05286,-0.82252 a 1,1 0 0 1 -0.7079,-0.73978 l -0.65451,-3.11372 -3.11561,-0.44481 a 1,1 0 0 1 -0.79332,-0.68778 l -0.98504,-3.04128 -3.16537,-0.18038 a 1,1 0 0 1 -0.87874,-0.63579 l -1.29292,-2.91239 -3.18207,0.15759 a 1,1 0 0 1 -0.91215,-0.49838 l -1.59894,-2.76123 -3.12858,0.47625 a 1,1 0 0 1 -0.95783,-0.40033 l -1.86522,-2.56401 -3.07843,0.80864 a 1,1 0 0 1 -0.99831,-0.29374 l -2.1315,-2.36679 -2.98891,1.12877 a 1,1 0 0 1 -1.01316,-0.20274 l -2.33724,-2.08936 -2.84294,1.42625 a 1,1 0 0 1 -1.02616,-0.0895 l -2.61243,-1.94524 -2.67469,1.72186 a 1,1 0 0 1 -1.03915,0.0238 l -2.7543,-1.60133 -2.49455,1.99855 a 1,1 0 0 1 -1.02986,0.13522 l -2.88613,-1.29864 -2.27171,2.24923 a 1,1 0 0 1 -1.02057,0.24664 l -2.97191,-1.0357 -2.01136,2.46537 a 1,1 0 0 1 -0.96857,0.33206 l -3.08963,-0.67136 -1.83494,2.69748 a 1,1 0 0 1 -0.91137,0.42602 l -3.15275,-0.35196 -1.4602,2.83228 a 1,1 0 0 1 -0.85418,0.51998 l -3.22924,0.0224 -1.17646,2.95223 a 1,1 0 0 1 -0.79698,0.61394 l -3.18095,0.33252 -0.81508,3.14199 a 1,1 0 0 1 -0.73979,0.7079 l -3.11371,0.65451 -0.49606,3.14681 a 1,1 0 0 1 -0.68778,0.79332 l -3.04129,0.98504 -0.17183,3.16017 a 1,1 0 0 1 -0.59308,0.85273 l -2.92094,1.29812 0.16613,3.17687 a 1.05,1.05 0 0 1 -0.49837,0.91216 l -2.76643,1.5904 0.48144,3.13712 a 1,1 0 0 1 -0.40032,0.95783 l -2.56401,1.86522 0.78263,3.03572 a 1,1 0 0 1 -0.29373,0.99831 l -2.36679,2.1315 1.11503,2.98556 a 1,1 0 0 1 -0.189,1.01651 l -2.13207,2.36324 1.43814,2.824 a 1,1 0 0 1 -0.0928,1.0399 l -1.87171,2.57937 1.71332,2.67989 a 1,1 0 0 1 0.0238,1.03915 l -1.59279,2.74909 1.99335,2.48602 a 1,1 0 0 1 0.15268,1.07777 l -1.2849,2.88947 2.24922,2.27171 a 1,1 0 0 1 0.2381,1.02577 l -1.02715,2.96671 2.45683,2.01656 a 1,1 0 0 1 0.33206,0.96857 l -0.67136,3.08962 2.67296,1.75621 a 1,1 0 0 1 0.42602,0.91138 l -0.34676,3.16129 2.84082,1.455 a 1,1 0 0 1 0.51998,0.85418 l -0.0121,3.19173 2.96225,1.13523 a 1,1 0 0 1 0.61394,0.79698 l 0.33252,3.18095 3.05806,0.83105 a 1,1 0 0 1 0.7079,0.73979 l 0.66305,3.10851 3.10707,0.45001 a 1,1 0 0 1 0.80186,0.68259 l 0.99024,3.04982 3.15163,0.17703 a 1,1 0 0 1 0.86128,0.58788 l 1.29292,2.9124 3.17352,-0.15239 a 1,1 0 0 1 0.91216,0.49837 l 1.59894,2.76123 3.14566,-0.48664 a 1,1 0 0 1 0.96637,0.39512 l 1.84814,2.57441 3.07843,-0.80863 a 1,1 0 0 1 0.98976,0.29893 l 2.14005,2.36159 2.98037,-1.12356 a 1,1 0 0 1 1.0217,0.19754 l 2.3547,2.13726 2.824,-1.43813 a 1,1 0 0 1 1.04324,0.0791 l 2.57603,1.88545 2.68323,-1.72707 a 1.06,1.06 0 0 1 1.03916,-0.0238 l 2.74575,1.60654 2.49455,-1.99855 a 1,1 0 0 1 1.02986,-0.13523 l 2.88613,1.29865 2.27171,-2.24923 a 1,1 0 0 1 1.02577,-0.2381 l 3.01796,0.99596 2.01136,-2.46537 a 1,1 0 0 1 0.96858,-0.33206 l 3.08962,0.67136 1.75621,-2.67297 a 1.07,1.07 0 0 1 0.42449,-0.12963 z"
         style="" />
      <g
         id="g1456"
         style="">
        <polyline
           transform="rotate(-31.330857,442.55597,347.78576)"
           id="polyline338"
           fill="#ffffff"
           points="182.97 52.78 149.78 11.99 129.15 13.57 169.68 59.33"
           style="" />
        <path
           id="path340"
           fill="#010101"
           d="m 60.000053,244.13694 a 1,1 0 0 1 -0.808885,0.0944 L 0.7685055,226.22404 a 1,1 0 0 1 -0.6651896,-0.76579 1,1 0 0 1 0.3951232,-0.96637 l 16.7845449,-12.1024 a 1,1 0 0 1 0.918444,-0.12594 l 49.568692,17.57865 a 1,1 0 0 1 0.605044,1.28239 1,1 0 0 1 -1.273847,0.59985 L 18.015438,214.28503 3.2604867,224.89436 59.767122,242.31194 a 1,1 0 0 1 0.656295,1.25119 1,1 0 0 1 -0.423364,0.57381 z"
           style="" />
        <path
           id="path344"
           fill="#010101"
           d="m 96.039411,164.89158 -81.91005,63.33746 a 1,1 0 0 1 -1.424662,-0.18639 L 3.2604867,224.89436 C 2.9043061,224.44387 0.9894001,224.0291 1.4261419,223.66958 L 89.505585,156.38921 a 1,1 0 0 1 1.424661,0.18638 l 5.357199,6.87721 a 1,1 0 0 1 -0.248034,1.43878 z"
           style="" />
        <polygon
           transform="rotate(-31.330857,442.55597,347.78576)"
           id="polygon348"
           fill="#ffffff"
           points="243.17,47.24 244.84,50.73 248.7,50.84 249.99,54.48 253.83,55 254.73,58.75 258.48,59.65 259,63.49 262.64,64.78 262.75,68.64 266.24,70.31 265.95,74.17 269.23,76.2 268.53,80 271.59,82.36 270.51,86.07 273.3,88.72 271.84,92.29 274.33,95.24 272.49,98.63 274.67,101.83 272.49,105.02 274.33,108.41 271.84,111.36 273.3,114.93 270.51,117.61 271.59,121.3 268.53,123.66 269.23,127.45 265.92,129.48 266.24,133.34 262.75,135.01 262.64,138.88 259,140.18 258.48,144 254.73,144.9 253.83,148.66 249.99,149.17 248.7,152.81 244.84,152.93 243.15,156.41 239.31,156.12 237.28,159.4 233.48,158.7 231.12,161.76 227.41,160.68 224.76,163.47 221.19,162.01 218.24,164.5 214.85,162.66 211.65,164.84 208.46,162.66 205.07,164.5 202.12,162.01 198.55,163.47 195.87,160.68 192.16,161.76 189.8,158.7 186,159.4 183.98,156.12 180.13,156.41 178.47,152.93 174.6,152.81 173.3,149.17 169.48,148.66 168.56,144.9 164.8,144 164.31,140.16 160.66,138.88 160.55,135.01 157.07,133.34 157.36,129.48 154.08,127.45 154.78,123.66 151.72,121.3 152.8,117.58 150.01,114.93 151.47,111.36 148.97,108.41 150.82,105.02 148.62,101.83 150.82,98.63 148.97,95.24 151.47,92.29 150.01,88.72 152.8,86.04 151.72,82.33 154.78,80 154.08,76.2 157.36,74.15 157.07,70.31 160.55,68.64 160.66,64.78 164.31,63.47 164.82,59.65 168.58,58.75 169.48,54.97 173.32,54.48 174.6,50.84 178.47,50.73 180.13,47.24 184,47.53 186.03,44.25 189.82,44.95 192.18,41.89 195.89,42.97 198.55,40.18 202.12,41.64 205.07,39.15 208.46,40.99 211.65,38.79 214.85,40.99 218.24,39.15 221.19,41.64 224.76,40.18 227.41,42.97 231.12,41.89 233.48,44.95 237.28,44.25 239.31,47.53 "
           style="" />
        <polyline
           transform="rotate(-31.330857,442.55597,347.78576)"
           id="polyline370"
           fill="#ffffff"
           points="369.27 48.93 394.47 21.03 410.84 22.87 380.04 58.75"
           style="" />
        <path
           id="path372"
           fill="#010101"
           d="m 239.38354,134.25869 a 1,1 0 0 1 -0.67146,0.12779 1,1 0 0 1 -0.82713,-1.1472 l 7.34478,-44.802245 -12.78007,5.930106 -6.91652,36.428489 a 1,1 0 0 1 -1.16279,0.8015 1,1 0 0 1 -0.79297,-1.16799 l 7.01789,-36.935069 a 1,1 0 0 1 0.55966,-0.715319 l 14.93113,-6.935171 a 1,1 0 0 1 1.40798,1.062867 l -7.64331,46.658102 a 1,1 0 0 1 -0.46719,0.69414 z"
           style="" />
        <circle
           transform="rotate(-31.330857)"
           id="circle374"
           fill="#010101"
           r="20.889999"
           cy="282.60541"
           cx="-33.205357"
           style="" />
        <polygon
           transform="rotate(-31.330857,442.55597,347.78576)"
           id="polygon378"
           fill="#ffffff"
           points="366.33,45.67 368.17,49.06 372.04,48.97 373.52,52.52 377.37,52.84 378.47,56.55 382.27,57.27 382.99,61.07 386.69,62.17 387.01,66.01 390.56,67.5 390.47,71.36 393.87,73.21 393.37,77.05 396.54,79.23 395.64,83.01 398.59,85.5 397.31,89.17 399.96,91.96 398.3,95.46 400.66,98.52 398.63,101.83 400.66,105.13 398.3,108.19 399.96,111.69 397.31,114.48 398.59,118.15 395.64,120.64 396.54,124.42 393.37,126.6 393.87,130.44 390.47,132.29 390.56,136.16 387.01,137.64 386.69,141.48 382.99,142.59 382.27,146.38 378.47,147.1 377.37,150.81 373.52,151.1 372.04,154.68 368.17,154.59 366.33,157.99 362.48,157.49 360.3,160.66 356.52,159.76 354.03,162.71 350.37,161.42 347.58,164.08 344.07,162.41 341.01,164.77 337.71,162.75 334.4,164.77 331.35,162.41 327.84,164.08 325.05,161.42 321.39,162.71 318.89,159.76 315.11,160.66 312.93,157.49 309.09,157.99 307.25,154.59 303.38,154.68 301.89,151.1 298.05,150.81 296.95,147.1 293.15,146.38 292.43,142.59 288.72,141.48 288.43,137.64 284.85,136.16 284.94,132.29 281.55,130.44 282.04,126.6 278.87,124.42 279.77,120.64 276.83,118.15 278.11,114.48 275.46,111.69 277.12,108.19 274.76,105.13 276.78,101.83 274.76,98.52 277.12,95.46 275.46,91.96 278.11,89.17 276.83,85.5 279.77,83.01 278.87,79.23 282.04,77.05 281.55,73.21 284.94,71.36 284.85,67.5 288.43,66.01 288.72,62.17 292.43,61.07 293.15,57.27 296.95,56.55 298.05,52.84 301.89,52.52 303.38,48.97 307.25,49.06 309.09,45.67 312.93,46.16 315.11,42.99 318.89,43.89 321.39,40.95 325.05,42.23 327.84,39.57 331.35,41.24 334.4,38.88 337.71,40.9 341.01,38.88 344.07,41.24 347.58,39.57 350.37,42.23 354.03,40.95 356.52,43.89 360.3,42.99 362.48,46.16 "
           style="" />
        <circle
           transform="rotate(-31.330857)"
           id="circle382"
           fill="#010101"
           r="20.889999"
           cy="282.60541"
           cx="92.874641"
           style="" />
        <circle
           transform="rotate(-31.330857)"
           id="circle386"
           fill="#ffffff"
           r="5.2600002"
           cy="274.05542"
           cx="-37.045353"
           style="" />
        <circle
           transform="rotate(-31.330857)"
           id="circle390"
           fill="#ffffff"
           r="5.2600002"
           cy="274.05542"
           cx="86.174644"
           style="" />
        <path
           id="path398"
           fill="#010101"
           d="m 151.53723,129.47955 -3.64364,-7.90863 a 1,1 0 0 1 0.4887,-1.35114 L 248.552,72.91568 c 0.50954,-0.239937 0.004,1.660116 0.24557,2.191939 l -1.48988,13.457026 c 0.24513,0.518081 -0.035,-2.519142 -0.54975,-2.287746 l -93.87997,43.674261 a 1,1 0 0 1 -1.34074,-0.47161 z"
           style="" />
      </g>
    </g>
  </g>
</svg>
