<?xml version="1.0" encoding="UTF-8"?><svg
  id="a"
  xmlns="http://www.w3.org/2000/svg"
  viewBox="0 0 72.1665 23.957"
>
  <g>
    <rect
      x=".25"
      y=".2499"
      width="71.6669"
      height="23.4572"
      rx="11.7286"
      ry="11.7286"
      fill="#d16565"
    />
    <path
      d="M60.188,23.957H11.9785C5.3735,23.957,0,18.583,0,11.9785S5.3735,0,11.9785,0H60.188c6.6045,0,11.9785,5.3735,11.9785,11.9785s-5.374,11.9785-11.9785,11.9785ZM11.9785,.5C5.6494,.5,.5,5.6494,.5,11.9785s5.1494,11.4785,11.4785,11.4785H60.188c6.3291,0,11.4785-5.1494,11.4785-11.4785S66.5171,.5,60.188,.5H11.9785Z"
    />
  </g>
  <g>
    <path
      d="M25.6984,15.9321V7.3159h2.0039c1.0801,0,1.6201,.5522,1.6201,1.6562v5.7119c0,.832-.46,1.248-1.3799,1.248h-2.2441Zm1.1519-1.0439h.8643c.3037,0,.4561-.1279,.4561-.3843v-5.52c0-.4155-.1724-.6235-.5161-.6235h-.8042v6.5278Z"
      fill="#fff"
    />
    <path d="M30.3425,15.9321V7.3159h1.1519V15.9321h-1.1519Z" fill="#fff" />
    <path
      d="M34.7824,9.6323v-.7563c0-.3438-.168-.5156-.5039-.5156h-.1802c-.3281,0-.4922,.1719-.4922,.5156v1.4282c0,.1602,.0322,.2681,.0962,.3237,.064,.0562,.168,.1284,.312,.2163l1.0918,.5879c.2402,.1362,.4102,.2422,.5103,.3179,.1001,.0762,.1777,.168,.2339,.2764,.0562,.1079,.084,.314,.084,.6177v1.8359c0,.9683-.4639,1.4521-1.3921,1.4521h-.708c-.9199,0-1.3799-.5278-1.3799-1.584v-.4321h1.1519v.4683c0,.3359,.1724,.5039,.5161,.5039h.2041c.3037,0,.4561-.168,.4561-.5039v-1.4644c0-.1597-.0322-.2676-.0962-.3237s-.168-.1279-.312-.2158l-1.0918-.6123c-.2402-.1279-.4141-.2358-.522-.3237-.1079-.0884-.186-.2021-.2339-.3423-.0483-.1396-.0723-.3218-.0723-.5459v-1.7642c0-.9839,.46-1.4761,1.3799-1.4761h.7202c.9199,0,1.3799,.4922,1.3799,1.4761v.8403h-1.1519Z"
      fill="#fff"
    />
    <path
      d="M40.3381,13.916v.5522c0,.9761-.46,1.4639-1.3799,1.4639h-.7441c-.9199,0-1.3799-.4878-1.3799-1.4639v-5.688c0-.9761,.46-1.4644,1.3799-1.4644h.7441c.9199,0,1.3799,.4883,1.3799,1.4644v.9717h-1.1519v-.8877c0-.3359-.1724-.5039-.5161-.5039h-.228c-.3042,0-.4561,.168-.4561,.5039v5.52c0,.3359,.1519,.5039,.4561,.5039h.2881c.3042,0,.4561-.168,.4561-.5039v-.4683h1.1519Z"
      fill="#fff"
    />
    <path
      d="M42.5705,15.9321c-.9282,0-1.3921-.4878-1.3921-1.4639v-5.6763c0-.9839,.46-1.4761,1.3799-1.4761h1.104c.9199,0,1.3804,.4922,1.3804,1.4761v5.6763c0,.9761-.4644,1.4639-1.3921,1.4639h-1.0801Zm.2759-1.0439h.5879c.3042,0,.4561-.168,.4561-.5039v-5.52c0-.3359-.1719-.5039-.5161-.5039h-.5396c-.3364,0-.5044,.168-.5044,.5039v5.52c0,.3359,.1719,.5039,.5161,.5039Z"
      fill="#fff"
    />
    <path
      d="M48.4504,11.4799V7.3159h1.1519V15.9321h-1.1519v-1.7158l-1.2363-3.9243v5.6401h-1.1519V7.3159h1.1519l1.2363,4.1641Z"
      fill="#fff"
    />
    <path
      d="M53.0705,11.4799V7.3159h1.1519V15.9321h-1.1519v-1.7158l-1.2363-3.9243v5.6401h-1.1519V7.3159h1.1519l1.2363,4.1641Z"
      fill="#fff"
    />
    <path
      d="M55.3025,15.9321V7.3159h2.856v1.0444h-1.7041v2.6157h1.5122v1.0439h-1.5122v2.8682h1.7041v1.0439h-2.856Z"
      fill="#fff"
    />
    <path
      d="M62.4304,13.916v.5522c0,.9761-.46,1.4639-1.3799,1.4639h-.7441c-.9199,0-1.3799-.4878-1.3799-1.4639v-5.688c0-.9761,.46-1.4644,1.3799-1.4644h.7441c.9199,0,1.3799,.4883,1.3799,1.4644v.9717h-1.1519v-.8877c0-.3359-.1724-.5039-.5161-.5039h-.228c-.3042,0-.4561,.168-.4561,.5039v5.52c0,.3359,.1519,.5039,.4561,.5039h.2881c.3042,0,.4561-.168,.4561-.5039v-.4683h1.1519Z"
      fill="#fff"
    />
    <path
      d="M65.1662,8.3603v7.5718h-1.1519v-7.5718h-1.104v-1.0444h3.3599v1.0444h-1.104Z"
      fill="#fff"
    />
  </g>
  <g>
    <path
      d="M13.7482,2.8522l3.1273-.0217c1.0474,.6878,2.2709,1.2143,3.0856,2.1153,.6339,.7011,.7586,1.8685,1.1096,2.8287,.0061,2.4994,.0121,4.9988,.0181,7.4982-.4247,3.5257-2.4096,4.8059-4.8843,5.1055-3.575,.4328-5.704-1.1999-6.6327-4.6069,.0678-1.4513,.187-2.9026,.1886-4.354,.0015-1.3695-.1208-2.7391-.1886-4.1087,.4397-2.3894,1.9849-3.7297,4.1764-4.4565Zm1.0886,8.7526l-2.7131,2.4105,.7111,.6816,2.0125-1.909v5.9119l3.8885-4.7233-2.897-2.5398,2.7976-2.2957-3.8323-4.4376v5.3974q-2.1781-1.4678-2.6401-.8461l2.6729,2.3501Z"
      fill="#2e8ea6"
    />
    <path
      d="M14.8368,11.6048l-2.6729-2.3501q.462-.6218,2.6401,.8461V4.7034l3.8323,4.4376-2.7976,2.2957,2.897,2.5398-3.8885,4.7233v-5.9119l-2.0125,1.909-.7111-.6816,2.7131-2.4105Zm1.0083-1.0971l1.4335-1.5206-1.4335-1.636v3.1565Zm1.2932,3.9505l-1.2808-1.7399v3.2689l1.2808-1.529Z"
      fill="#fcfdfd"
    />
    <path
      d="M15.8451,10.5077v-3.1565l1.4335,1.636-1.4335,1.5206Z"
      fill="#4b9eb3"
    />
    <path
      d="M17.1383,14.4582l-1.2808,1.529v-3.2689l1.2808,1.7399Z"
      fill="#4a9eb2"
    />
  </g>
  <path
    d="M15.3247,20.5713c-3.2412,0-5.8779-2.6367-5.8779-5.8779v-6.0972c0-3.2412,2.6367-5.8779,5.8779-5.8779s5.8774,2.6367,5.8774,5.8779v6.0972c0,3.2412-2.6367,5.8779-5.8774,5.8779Zm0-17.603c-3.103,0-5.6279,2.5249-5.6279,5.6279v6.0972c0,3.1035,2.5249,5.6279,5.6279,5.6279s5.6274-2.5244,5.6274-5.6279v-6.0972c0-3.103-2.5244-5.6279-5.6274-5.6279Z"
  />
</svg>
