<?xml version="1.0" encoding="UTF-8"?><svg
  id="a"
  xmlns="http://www.w3.org/2000/svg"
  xmlns:xlink="http://www.w3.org/1999/xlink"
  viewBox="340 0 380 330"
>
  <defs>
    <clipPath id="b">
      <rect width="728.95001"
         height="330.09" rx="1.3" ry="1.3" fill="none" />
    </clipPath>
  </defs>
  <g clip-path="url(#b)">
    <g>
      <g id="c">
        <path
          d="M594.9,448.53l-10.73,4.63c-1.59,.69-2.42,2.47-1.9,4.12l5.62,20.41c.32,1.55,1.99,2.41,3.44,1.78l24.78-10.22,.17-1.09,20.32-9.2,.68,.68,22.55-9.73c1.64-.71,2.38-2.64,1.62-4.26l-8.85-22.03"
          fill="#ffd962"
        />
        <path
          d="M616.47,470.11h-.01s-24.78,10.23-24.78,10.23c-.94,.41-2.02,.37-2.95-.12-.92-.48-1.56-1.34-1.77-2.35l-5.6-20.35c-.65-2.09,.39-4.35,2.44-5.23l10.73-4.63c.48-.21,1.03,.01,1.23,.49,.21,.48-.01,1.03-.49,1.23l-10.73,4.63c-1.16,.5-1.75,1.78-1.38,2.98l5.63,20.44c.11,.52,.4,.9,.82,1.12,.42,.22,.91,.24,1.35,.05l24.31-10.03,.09-.57c.05-.31,.25-.58,.54-.71l20.32-9.2c.38-.14,.77-.08,1.05,.19l.23,.23,21.96-9.48c.56-.24,.99-.69,1.21-1.26,.22-.57,.19-1.19-.07-1.74l-8.87-22.08c-.19-.48,.03-1.06,.52-1.22,.48-.19,1.03,.04,1.22,.52l8.85,22.03c.46,.97,.5,2.1,.1,3.15-.4,1.05-1.18,1.87-2.22,2.32l-22.55,9.73c-.35,.15-.76,.07-1.03-.2l-.22-.22-19.27,8.73-.09,.59c-.05,.32-.26,.59-.55,.71Z"
        />
      </g>
      <g id="d">
        <path
          d="M587.88,477.69l4.58,10.6c.32,1.55,1.99,2.41,3.44,1.78l24.47-10.57-.4-.79,21.51-9.29,.35,.82,22.55-9.73c1.64-.71,2.38-2.64,1.62-4.26l-6.79-16.72"
          fill="#ffd962"
        />
        <path
          d="M664.75,461.37l-22.55,9.73c-.46,.2-.99,0-1.21-.44l-19.74,8.52c.08,.21,.08,.43,0,.64-.09,.24-.27,.44-.51,.54l-24.47,10.57c-.96,.41-2.04,.37-2.96-.11-.89-.46-1.52-1.28-1.75-2.25l-4.54-10.52c-.21-.48,.01-1.03,.49-1.23s1.03,.01,1.23,.49l4.58,10.6c.03,.06,.05,.12,.06,.18,.09,.46,.39,.84,.8,1.06,.42,.22,.91,.24,1.35,.05l23.56-10.17c-.08-.21-.08-.43,0-.64,.09-.24,.27-.44,.51-.54l21.51-9.29c.46-.2,.99,0,1.21,.44l21.69-9.36c.56-.24,.99-.69,1.21-1.26,.22-.57,.19-1.19-.07-1.74l-6.81-16.77c-.19-.47,.03-1.01,.5-1.21h.02c.48-.2,1.03,.03,1.22,.51l6.79,16.72c.46,.97,.5,2.11,.1,3.15-.4,1.05-1.18,1.87-2.22,2.32Z"
        />
      </g>
      <g id="e">
        <path
          d="M620.42,479.83c-.16,.07-.34,0-.41-.16l-4.58-10.6c-.07-.16,0-.34,.16-.41,.16-.07,.34,0,.41,.16l4.58,10.6c.07,.16,0,.34-.16,.41Z"
        />
      </g>
      <g id="f">
        <path
          d="M641.94,470.54c-.16,.07-.34,0-.41-.16l-4.58-10.6c-.07-.16,0-.34,.16-.41,.16-.07,.34,0,.41,.16l4.58,10.6c.07,.16,0,.34-.16,.41Z"
        />
      </g>
      <g id="g">
        <path
          d="M614.41,450.86c-.16,.07-.34,0-.41-.16-.07-.16,0-.34,.16-.41l21.56-9.56h0c.16-.07,.34,0,.41,.16,.07,.16,0,.34-.16,.41l-21.56,9.56h0Z"
        />
      </g>
      <g id="h">
        <path
          d="M631.66,433.67h0l-19.94,8.6c-.48,.21-1.03-.01-1.23-.49-.21-.48,.01-1.03,.49-1.23h0l19.94-8.6c.48-.21,1.03,.01,1.23,.49,.21,.48-.01,1.03-.49,1.23Z"
        />
      </g>
      <g id="i">
        <path
          d="M602.53,455.76l-18.46,7.97c-.16,.07-.34,0-.41-.16s0-.34,.16-.41l18.46-7.97c.16-.07,.34,0,.41,.16s0,.34-.16,.41Z"
        />
      </g>
      <g id="j">
        <path
          d="M610.92,461.77l-24.47,10.57c-.16,.07-.34,0-.41-.16s0-.34,.16-.41l24.47-10.57c.16-.07,.34,0,.41,.16s0,.34-.16,.41Z"
        />
      </g>
      <g id="k">
        <path
          d="M645.7,446.76c-.16,.07-.34,0-.41-.16s0-.34,.16-.41l13.75-5.95h0c.16-.07,.34,0,.41,.16s0,.34-.16,.41l-13.75,5.95h0Z"
        />
      </g>
      <g id="l">
        <path
          d="M658.71,439.1h0s-11.27,4.63-11.27,4.63c-.16,.06-.34-.01-.41-.17s0-.32,.17-.41l11.27-4.63c.16-.06,.34,.01,.41,.17,.06,.16,0,.34-.17,.41Z"
        />
      </g>
      <g id="m">
        <path
          d="M609.14,460.5l-23.44,10.12c-.16,.07-.34,0-.41-.16-.07-.16,0-.34,.16-.41l23.44-10.12c.16-.07,.34,0,.41,.16s0,.34-.16,.41Z"
        />
      </g>
      <g id="n">
        <path
          d="M600.79,454.52l-17.43,7.53c-.16,.07-.34,0-.41-.16s0-.34,.16-.41l17.43-7.53c.16-.07,.34,0,.41,.16,.07,.16,0,.34-.16,.41Z"
        />
      </g>
      <g id="o">
        <path
          d="M634.16,440.05l-20.15,8.7c-.16,.07-.34,0-.41-.16s0-.34,.16-.41l20.15-8.7c.16-.07,.34,0,.41,.16,.07,.16,0,.34-.16,.41Z"
        />
      </g>
      <g id="p">
        <path
          d="M675.89,414.34l9.96,21.55c.66,1.67,2.56,2.46,4.21,1.75l22.55-9.73-.03-.96,20.63-8.48,.91,.62,24.43-11.02c1.45-.63,1.97-2.43,1.06-3.73l-11-18.08c-.85-1.51-2.72-2.13-4.31-1.44l-10.73,4.63"
          fill="#ffd962"
        />
        <path
          d="M734.49,419.95c-.29,.13-.63,.09-.9-.08l-.5-.34-19.57,8.04v.31c.02,.38-.2,.74-.56,.89l-22.55,9.73c-1.03,.45-2.17,.45-3.21,.02-1.04-.43-1.83-1.24-2.25-2.28l-9.94-21.5c-.22-.47-.01-1.03,.46-1.24,.44-.25,1.03-.01,1.24,.46l9.96,21.55c.24,.62,.68,1.06,1.24,1.29,.56,.23,1.18,.23,1.74-.01l21.96-9.48v-.32c-.02-.39,.21-.77,.57-.9l20.63-8.48c.29-.12,.62-.09,.88,.09l.48,.33,23.95-10.81c.45-.19,.77-.57,.9-1.02,.13-.45,.05-.93-.22-1.31l-11.04-18.14c-.63-1.12-1.97-1.57-3.13-1.07l-10.73,4.63c-.48,.21-1.03-.01-1.23-.49-.21-.48,.01-1.03,.49-1.23l10.73-4.63c2.04-.88,4.41-.09,5.5,1.84l10.99,18.06c.56,.79,.74,1.85,.46,2.85-.28,1-.99,1.82-1.95,2.23l-24.42,11.02h-.01Z"
        />
      </g>
      <g id="q">
        <path
          d="M682.93,430.07l7.51,16.41c.66,1.67,2.56,2.46,4.21,1.75l22.55-9.73-.35-.82,21.51-9.29,.3,.84,24.47-10.57c1.45-.63,1.97-2.43,1.06-3.73l-4.58-10.6"
          fill="#ffd962"
        />
        <path
          d="M763.5,419.52l-24.47,10.57c-.24,.1-.51,.1-.75,0-.2-.09-.37-.25-.47-.44l-19.74,8.52c.17,.46-.05,.99-.51,1.19l-22.55,9.73c-1.03,.45-2.17,.45-3.21,.02-1.04-.43-1.83-1.24-2.25-2.28l-7.5-16.36c-.22-.47,0-1.03,.46-1.24,.44-.2,1.03,0,1.24,.46l7.51,16.41c.24,.61,.68,1.05,1.24,1.29,.56,.23,1.18,.23,1.74-.01l21.69-9.36c-.17-.46,.05-.99,.51-1.19l21.51-9.29c.24-.1,.51-.1,.75,0,.2,.09,.37,.25,.47,.44l23.56-10.17c.44-.19,.76-.56,.89-1.02,.13-.45,.05-.93-.22-1.31-.04-.05-.07-.11-.09-.17l-4.58-10.6c-.21-.48,.01-1.03,.49-1.23,.48-.21,1.03,.01,1.23,.49l4.54,10.52c.55,.83,.71,1.85,.43,2.81-.28,1-.99,1.82-1.95,2.23Z"
        />
      </g>
      <g id="r">
        <path
          d="M738.85,429.48c-.16,.07-.34,0-.41-.16l-4.58-10.6c-.07-.16,0-.34,.16-.41,.16-.07,.34,0,.41,.16l4.58,10.6c.07,.16,0,.34-.16,.41Z"
        />
      </g>
      <g id="s">
        <path
          d="M717.33,438.77c-.16,.07-.34,0-.41-.16l-4.58-10.6c-.07-.16,0-.34,.16-.41s.34,0,.41,.16l4.58,10.6c.07,.16,0,.34-.16,.41Z"
        />
      </g>
      <g id="t">
        <path
          d="M721.89,405.25h0s-21.74,9.13-21.74,9.13c-.16,.07-.34,0-.41-.17-.07-.16,0-.34,.16-.41h0s21.74-9.13,21.74-9.13c.16-.07,.34,0,.41,.17,.07,.16,0,.34-.16,.41Z"
        />
      </g>
      <g id="u">
        <path
          d="M697.55,406.01c-.48,.21-1.03-.01-1.23-.49-.21-.47,.01-1.03,.49-1.23l19.94-8.61c.48-.21,1.03,.01,1.23,.49,.21,.47-.01,1.03-.49,1.23l-19.94,8.61Z"
        />
      </g>
      <g id="v">
        <path
          d="M752.06,392l-18.46,7.97c-.16,.07-.34,0-.41-.16s0-.34,.16-.41l18.46-7.97c.16-.07,.34,0,.41,.16s0,.34-.16,.41Z"
        />
      </g>
      <g id="w">
        <path
          d="M756.7,399.62l-24.47,10.57c-.16,.07-.34,0-.41-.16s0-.34,.16-.41l24.47-10.57c.16-.07,.34,0,.41,.16s0,.34-.16,.41Z"
        />
      </g>
      <g id="x">
        <path
          d="M697.45,425.21h0l-13.76,5.93c-.16,.07-.34,0-.41-.16s0-.34,.16-.41h0l13.76-5.93c.16-.07,.34,0,.41,.16s0,.34-.16,.41Z"
        />
      </g>
      <g id="y">
        <path
          d="M682.95,429.42c-.16,.07-.34,0-.41-.16-.07-.16,0-.34,.16-.41l11.09-5.03c.14-.08,.34,0,.41,.16s0,.34-.16,.41l-11.09,5.03h0Z"
        />
      </g>
      <g id="z">
        <path
          d="M755.96,397.9l-23.44,10.12c-.16,.07-.34,0-.41-.16s0-.34,.16-.41l23.44-10.12c.16-.07,.34,0,.41,.16s0,.34-.16,.41Z"
        />
      </g>
      <g id="aa">
        <path
          d="M751.33,390.31l-17.43,7.53c-.16,.07-.34,0-.41-.16s0-.34,.16-.41l17.43-7.53c.16-.07,.34,0,.41,.16s0,.34-.16,.41Z"
        />
      </g>
      <g id="ab">
        <path
          d="M720.63,403.5l-20.15,8.7c-.16,.07-.34,0-.41-.16s0-.34,.16-.41l20.15-8.7c.16-.07,.34,0,.41,.16s0,.34-.16,.41Z"
        />
      </g>
      <g id="ac">
        <path
          d="M710.16,426.39s0,0,0,0l-24.17,9.78c-.16,.06-.34-.01-.41-.17-.06-.16,0-.34,.17-.4,0,0,0,0,0,0l23.87-9.66-2.41-5.52c-.07-.16,.03-.35,.16-.41,.16-.07,.34,0,.41,.16l2.54,5.81c.03,.08,.03,.16,0,.24-.03,.08-.09,.14-.17,.17Z"
        />
      </g>
      <g id="ad">
        <path
          d="M733.78,416.2c-.15,.06-.32,0-.4-.14l-1.88-3.58c-.08-.15-.02-.34,.13-.42,.16-.06,.34-.02,.42,.13l1.75,3.32,25.69-11.46h0c.16-.07,.34,0,.41,.16,.07,.16,0,.34-.16,.41l-25.96,11.58h0Z"
        />
      </g>
      <g id="ae">
        <path
          d="M710.08,425.6c-.16,.07-.34,0-.41-.16-.07-.16,0-.34,.16-.41l22.59-9.91h0c.16-.07,.34,0,.41,.16,.07,.16,0,.34-.16,.41l-22.59,9.91h0Z"
        />
      </g>
      <g id="af">
        <path
          d="M637.85,456.82c-.08,.03-.16,.03-.24,0-.08-.03-.14-.09-.17-.17l-2.49-5.83c-.07-.16,0-.34,.16-.41h0c.16-.07,.34,0,.41,.16l2.36,5.54,23.4-10.75s0,0,0,0c.16-.07,.34,0,.41,.16,.07,.16,0,.34-.15,.41l-23.69,10.89s0,0,0,0Z"
        />
      </g>
      <g id="ag">
        <path
          d="M614.23,467.02h0s-26.23,10.96-26.23,10.96c-.16,.07-.34,0-.41-.17-.07-.16,0-.34,.16-.41h0s25.96-10.84,25.96-10.84l-1.22-3.55c-.06-.16,.06-.33,.19-.4,.16-.06,.34,.03,.4,.19l1.31,3.82c.05,.15-.02,.32-.17,.39Z"
        />
      </g>
      <g id="ah">
        <path
          d="M637.33,456.23h0s-22.71,9.64-22.71,9.64c-.16,.07-.34,0-.41-.17-.07-.16,0-.34,.16-.41h0s22.71-9.64,22.71-9.64c.16-.07,.34,0,.41,.17,.07,.16,0,.34-.16,.41Z"
        />
      </g>
      <g>
        <polygon
          points="461.22 358.79 465.36 363.68 474.84 369.91 475.48 374.99 471.28 377.6 461.06 367.98 461.4 363.49 451.7 351.06 460.43 335.97 477.48 325.88 471.43 246.33 479.38 242.89 485.98 257.12 478.99 260.48 481.57 327.8 490.77 334.84 500.22 351.81 489.11 371.84 482.94 374.06 475.19 365.85 485.49 349.84 483.94 340.39 468.12 346.07 461.22 358.79"
          fill="#ffd962"
        />
        <path
          d="M489.23,372.13s-.01,0-.02,0l-6.16,2.23c-.12,.04-.25,.01-.33-.08l-7.75-8.21c-.1-.1-.11-.26-.04-.38l10.24-15.91-1.47-8.96-15.35,5.51-6.74,12.42,3.97,4.7,9.44,6.2c.08,.05,.13,.13,.14,.22l.64,5.08c.02,.12-.04,.24-.15,.3l-4.2,2.61c-.13,.07-.28,.06-.38-.04l-10.22-9.62c-.07-.06-.1-.16-.1-.25l.33-4.36-9.63-12.34c-.08-.1-.09-.24-.02-.35l8.74-15.09s.07-.09,.11-.11l16.88-9.99-6.03-79.36c0-.13,.07-.26,.19-.31l7.95-3.43c.16-.07,.34,0,.41,.16l6.6,14.22c.07,.16,0,.34-.15,.41l-6.81,3.27,2.56,66.97,9.09,6.94s.06,.06,.08,.1l9.45,16.97c.05,.09,.05,.21,0,.3l-11.11,20.03c-.03,.06-.09,.11-.15,.14Zm-6.2,1.57l5.86-2.12,10.97-19.78-9.33-16.76-9.16-6.99c-.07-.06-.12-.14-.12-.24l-2.58-67.32c0-.12,.06-.24,.18-.29l6.72-3.23-6.34-13.67-7.46,3.22,6.03,79.33c0,.12-.05,.23-.15,.29l-16.98,10.05-8.59,14.84,9.57,12.26c.05,.06,.07,.14,.07,.22l-.33,4.34,9.94,9.36,3.83-2.38-.6-4.74-9.35-6.15s-.05-.04-.07-.06l-4.14-4.89c-.08-.1-.1-.24-.04-.35l6.9-12.72c.04-.07,.09-.11,.17-.14l15.82-5.68c.09-.03,.18-.02,.26,.03,.08,.05,.13,.13,.15,.22l1.55,9.45c.01,.08,0,.15-.05,.22l-10.17,15.81,7.44,7.88Z"
        />
      </g>
      <polygon
        points="631.03 351.41 632.26 372.63 572.79 398.95 558.77 381.44 552.2 364.66 622.55 334.29 631.03 351.41"
        fill="#36abc8"
      />
      <polygon
        points="710.8 316.88 712.7 337.05 652.56 364.42 638.54 346.91 631.98 330.13 702.33 299.76 710.8 316.88"
        fill="#36abc8"
      />
      <path
        d="M587.84,227.07l37.08,85.88,64.56-27.87-37.08-85.88-64.56,27.87Zm73.76,48.02c-1.5,.35-6.74,3.55-8.26,3.81-1.38,.24-7.54,3.27-8.84,3.82-.39,.16-4.32-9.45-3.93-9.61,1.32-.55,15.61-7.11,17.01-7.34,1.57-.26,.89,5.5,2.43,5.15,.41-.09,1.99,4.08,1.59,4.17Zm-7.48-22.81c-1.62,.77-21.6,9.42-23.27,10.05-.39,.15-4.17-8.65-3.78-8.8,1.68-.63,21.19-9.36,22.81-10.13,.38-.18,4.62,8.71,4.24,8.88Z"
        fill="#36abc8"
      />
      <path
        d="M505.99,262.59l37.08,85.88,64.56-27.87-37.08-85.88-64.56,27.87Zm74.35,47.64c-1.74,.57-16.65,8.3-17.16,7.41-4.18-7.32-2.56-5.36-2.58-5.52-.02-.19-1.79-3.71-1.62-3.76,1.7-.48,15.67-6.82,17.35-7.37,.39-.13,4.4,9.1,4.01,9.23Zm-8.51-23.04c-.07,1.39-22.35,10.5-22.45,10.37-.12-.15-3.83-8.48-3.71-8.6,.73-.74,9.9-4.95,10.85-5.36,.38-.17,12.84-4.89,12.45-4.72-.9,.39,2.91,7.33,2.86,8.32Z"
        fill="#36abc8"
      />
      <g id="ai">
        <path
          d="M569.84,235.04l5.24-2.26c2.01-.87,4.34,.06,5.21,2.07l34.34,79.55c.65,1.51-.04,3.29-1.57,3.95l-6.83,2.95"
          fill="#36abc8"
        />
        <path
          d="M613.44,319.2l-6.83,2.95c-.48,.21-1.03-.01-1.23-.49-.21-.48,.01-1.03,.49-1.23l6.83-2.95c1.05-.45,1.53-1.67,1.08-2.71l-34.34-79.55c-.66-1.53-2.44-2.24-3.97-1.58l-5.24,2.26c-.48,.21-1.03-.01-1.23-.49s.01-1.03,.49-1.23l5.24-2.26c2.48-1.07,5.37,.08,6.44,2.56l34.34,79.55c.86,1.99-.06,4.32-2.06,5.18Z"
        />
      </g>
      <g id="aj">
        <path
          d="M612.81,336.57l5.09-2.2c.69-.3,1.4-.45,2.1-.48,.63-.03,1.09,.57,.91,1.17l-2.59,8.01c-.14,.4-.43,.72-.81,.89l-54.38,23.48c-.58,.25-1.23,.32-1.86,.17l-7.37-1.7c-.65-.15-.99-.83-.73-1.45,.67-1.62,1.95-2.99,3.68-3.74l1.94-.84"
          fill="#36abc8"
        />
        <path
          d="M617.87,344.83l-54.38,23.48c-.77,.33-1.62,.41-2.44,.23l-7.37-1.7c-.57-.13-1.06-.51-1.32-1.03-.27-.52-.29-1.14-.06-1.7,.78-1.91,2.27-3.42,4.18-4.24l1.94-.84c.48-.21,1.03,.01,1.23,.49,.21,.48-.01,1.03-.49,1.23l-1.94,.84c-1.46,.63-2.59,1.78-3.19,3.23-.02,.06-.01,.1,0,.12l7.45,1.76c.43,.1,.87,.06,1.28-.12l54.38-23.48c.14-.06,.25-.18,.3-.33l2.58-8c-.58,.07-1.18,.21-1.74,.45l-5.09,2.2c-.48,.21-1.03-.01-1.23-.49-.21-.48,.01-1.03,.49-1.23l5.09-2.2c.78-.34,1.6-.52,2.44-.55,.59-.03,1.17,.24,1.53,.71,.37,.47,.48,1.1,.3,1.68l-2.59,8.02c-.23,.67-.71,1.19-1.33,1.46Z"
        />
      </g>
      <g id="ak">
        <path
          d="M640.33,324.69l-5.1,2.2c-.69,.3-1.29,.71-1.78,1.2-.45,.44-.33,1.19,.23,1.47l7.61,3.61c.38,.17,.82,.18,1.21,.02l54.4-23.48c.58-.25,1.07-.68,1.4-1.23l3.81-6.53c.34-.57,.07-1.29-.55-1.53-1.64-.63-3.51-.63-5.25,.12l-1.94,.84"
          fill="#36abc8"
        />
        <path
          d="M697.26,310.56l-54.4,23.48c-.62,.27-1.34,.26-1.96-.02l-7.62-3.62c-.55-.27-.93-.78-1.02-1.37-.09-.59,.11-1.19,.54-1.61,.59-.58,1.29-1.05,2.07-1.39l5.1-2.2c.48-.21,1.03,.01,1.23,.49,.21,.48-.01,1.03-.49,1.23l-5.1,2.2c-.56,.24-1.07,.58-1.5,1.01l7.58,3.56c.13,.06,.29,.06,.43,0l54.4-23.48c.41-.18,.74-.47,.97-.85l3.81-6.53c0-.12-.02-.16-.08-.18-1.47-.57-3.08-.53-4.54,.1l-1.94,.84c-.48,.21-1.03-.01-1.23-.49-.21-.48,.01-1.03,.49-1.23l1.94-.84c1.91-.82,4.03-.87,5.96-.13,.56,.21,.99,.65,1.19,1.21,.19,.55,.14,1.16-.16,1.67l-3.81,6.53c-.43,.73-1.06,1.29-1.84,1.62Z"
        />
      </g>
      <g id="al">
        <path
          d="M596.53,303.34l-10.94,4.72c-.87,.37-1.9-.04-2.29-.93l-5.07-11.75c-.39-.89-1.42-1.3-2.32-.92l-22.16,9.57c-.89,.39-1.3,1.42-.92,2.32l5.07,11.75c.39,.89-.03,1.93-.92,2.32l-11.35,4.9c-.89,.39-1.3,1.42-.92,2.32l14.71,34.08c.39,.89,1.42,1.3,2.32,.92l50.89-21.97c.89-.39,1.3-1.42,.92-2.32l-14.71-34.08c-.39-.89-1.42-1.3-2.32-.92Zm-16.19,6.9c-1.74,.57-15.2,6.67-16.96,7.16-.17,.05-2.4-4.45-2.42-4.61-.02-.19-2.16-4.56-1.99-4.61,1.7-.48,15.68-6.64,17.36-7.18,.39-.13,4.4,9.1,4.01,9.23Z"
          fill="#36abc8"
        />
        <path
          d="M613.01,341.51l-50.89,21.97c-1.37,.59-2.96-.04-3.55-1.41l-14.71-34.08c-.59-1.37,.04-2.96,1.41-3.55l11.35-4.9c.42-.18,.61-.67,.43-1.08l-5.07-11.75c-.59-1.37,.04-2.96,1.41-3.55l22.16-9.57c1.37-.59,2.96,.04,3.55,1.41l5.07,11.75c.18,.41,.66,.61,1.06,.44l10.94-4.72c1.37-.59,2.96,.04,3.55,1.41l14.71,34.08c.59,1.37-.04,2.96-1.41,3.55Zm-67-15.34c-.42,.18-.61,.67-.43,1.08l14.71,34.08c.18,.42,.67,.61,1.08,.43l50.89-21.97c.42-.18,.61-.67,.43-1.08l-14.71-34.08c-.18-.42-.67-.61-1.08-.43l-10.94,4.72c-1.35,.58-2.93-.05-3.52-1.42l-5.07-11.75c-.18-.42-.67-.61-1.08-.43l-22.16,9.57c-.42,.18-.61,.67-.43,1.08l5.07,11.75c.59,1.37-.04,2.96-1.41,3.55l-11.35,4.9Z"
        />
      </g>
      <g id="am">
        <path
          d="M678.07,268.13l-10.94,4.72c-.87,.37-1.9-.04-2.29-.93l-5.07-11.75c-.39-.89-1.42-1.3-2.32-.92l-22.16,9.57c-.89,.39-1.3,1.42-.92,2.32l5.07,11.75c.39,.89-.03,1.93-.92,2.32l-11.35,4.9c-.89,.39-1.3,1.42-.92,2.32l14.71,34.08c.39,.89,1.42,1.3,2.32,.92l50.89-21.97c.89-.39,1.3-1.42,.92-2.32l-14.71-34.08c-.39-.89-1.42-1.3-2.32-.92Zm-15.97,6.92c-1.5,.35-6.32,3.1-7.84,3.36-1.38,.24-8.51,3.54-9.82,4.08-.39,.16-2.07-4.45-2.18-4.85-.81-2.8-3.22-4.41-1.82-4.64,1.57-.26,15.53-6.7,17.07-7.05,.41-.09,4.99,9,4.59,9.1Z"
          fill="#36abc8"
        />
        <path
          d="M694.55,306.31l-50.89,21.97c-1.37,.59-2.96-.04-3.55-1.41l-14.71-34.08c-.59-1.37,.04-2.96,1.41-3.55l11.35-4.9c.42-.18,.61-.67,.43-1.08l-5.07-11.75c-.59-1.37,.04-2.96,1.41-3.55l22.16-9.57c1.37-.59,2.96,.04,3.55,1.41l5.07,11.75c.18,.41,.66,.61,1.06,.44l10.94-4.72c1.37-.59,2.96,.04,3.55,1.41l14.71,34.08c.59,1.37-.04,2.96-1.41,3.55Zm-67-15.34c-.42,.18-.61,.67-.43,1.08l14.71,34.08c.18,.42,.67,.61,1.08,.43l50.89-21.97c.42-.18,.61-.67,.43-1.08l-14.71-34.08c-.18-.42-.67-.61-1.08-.43l-10.94,4.72c-1.35,.58-2.93-.05-3.52-1.42l-5.07-11.75c-.18-.42-.67-.61-1.08-.43l-22.16,9.57c-.42,.18-.61,.67-.43,1.08l5.07,11.75c.59,1.37-.04,2.96-1.41,3.55l-11.35,4.9Z"
        />
      </g>
      <g id="an">
        <path
          d="M580.59,310.9l-17.43,7.53c-.32,.14-.68,0-.82-.33l-4.09-9.47c-.14-.32,0-.68,.33-.82l17.43-7.53c.32-.14,.68,0,.82,.33l4.09,9.47c.14,.32,0,.68-.33,.82Zm-17.36,6.13l16.29-7.03-3.59-8.33-16.29,7.03,3.59,8.33Z"
        />
      </g>
      <g id="ao">
        <path
          d="M588.19,377.96c-2.06-3.43-6.51-4.54-9.94-2.48-3.43,2.06-4.54,6.51-2.48,9.94,.2,.33-5.94,13.52-5.94,13.52-1.18,3.04-1.09,6.43,.22,9.4l15.69,35.36c1.28,2.9,3.49,5.27,6.3,6.76l17.13,9.08c3.91,1.45,7.77-2.27,6.46-6.22l-26.07-64.15s.69-7.78-1.38-11.21Z"
          fill="#36abc8"
        />
        <path
          d="M613.24,460.32c-1.37,.59-2.93,.65-4.39,.1-.04-.01-.08-.03-.11-.05l-17.13-9.08c-2.98-1.58-5.36-4.14-6.72-7.21l-15.69-35.36c-1.43-3.24-1.51-6.84-.24-10.12,2.55-5.48,5.3-11.59,5.81-13.04-2.05-3.82-.76-8.63,2.99-10.89,3.87-2.33,8.91-1.07,11.23,2.8,1.87,3.11,1.77,9.55,1.52,11.55l25.99,63.95c.74,2.23,.16,4.57-1.49,6.16-.53,.51-1.13,.91-1.78,1.19Zm-3.68-1.63c1.48,.52,3.03,.19,4.16-.9,1.14-1.1,1.53-2.66,1.03-4.16l-26.05-64.09c-.07-.17-.09-.35-.05-.53,.12-.96,.47-7.67-1.26-10.55-1.79-2.98-5.67-3.95-8.66-2.16-2.98,1.79-3.95,5.68-2.16,8.66,.32,.53,.45,.75-5.89,14.4-1.07,2.76-.99,5.85,.23,8.63l15.69,35.35c1.19,2.69,3.28,4.93,5.88,6.31l17.07,9.05Zm-34.59-72.77h0s0,0,0,0Z"
        />
      </g>
      <g id="ap">
        <path
          d="M583.94,386.65c-.99,.43-2.09,.52-3.15,.25-1.28-.32-2.37-1.12-3.05-2.25-1.41-2.34-.65-5.39,1.69-6.79h0c1.13-.68,2.46-.88,3.75-.56,1.28,.32,2.36,1.12,3.05,2.25,.68,1.13,.88,2.46,.56,3.75-.32,1.28-1.12,2.36-2.25,3.05-.19,.12-.39,.22-.6,.31Zm-4.18-8.26c-2.04,1.23-2.71,3.89-1.48,5.94,.6,.99,1.54,1.69,2.66,1.97,1.12,.28,2.28,.1,3.27-.49,.99-.59,1.69-1.54,1.97-2.66,.28-1.12,.11-2.28-.49-3.27-1.23-2.04-3.9-2.71-5.94-1.48h0Z"
        />
      </g>
      <g id="aq">
        <path
          d="M569.79,236.92l10.92,25.29c.45,1.04-.09,2.28-1.19,2.76l-52.5,22.66c-1.02,.44-2.19,.02-2.6-.94l-14.84-34.38,56.37-24.33,3.86,8.93"
          fill="#36abc8"
        />
        <path
          d="M579.89,265.83l-52.5,22.66c-1.5,.65-3.21,0-3.83-1.42l-14.84-34.38c-.21-.48,.01-1.03,.49-1.23l56.37-24.33c.48-.21,1.03,.01,1.23,.49l3.86,8.93c.02,.05,.04,.1,.05,.16l10.85,25.14c.65,1.52-.1,3.31-1.68,3.99Zm-69.07-13.02l14.47,33.51c.21,.48,.82,.68,1.37,.45l52.5-22.66c.62-.27,.94-.97,.7-1.52l-10.92-25.29c-.02-.05-.04-.1-.05-.16l-3.42-7.92-54.64,23.59Z"
        />
      </g>
      <g id="ar">
        <path
          d="M572.91,288.1l-23.54,10.16c-.32,.14-.68,0-.82-.33l-3.96-9.18c-.14-.32,0-.68,.33-.82l23.54-10.16c.32-.14,.68,0,.82,.33l3.96,9.18c.14,.32,0,.68-.33,.82Zm-23.46,8.77l22.39-9.67-3.47-8.03-22.39,9.67,3.47,8.03Z"
        />
      </g>
      <g id="as">
        <path
          d="M552.47,345.5l-6.68,2.88c-1.88,.81-4.07-.06-4.88-1.94l-34.49-79.89c-1.03-2.39,.07-5.17,2.46-6.2l3.51-1.51c.48-.21,1.03,.01,1.23,.49,.21,.48-.01,1.03-.49,1.23l-3.51,1.51c-1.44,.62-2.1,2.3-1.48,3.73l34.49,79.89c.4,.93,1.49,1.36,2.42,.96l6.68-2.88c.48-.21,1.03,.01,1.23,.49,.21,.48-.01,1.03-.49,1.23Z"
        />
      </g>
      <g id="at">
        <path
          d="M589.28,289.04l-4.89,2.11c-.16,.07-.34,0-.41-.16l-5.02-11.62c-.07-.16,0-.34,.16-.41l4.89-2.11c.16-.07,.34,0,.41,.16l5.02,11.62c.07,.16,0,.34-.16,.41Zm-4.85,1.41l4.32-1.86-4.77-11.05-4.32,1.86,4.77,11.05Z"
        />
      </g>
      <g id="au">
        <path
          d="M599.88,284.46l-4.89,2.11c-.16,.07-.34,0-.41-.16l-5.02-11.62c-.07-.16,0-.34,.16-.41l4.89-2.11c.16-.07,.34,0,.41,.16l5.02,11.62c.07,.16,0,.34-.16,.41Zm-4.85,1.41l4.32-1.86-4.77-11.05-4.32,1.86,4.77,11.05Z"
        />
      </g>
      <g id="av">
        <path
          d="M589.82,350.82c-.16,.07-.34,0-.41-.16l-4.49-10.39c-.07-.16,0-.34,.16-.41l22.03-9.51c.16-.07,.34,0,.41,.16s0,.34-.16,.41l-21.74,9.39,4.36,10.11c.07,.16,0,.34-.16,.41Z"
        />
      </g>
      <g id="aw">
        <path
          d="M574.15,339.46c-.08,.03-.17,.04-.25,0l-29.98-13.18c-.16-.07-.23-.25-.16-.41,.07-.16,.25-.23,.41-.16l29.98,13.18c.16,.07,.23,.25,.16,.41-.03,.08-.09,.13-.16,.16Z"
        />
      </g>
      <g id="ax">
        <rect
          x="579.33"
          y="358.42"
          width="26.52"
          height="4"
          transform="translate(-94.32 264.4) rotate(-23.35)"
          fill="#ffd962"
        />
        <path
          d="M605.7,357.35l-24.34,10.51c-.19,.08-.41,0-.49-.19l-1.59-3.68c-.08-.19,0-.41,.19-.49l24.34-10.51c.19-.08,.41,0,.49,.19l1.59,3.68c.08,.19,0,.41-.19,.49Zm-24.3,9.68l23.66-10.22-1.29-2.99-23.66,10.22,1.29,2.99Z"
        />
      </g>
      <g id="ay">
        <path
          d="M602.45,372.64c-1.03-3.87,1.26-7.84,5.13-8.86,3.87-1.03,7.84,1.26,8.86,5.13,.1,.36,13.84,5.15,13.84,5.15,3,1.27,5.38,3.68,6.6,6.71l14.48,35.88c1.19,2.93,1.35,6.18,.47,9.22l-5.4,18.62c-1.68,3.82-7.03,4.01-8.97,.31l-27.93-63.36s-6.04-4.94-7.07-8.8Z"
          fill="#36abc8"
        />
        <path
          d="M644.22,447.92c-.67,.29-1.4,.46-2.16,.48-2.29,.08-4.38-1.13-5.45-3.16l-27.87-63.23c-2.01-1.73-6.3-5.73-7.2-9.14-.56-2.11-.27-4.32,.82-6.21,1.09-1.89,2.86-3.25,4.97-3.8,2.11-.56,4.32-.27,6.21,.82,1.78,1.03,3.08,2.65,3.7,4.59,1.53,.7,8.81,3.3,13.35,4.89,3.26,1.37,5.85,4.01,7.16,7.25l14.48,35.88c1.26,3.1,1.44,6.59,.5,9.84l-5.4,18.62s-.03,.08-.04,.12c-.62,1.4-1.71,2.47-3.06,3.05Zm-33.82-66.8l27.9,63.31c.71,1.35,2.1,2.16,3.69,2.1,1.57-.05,2.89-.94,3.54-2.36l5.39-18.56c.82-2.84,.66-5.9-.44-8.61l-14.48-35.88c-1.12-2.78-3.34-5.04-6.1-6.2-14.15-4.93-14.21-5.16-14.38-5.77-.43-1.63-1.47-2.99-2.93-3.83-1.46-.84-3.16-1.07-4.79-.63-1.63,.43-2.99,1.47-3.83,2.93-.84,1.46-1.07,3.16-.63,4.78h0c.82,3.06,5.32,7.09,6.69,8.26,.1,.09,.27,.23,.36,.46Zm-7.95-8.48h0s0,0,0,0Z"
        />
      </g>
      <g id="az">
        <path
          d="M571.48,397.35c-.27,.12-.59,.11-.86-.06-3.94-2.38-7.99-7.56-11.44-12.31-.8-1.11-1.48-2.31-2.03-3.57l-4.81-11.14c-.67-1.55-.96-4.08-.18-5.71,.22-.47,.78-.66,1.25-.44,.47,.22,.66,.78,.44,1.25-.5,1.04-.29,2.99,.21,4.16l4.81,11.14c.49,1.14,1.11,2.22,1.82,3.21,2.02,2.78,6.75,9.3,10.89,11.8,.44,.27,.59,.84,.32,1.29-.1,.17-.26,.3-.43,.38Z"
        />
      </g>
      <g id="ba">
        <path
          d="M609.99,384.52h0s-18.14,7.6-18.14,7.6c-.48,.2-1.03-.03-1.23-.5-.2-.48,.02-1.06,.5-1.23l18.14-7.6c.48-.2,1.03,.03,1.23,.5,.2,.47-.02,1.02-.49,1.22Z"
        />
      </g>
      <g id="bb">
        <path
          d="M631.69,375.15c-.48,.21-1.03-.01-1.23-.49-.21-.48,.01-1.03,.49-1.23,1.94-.84,1.74-7.13-.59-18.71-.11-.56-.21-1.05-.29-1.46-.15-.81-.4-1.61-.72-2.37l-5.51-12.76c-.69-1.61-2.25-2.97-3.71-3.25-.51-.1-.84-.59-.75-1.1,.1-.51,.59-.84,1.1-.74,2.08,.4,4.12,2.15,5.08,4.35l5.51,12.76c.38,.89,.67,1.82,.85,2.76,.08,.41,.18,.89,.29,1.44,1.85,9.16,3.48,19.08-.51,20.81Z"
        />
      </g>
      <g id="bc">
        <circle cx="581.77" cy="424.76" r="4.5" fill="#919191" />
        <path
          d="M583.67,429.18c-.96,.41-2.03,.5-3.06,.25-1.25-.31-2.3-1.09-2.96-2.19-1.37-2.27-.63-5.23,1.64-6.6h0c2.28-1.37,5.23-.63,6.6,1.64,.66,1.1,.86,2.39,.55,3.64-.31,1.25-1.09,2.3-2.19,2.96-.19,.11-.38,.21-.58,.3Zm-4.05-8.01c-1.98,1.19-2.62,3.76-1.43,5.74,.58,.96,1.49,1.63,2.57,1.9,1.08,.27,2.21,.1,3.17-.47,.96-.58,1.63-1.49,1.9-2.57,.27-1.08,.1-2.21-.47-3.17-1.19-1.98-3.76-2.62-5.74-1.43h0Z"
        />
      </g>
      <g id="bd">
        <path
          d="M471.97,225.73l-9.31,4.02c-3.03,1.31-4.91,4.39-4.68,7.69l6.52,92.29,12.97-3.85-6.05-79.55,7.95-3.43-7.41-17.16Z"
          fill="#ffd962"
        />
        <path
          d="M477.73,326.45s-.05,.02-.07,.03l-12.97,3.85c-.18,.05-.38,.02-.53-.09s-.25-.28-.27-.47l-6.52-92.29c-.24-3.56,1.79-6.89,5.06-8.31l9.31-4.02c.32-.14,.68,0,.82,.33l7.41,17.16c.14,.32,0,.68-.33,.82l-7.54,3.25,6.01,79.11c.02,.27-.13,.52-.38,.62Zm-12.65,2.45l11.74-3.48-6.01-79.05c-.02-.27,.13-.52,.38-.62l7.37-3.18-6.91-16.01-8.73,3.77c-2.78,1.2-4.51,4.04-4.3,7.07l6.47,91.51Z"
        />
      </g>
      <g id="be">
        <path
          d="M467.13,365.74l-.32-1.35c-.23-.96-1.19-1.54-2.14-1.32l-.47,.11c-1.64,.39-3.37-.26-4.35-1.64l-5.48-7.69c-1.1-1.55-1.25-3.57-.39-5.27l5.28-10.31c.76-1.48,2.1-2.57,3.7-2.99l11.8-3.18c1.71-.46,3.53,.31,4.38,1.86l4.84,8.69c1.1,1.97,1.04,4.37-.12,6.3l-4.89,8.05c-.82,1.37-2.07,2.43-3.56,3.03l-1.61,.65c-.6,.24-.95,.89-.83,1.54l.54,2.68c.16,.76,.94,1.21,1.67,.95l2.24-.78c1.58-.56,2.94-1.67,3.79-3.11l8.4-14.08c1-1.69,1.05-3.79,.11-5.53l-6.85-12.64c-1.38-2.55-4.34-3.82-7.13-3.05l-14.52,3.96c-1.83,.5-3.37,1.73-4.25,3.42l-7.86,14.94c-1.08,2.06-.86,4.56,.59,6.39l8.53,10.75c1.45,1.83,3.83,2.68,6.11,2.17l1.36-.31c1.03-.2,1.67-1.23,1.43-2.24Z"
          fill="#ffd962"
        />
        <path
          d="M478.13,365.47c-.16,.07-.32,.13-.49,.19l-2.24,.78c-.52,.18-1.08,.13-1.56-.14-.48-.27-.82-.73-.93-1.28l-.54-2.69c-.18-.94,.36-1.85,1.2-2.24l1.61-.65c1.38-.54,2.5-1.51,3.26-2.77l4.89-8.06c1.05-1.74,1.09-3.91,.11-5.67l-4.84-8.69c-.72-1.31-2.23-1.95-3.67-1.56l-11.8,3.18c-1.42,.38-2.63,1.36-3.3,2.68l-5.28,10.31c-.76,1.48-.63,3.26,.34,4.62l5.48,7.69c.83,1.16,2.31,1.72,3.69,1.39l.47-.11c1.28-.3,2.58,.5,2.89,1.78l.32,1.35s0,0,0,0c.16,.66,.03,1.36-.33,1.93-.36,.56-.93,.94-1.58,1.07l-1.34,.3c-2.5,.56-5.15-.38-6.74-2.39l-8.53-10.75c-1.59-2.01-1.85-4.79-.66-7.07l7.86-14.94c.96-1.83,2.65-3.19,4.64-3.73l14.52-3.96c3.09-.86,6.32,.52,7.85,3.35l6.85,12.64c1.03,1.92,.98,4.28-.13,6.15l-8.4,14.08c-.84,1.41-2.11,2.53-3.63,3.19Zm-4.11-4.2c-.32,.14-.5,.48-.43,.83l.54,2.68c.04,.19,.15,.35,.32,.44,.16,.09,.35,.11,.53,.05l2.24-.78c1.45-.52,2.68-1.52,3.45-2.84l8.4-14.09c.9-1.52,.94-3.36,.1-4.91l-6.85-12.64c-1.25-2.32-3.89-3.44-6.42-2.74l-14.52,3.97c-1.66,.45-3.07,1.58-3.86,3.1l-7.86,14.94c-.96,1.85-.76,4.09,.53,5.71l8.53,10.75c1.3,1.64,3.45,2.4,5.48,1.95l1.35-.31c.34-.07,.61-.25,.79-.53,.18-.29,.24-.63,.16-.96l-.32-1.35c-.15-.62-.77-1-1.38-.86l-.47,.11c-1.9,.45-3.87-.29-5-1.88l-5.48-7.69c-1.24-1.75-1.41-4.01-.43-5.92l5.28-10.31c.84-1.63,2.33-2.84,4.09-3.31l11.8-3.18c2-.54,4.09,.35,5.09,2.16l4.84,8.69c1.2,2.15,1.15,4.81-.13,6.93l-4.89,8.06c-.9,1.49-2.23,2.62-3.86,3.28l-1.61,.65h-.01Zm-6.89,4.48h0s0,0,0,0Z"
        />
      </g>
      <g id="bf">
        <path
          d="M489.35,372.41l-3.12,1.35c-1.62,.7-3.49,.46-4.88-.63l-7.17-6.66c-.25-.23-.27-.63-.03-.88,.24-.25,.63-.27,.88-.03l7.13,6.63c.98,.77,2.37,.95,3.57,.43l2.92-1.26,9.65-17.26c.74-1.42,.72-3.12-.07-4.53l-7.96-14.3-9.11-6.95c-.15-.11-.24-.29-.25-.47l-2.58-67.32c0-.26,.14-.5,.38-.6l6.16-2.66-6.09-14.1c-.14-.32,0-.68,.33-.82s.68,0,.82,.33l6.34,14.68c.14,.32,0,.68-.33,.82l-6.34,2.74,2.55,66.6,8.97,6.85c.07,.05,.13,.12,.17,.19l8.02,14.41c.99,1.79,1.02,3.93,.08,5.74l-9.77,17.46c-.07,.12-.17,.21-.3,.27Z"
        />
      </g>
      <g id="bg">
        <path
          d="M489.23,372.13c-.11,.05-.24,.03-.33-.05l-9.57-8.44c-.13-.12-.14-.31-.03-.44,.11-.13,.31-.14,.44-.03l9.57,8.44c.13,.12,.14,.31,.03,.44-.03,.04-.07,.06-.11,.08Z"
        />
      </g>
      <g id="bh">
        <path
          d="M500.35,352.1c-.1,.04-.21,.03-.3-.03l-10.13-7.11c-.14-.1-.17-.29-.08-.44,.1-.14,.29-.17,.44-.08l10.13,7.11c.14,.1,.17,.29,.08,.44-.03,.05-.08,.09-.13,.11Z"
        />
      </g>
      <g id="bi">
        <path
          d="M475.58,376.42l-2.55,1.1c-1.14,.49-2.48,.26-3.4-.6l-9-8.5c-.25-.24-.26-.63-.03-.88,.24-.25,.63-.26,.88-.02l8.99,8.49c.55,.52,1.36,.66,2.05,.36l2.4-1.04-8.95-7.73c-.26-.23-.29-.62-.06-.88,.23-.26,.62-.29,.88-.06l9.09,7.85c.3,.27,.43,.65,.37,1.04-.06,.39-.32,.71-.68,.87Zm-.52-.97h0s0,0,0,0Z"
        />
      </g>
      <g id="bj">
        <path
          d="M471.4,377.89c-.1,.04-.23,.03-.32-.04l-12.47-10.1s-.04-.04-.06-.07l-10.67-15.46c-.1-.14-.06-.34,.08-.43,.14-.1,.34-.06,.43,.08l10.64,15.43,12.43,10.07c.13,.11,.16,.31,.05,.44-.03,.04-.07,.07-.12,.09Z"
        />
      </g>
      <g id="bk">
        <path
          d="M483.21,341.36s-.02,0-.03,0l-14.96,5c-.13,.04-.27,0-.35-.11l-7.69-10.1c-.1-.14-.08-.33,.06-.44,.14-.11,.33-.08,.44,.06l7.56,9.92,14.75-4.93c.16-.05,.34,.03,.4,.2,.05,.16-.02,.32-.17,.39Z"
        />
      </g>
      <g id="bl">
        <path
          d="M476.32,376.11c-.06,.03-.13,.04-.2,.05-.34,.03-.65-.23-.67-.57l-.32-4.02c-.06-.44-.31-.87-.68-1.17l-8.08-6.44c-.27-.22-.31-.61-.1-.88,.21-.27,.61-.31,.88-.1l8.08,6.45c.62,.5,1.02,1.21,1.14,2.01l.33,4.06c.02,.27-.14,.52-.38,.62Z"
        />
      </g>
      <g id="bm">
        <path
          d="M464.52,363.09c-.13,.05-.28,.02-.37-.09l-3.18-4.02c-.08-.1-.09-.23-.03-.34l6.9-12.72c.08-.15,.27-.21,.42-.13,.15,.08,.21,.27,.13,.42l-6.8,12.53,3.05,3.86c.11,.14,.08,.33-.05,.44-.02,.02-.05,.03-.07,.04Z"
        />
      </g>
      <g id="bn">
        <path
          d="M461.35,359.07c-.11,.05-.25,.03-.34-.07l-7.85-7.79c-.12-.12-.12-.32,0-.44,.12-.12,.32-.12,.44,0l7.85,7.79c.12,.12,.12,.32,0,.44-.03,.03-.06,.05-.1,.07Z"
        />
      </g>
      <g id="bo">
        <path
          d="M631.57,374.86c-.32,.14-.68,0-.82-.33l-13.2-30.57c-.14-.32,0-.68,.33-.82,.32-.14,.68,0,.82,.33l13.2,30.57c.14,.32,0,.68-.33,.82Z"
        />
      </g>
      <g id="bp">
        <path
          d="M573.24,393.2c-.32,.14-.68,0-.82-.32l-10.66-24.48-.43-.1c-.34-.08-.54-.42-.46-.75,.08-.34,.42-.54,.75-.46l.74,.17c.19,.05,.35,.18,.43,.36l10.78,24.77c.14,.32,0,.68-.32,.82h0Z"
        />
      </g>
      <g id="bq">
        <path
          d="M538.76,251.87l-24.77,10.69c-.32,.14-.68,0-.82-.33-.14-.32,0-.68,.33-.82l24.2-10.45-4.27-9.88c-.14-.32,0-.68,.33-.82,.32-.14,.68,0,.82,.33l4.51,10.46c.14,.32,0,.68-.33,.82Z"
        />
      </g>
      <g id="br">
        <path
          d="M525.28,288.72c-.08,.04-.19,.03-.27-.01-.15-.08-.21-.27-.13-.42l12.44-22.87c.08-.15,.27-.21,.42-.13,.15,.08,.21,.27,.13,.42l-12.44,22.87c-.03,.06-.09,.11-.15,.14Z"
        />
      </g>
      <g id="bs">
        <path
          d="M585.98,334.35c-.07,.03-.16,.03-.24,0-.16-.06-.24-.24-.18-.4l12.3-31.43c.06-.16,.24-.24,.4-.18,.16,.06,.24,.24,.18,.4l-12.3,31.43c-.03,.08-.09,.14-.17,.17Z"
        />
      </g>
      <g id="bt">
        <path
          d="M598.53,303.49c-.48,.21-1.03-.01-1.23-.49l-16.63-38.53c-.21-.48,.01-1.03,.49-1.23,.48-.21,1.03,.01,1.23,.49l16.63,38.53c.21,.48-.01,1.03-.49,1.23Z"
        />
      </g>
      <g id="bu">
        <path
          d="M581.65,264.39c-.07,.03-.14,.03-.22,.01l-23.29-7.45c-.16-.05-.25-.23-.2-.39,.05-.16,.23-.25,.39-.2l23.29,7.45c.16,.05,.25,.23,.2,.39-.03,.09-.09,.16-.17,.19Z"
        />
      </g>
      <g id="bv">
        <path
          d="M609.37,302.25l-9.59,4.14c-.16,.07-.34,0-.41-.16s0-.34,.16-.41l9.59-4.14c.16-.07,.34,0,.41,.16,.07,.16,0,.34-.16,.41Z"
        />
      </g>
      <g id="bw">
        <path
          d="M545.67,329.75l-9.23,3.98c-.16,.07-.34,0-.41-.16s0-.34,.16-.41l9.23-3.98c.16-.07,.34,0,.41,.16s0,.34-.16,.41Z"
        />
      </g>
      <g id="bx">
        <path
          d="M522.1,281.35l-6.98,3.01c-.16,.07-.34,0-.41-.16s0-.34,.16-.41l6.98-3.01c.16-.07,.34,0,.41,.16s0,.34-.16,.41Z"
        />
      </g>
      <g id="by">
        <path
          d="M588.06,252.87l-9.59,4.14c-.16,.07-.34,0-.41-.16s0-.34,.16-.41l9.59-4.14c.16-.07,.34,0,.41,.16s0,.34-.16,.41Z"
        />
      </g>
      <g id="bz">
        <path
          d="M473.36,218.47l-.22,.09c-1.77,.77-3.84-.05-4.61-1.83l-19.5-45.17c-.77-1.77,.05-3.84,1.83-4.61l.22-.09c1.77-.77,3.84,.05,4.61,1.83l19.5,45.17c.77,1.79-.06,3.85-1.83,4.61Z"
          fill="#ffd962"
        />
        <path
          d="M473.61,219.04l-.22,.09c-2.09,.9-4.53-.06-5.44-2.16l-19.5-45.17c-.9-2.09,.06-4.53,2.16-5.44l.22-.09c2.09-.9,4.53,.06,5.44,2.16l19.5,45.17c.9,2.09-.06,4.53-2.16,5.44Zm-22.5-51.52c-1.46,.63-2.14,2.33-1.51,3.79l19.5,45.17c.63,1.46,2.33,2.14,3.79,1.5l.22-.09c1.46-.63,2.14-2.33,1.51-3.79l-19.5-45.17c-.63-1.46-2.33-2.14-3.79-1.51l-.22,.09Z"
        />
      </g>
      <g id="ca">
        <path
          d="M491.05,258.25l-1.06,.46c-1.54,.66-3.34-.05-4-1.59l-14.94-34.6c-.66-1.54,.05-3.34,1.59-4l1.06-.46c1.54-.66,3.34,.05,4,1.59l14.94,34.6c.66,1.54-.05,3.34-1.59,4Z"
          fill="#ffd962"
        />
        <path
          d="M491.29,258.82l-1.06,.46c-1.86,.8-4.02-.06-4.82-1.91l-14.94-34.6c-.8-1.86,.06-4.02,1.91-4.82l1.06-.46c1.86-.8,4.02,.06,4.82,1.91l14.94,34.6c.8,1.86-.06,4.02-1.91,4.82Zm-18.41-39.73c-1.23,.53-1.79,1.96-1.26,3.18l14.94,34.6c.53,1.23,1.96,1.79,3.18,1.26l1.06-.46c1.23-.53,1.79-1.96,1.26-3.18l-14.94-34.6c-.53-1.23-1.96-1.79-3.18-1.26l-1.06,.46Z"
        />
      </g>
      <g id="cb">
        <path
          d="M455.36,168.22l-6.43,2.78c-.16,.07-.34,0-.41-.16-.07-.16,0-.34,.16-.41l6.43-2.78c.16-.07,.34,0,.41,.16s0,.34-.16,.41Z"
        />
      </g>
      <g id="cc">
        <path
          d="M456.41,170.66l-6.43,2.78c-.16,.07-.34,0-.41-.16s0-.34,.16-.41l6.43-2.78c.16-.07,.34,0,.41,.16s0,.34-.16,.41Z"
        />
      </g>
      <g id="cd">
        <path
          d="M457.82,173.93l-6.43,2.78c-.16,.07-.34,0-.41-.16s0-.34,.16-.41l6.43-2.78c.16-.07,.34,0,.41,.16s0,.34-.16,.41Z"
        />
      </g>
      <g id="ce">
        <path
          d="M459.58,178l-6.43,2.78c-.16,.07-.34,0-.41-.16-.07-.16,0-.34,.16-.41l6.43-2.78c.16-.07,.34,0,.41,.16s0,.34-.16,.41Z"
        />
      </g>
      <g id="cf">
        <path
          d="M461.34,182.08l-6.43,2.78c-.16,.07-.34,0-.41-.16-.07-.16,0-.34,.16-.41l6.43-2.78c.16-.07,.34,0,.41,.16,.07,.16,0,.34-.16,.41Z"
        />
      </g>
      <g id="cg">
        <path
          d="M463.45,186.97l-6.43,2.78c-.16,.07-.34,0-.41-.16-.07-.16,0-.34,.16-.41l6.43-2.78c.16-.07,.34,0,.41,.16s0,.34-.16,.41Z"
        />
      </g>
      <g id="ch">
        <path
          d="M465.92,192.68l-6.43,2.78c-.16,.07-.34,0-.41-.16s0-.34,.16-.41l6.43-2.78c.16-.07,.34,0,.41,.16s0,.34-.16,.41Z"
        />
      </g>
      <g id="ci">
        <path
          d="M468.03,197.57l-6.43,2.78c-.16,.07-.34,0-.41-.16s0-.34,.16-.41l6.43-2.78c.16-.07,.34,0,.41,.16s0,.34-.16,.41Z"
        />
      </g>
      <g id="cj">
        <path
          d="M469.79,201.65l-6.43,2.78c-.16,.07-.34,0-.41-.16s0-.34,.16-.41l6.43-2.78c.16-.07,.34,0,.41,.16,.07,.16,0,.34-.16,.41Z"
        />
      </g>
      <g id="ck">
        <path
          d="M471.55,205.73l-6.43,2.78c-.16,.07-.34,0-.41-.16s0-.34,.16-.41l6.43-2.78c.16-.07,.34,0,.41,.16,.07,.16,0,.34-.16,.41Z"
        />
      </g>
      <g id="cl">
        <path
          d="M473.31,209.8l-6.43,2.78c-.16,.07-.34,0-.41-.16s0-.34,.16-.41l6.43-2.78c.16-.07,.34,0,.41,.16s0,.34-.16,.41Z"
        />
      </g>
      <g id="cm">
        <path
          d="M474.72,213.06l-6.43,2.78c-.16,.07-.34,0-.41-.16s0-.34,.16-.41l6.43-2.78c.16-.07,.34,0,.41,.16s0,.34-.16,.41Z"
        />
      </g>
      <g id="cn">
        <path
          d="M475.77,215.51l-6.43,2.78c-.16,.07-.34,0-.41-.16s0-.34,.16-.41l6.43-2.78c.16-.07,.34,0,.41,.16s0,.34-.16,.41Z"
        />
      </g>
      <g id="co">
        <path
          d="M477.82,219.94l-6.65,2.87c-.16,.07-.34,0-.41-.16s0-.34,.16-.41l6.65-2.87c.16-.07,.34,0,.41,.16s0,.34-.16,.41Z"
        />
      </g>
      <g id="cp">
        <path
          d="M479.23,223.2l-6.65,2.87c-.16,.07-.34,0-.41-.16s0-.34,.16-.41l6.65-2.87c.16-.07,.34,0,.41,.16,.07,.16,0,.34-.16,.41Z"
        />
      </g>
      <g id="cq">
        <path
          d="M480.99,227.28l-6.65,2.87c-.16,.07-.34,0-.41-.16s0-.34,.16-.41l6.65-2.87c.16-.07,.34,0,.41,.16s0,.34-.16,.41Z"
        />
      </g>
      <g id="cr">
        <path
          d="M482.75,231.35l-6.65,2.87c-.16,.07-.34,0-.41-.16s0-.34,.16-.41l6.65-2.87c.16-.07,.34,0,.41,.16,.07,.16,0,.34-.16,.41Z"
        />
      </g>
      <g id="cs">
        <path
          d="M484.86,236.25l-6.65,2.87c-.16,.07-.34,0-.41-.16s0-.34,.16-.41l6.65-2.87c.16-.07,.34,0,.41,.16,.07,.16,0,.34-.16,.41Z"
        />
      </g>
      <g id="ct">
        <path
          d="M486.98,241.14l-6.65,2.87c-.16,.07-.34,0-.41-.16s0-.34,.16-.41l6.65-2.87c.16-.07,.34,0,.41,.16,.07,.16,0,.34-.16,.41Z"
        />
      </g>
      <g id="cu">
        <path
          d="M488.74,245.22l-6.65,2.87c-.16,.07-.34,0-.41-.16s0-.34,.16-.41l6.65-2.87c.16-.07,.34,0,.41,.16s0,.34-.16,.41Z"
        />
      </g>
      <g id="cv">
        <path
          d="M490.14,248.48l-6.65,2.87c-.16,.07-.34,0-.41-.16-.07-.16,0-.34,.16-.41l6.65-2.87c.16-.07,.34,0,.41,.16,.07,.16,0,.34-.16,.41Z"
        />
      </g>
      <g id="cw">
        <path
          d="M491.55,251.74l-6.65,2.87c-.16,.07-.34,0-.41-.16s0-.34,.16-.41l6.65-2.87c.16-.07,.34,0,.41,.16s0,.34-.16,.41Z"
        />
      </g>
      <g id="cx">
        <path
          d="M492.96,255l-6.65,2.87c-.16,.07-.34,0-.41-.16-.07-.16,0-.34,.16-.41l6.65-2.87c.16-.07,.34,0,.41,.16s0,.34-.16,.41Z"
        />
      </g>
      <g id="cy">
        <path
          d="M586.21,394.53c-1.23,.53-2.69,.08-3.39-1.09-.77-1.28-.35-2.95,.93-3.72h0c.62-.37,1.35-.48,2.05-.31,.7,.17,1.29,.61,1.67,1.23,.37,.62,.48,1.35,.31,2.05-.18,.7-.61,1.29-1.23,1.67-.11,.06-.21,.12-.32,.17Zm-2.15-4.27c-.98,.59-1.3,1.88-.71,2.86,.59,.98,1.88,1.31,2.86,.71,.48-.29,.81-.74,.95-1.28,.13-.54,.05-1.1-.24-1.58-.29-.48-.74-.81-1.28-.95-.54-.13-1.1-.05-1.58,.24h0Z"
        />
      </g>
      <g id="cz">
        <polygon
          points="583.55 423.18 581.83 424.22 580.71 422.47 579.96 422.95 581.07 424.67 579.53 425.6 579.99 426.36 581.55 425.42 582.64 427.16 583.39 426.68 582.31 424.96 584.01 423.94 583.55 423.18"
        />
        <path
          d="M582.55,427.6l-1.1-1.75-1.56,.94-.78-1.3,1.53-.92-1.1-1.71,1.27-.82,1.12,1.76,1.73-1.04,.78,1.3-1.7,1.02,1.08,1.71-1.27,.82Zm-.9-2.6l1.09,1.73,.22-.14-1.09-1.73,1.71-1.03-.13-.22-1.72,1.03-1.11-1.74-.22,.14,1.11,1.73-1.54,.93,.14,.23,1.55-.93Z"
        />
      </g>
      <g id="da">
        <path
          d="M586.85,287.89l-1.4,.6c-.58,.25-1.26-.03-1.5-.6l-2.88-6.68c-.25-.58,.03-1.26,.6-1.5l1.4-.6c.58-.25,1.26,.03,1.5,.6l2.88,6.68c.25,.58-.03,1.26-.6,1.5Z"
          fill="#919191"
        />
        <path
          d="M586.98,288.18l-1.4,.6c-.74,.32-1.59-.02-1.91-.76l-2.88-6.68c-.32-.74,.02-1.59,.76-1.91l1.4-.6c.74-.32,1.59,.02,1.91,.76l2.88,6.68c.32,.74-.02,1.59-.76,1.91Zm-5.19-8.17c-.42,.18-.61,.67-.43,1.09l2.88,6.68c.18,.42,.67,.61,1.09,.43l1.4-.6c.42-.18,.61-.67,.43-1.09l-2.88-6.68c-.18-.42-.67-.61-1.09-.43l-1.4,.6Z"
        />
      </g>
      <g id="db">
        <path
          d="M597.45,283.31l-1.4,.6c-.58,.25-1.26-.03-1.5-.6l-2.88-6.68c-.25-.58,.03-1.26,.6-1.5l1.4-.6c.58-.25,1.26,.03,1.5,.6l2.88,6.68c.25,.58-.03,1.26-.6,1.5Z"
          fill="#919191"
        />
        <path
          d="M597.58,283.6l-1.4,.6c-.74,.32-1.59-.02-1.91-.76l-2.88-6.68c-.32-.74,.02-1.59,.76-1.91l1.4-.6c.74-.32,1.59,.02,1.91,.76l2.88,6.68c.32,.74-.02,1.59-.76,1.91Zm-5.19-8.17c-.42,.18-.61,.67-.43,1.09l2.88,6.68c.18,.42,.67,.61,1.09,.43l1.4-.6c.42-.18,.61-.67,.43-1.09l-2.88-6.68c-.18-.42-.67-.61-1.09-.43l-1.4,.6Z"
        />
      </g>
      <g id="dc">
        <path
          d="M595.6,276.13l-3.49,1.51c-.16,.07-.34,0-.41-.16s0-.34,.16-.41l3.49-1.51c.16-.07,.34,0,.41,.16,.07,.16,0,.34-.16,.41Z"
        />
      </g>
      <g id="dd">
        <path
          d="M597.82,281.28l-3.49,1.51c-.16,.07-.34,0-.41-.16s0-.34,.16-.41l3.49-1.51c.16-.07,.34,0,.41,.16s0,.34-.16,.41Z"
        />
      </g>
      <g id="de">
        <path
          d="M585,280.71l-3.49,1.51c-.16,.07-.34,0-.41-.16s0-.34,.16-.41l3.49-1.51c.16-.07,.34,0,.41,.16s0,.34-.16,.41Z"
        />
      </g>
      <g id="df">
        <path
          d="M587.22,285.86l-3.49,1.51c-.16,.07-.34,0-.41-.16s0-.34,.16-.41l3.49-1.51c.16-.07,.34,0,.41,.16s0,.34-.16,.41Z"
        />
      </g>
      <g id="dg">
        <path
          d="M588.97,349.35h0l-3.74-8.66c-.11-.26,.01-.54,.26-.65h0c1.59-.69,3.44,.05,4.13,1.64l1.25,2.9c.79,1.82-.07,3.97-1.9,4.77Z"
          fill="#919191"
        />
        <path
          d="M589.09,349.63c-.16,.07-.34,0-.41-.16l-3.74-8.66c-.18-.41,.01-.88,.42-1.06,1.75-.76,3.79,.05,4.54,1.8l1.25,2.9c.86,1.99-.07,4.32-2.07,5.18Zm-3.48-9.31c-.08,.03-.14,.13-.09,.24l3.61,8.36c1.49-.81,2.14-2.64,1.46-4.22l-1.25-2.9c-.62-1.43-2.29-2.1-3.72-1.48Z"
        />
      </g>
      <g id="dh">
        <path
          d="M662.12,275.7l-17.43,7.53c-.32,.14-.68,0-.82-.33l-4.09-9.47c-.14-.32,0-.68,.33-.82l17.43-7.53c.32-.14,.68,0,.82,.33l4.09,9.47c.14,.32,0,.68-.33,.82Zm-17.36,6.13l16.29-7.03-3.59-8.33-16.29,7.03,3.59,8.33Z"
        />
      </g>
      <g id="di">
        <path
          d="M651.34,201.71l10.92,25.29c.45,1.04-.09,2.28-1.19,2.76l-52.5,22.66c-1.02,.44-2.19,.02-2.6-.94l-14.84-34.38,56.37-24.33,3.86,8.93"
          fill="#36abc8"
        />
        <path
          d="M661.44,230.62l-52.5,22.66c-1.5,.65-3.21,0-3.83-1.42l-14.84-34.38c-.21-.48,.01-1.03,.49-1.23l56.37-24.33c.48-.21,1.03,.01,1.23,.49l3.86,8.93c.02,.05,.04,.1,.05,.16l10.85,25.14c.65,1.52-.1,3.31-1.68,3.99Zm-69.07-13.02l14.47,33.51c.21,.48,.82,.68,1.37,.45l52.5-22.66c.62-.27,.94-.97,.7-1.52l-10.92-25.29c-.02-.05-.04-.1-.05-.16l-3.42-7.92-54.64,23.59Z"
        />
      </g>
      <g id="dj">
        <path
          d="M654.44,252.89l-23.54,10.16c-.32,.14-.68,0-.82-.33l-3.96-9.18c-.14-.32,0-.68,.33-.82l23.54-10.16c.32-.14,.68,0,.82,.33l3.96,9.18c.14,.32,0,.68-.33,.82Zm-23.46,8.77l22.39-9.67-3.47-8.03-22.39,9.67,3.47,8.03Z"
        />
      </g>
      <g id="dk">
        <path
          d="M651.38,199.84l5.24-2.26c2.01-.87,4.34,.06,5.21,2.07l34.34,79.55c.65,1.51-.04,3.29-1.57,3.95l-6.83,2.95"
          fill="#36abc8"
        />
        <path
          d="M694.97,284l-6.83,2.95c-.48,.21-1.03-.01-1.23-.49-.21-.48,.01-1.03,.49-1.23l6.83-2.95c1.05-.45,1.53-1.67,1.08-2.71l-34.34-79.55c-.66-1.53-2.44-2.24-3.97-1.58l-5.24,2.26c-.48,.21-1.03-.01-1.23-.49s.01-1.03,.49-1.23l5.24-2.26c2.48-1.07,5.37,.08,6.44,2.56l34.34,79.55c.86,1.99-.06,4.32-2.06,5.18Z"
        />
      </g>
      <g id="dl">
        <path
          d="M634.01,310.3l-6.68,2.88c-1.88,.81-4.07-.06-4.88-1.94l-34.49-79.89c-1.03-2.39,.07-5.17,2.46-6.2l3.51-1.51c.48-.21,1.03,.01,1.23,.49s-.01,1.03-.49,1.23l-3.51,1.51c-1.44,.62-2.1,2.3-1.48,3.73l34.49,79.89c.4,.93,1.49,1.36,2.42,.96l6.68-2.88c.48-.21,1.03,.01,1.23,.49,.21,.48-.01,1.03-.49,1.23Z"
        />
      </g>
      <g id="dm">
        <path
          d="M670.82,253.84l-4.89,2.11c-.16,.07-.34,0-.41-.16l-5.02-11.62c-.07-.16,0-.34,.16-.41l4.89-2.11c.16-.07,.34,0,.41,.16l5.02,11.62c.07,.16,0,.34-.16,.41Zm-4.85,1.41l4.32-1.86-4.77-11.05-4.32,1.86,4.77,11.05Z"
        />
      </g>
      <g id="dn">
        <path
          d="M681.42,249.26l-4.89,2.11c-.16,.07-.34,0-.41-.16l-5.02-11.62c-.07-.16,0-.34,.16-.41l4.89-2.11c.16-.07,.34,0,.41,.16l5.02,11.62c.07,.16,0,.34-.16,.41Zm-4.85,1.41l4.32-1.86-4.77-11.05-4.32,1.86,4.77,11.05Z"
        />
      </g>
      <g id="do">
        <path
          d="M671.37,315.62c-.16,.07-.34,0-.41-.16l-4.49-10.39c-.07-.16,0-.34,.16-.41l22.02-9.5c.16-.07,.34,0,.41,.16s0,.34-.16,.41l-21.73,9.38,4.36,10.11c.07,.16,0,.34-.16,.41Z"
        />
      </g>
      <g id="dp">
        <path
          d="M655.69,304.25c-.08,.03-.17,.04-.25,0l-29.98-13.18c-.16-.07-.23-.25-.16-.41,.07-.16,.25-.23,.41-.16l29.98,13.18c.16,.07,.23,.25,.16,.41-.03,.08-.09,.13-.16,.16Z"
        />
      </g>
      <g id="dq">
        <rect
          x="658.29"
          y="324.33"
          width="26.52"
          height="4"
          transform="translate(-74.34 292.91) rotate(-23.35)"
          fill="#ffd962"
        />
        <path
          d="M684.67,323.25l-24.34,10.51c-.19,.08-.41,0-.49-.19l-1.59-3.68c-.08-.19,0-.41,.19-.49l24.34-10.51c.19-.08,.41,0,.49,.19l1.59,3.68c.08,.19,0,.41-.19,.49Zm-24.3,9.68l23.66-10.22-1.29-2.99-23.66,10.22,1.29,2.99Z"
        />
      </g>
      <g id="dr">
        <path
          d="M713.07,337.91c-.17,.07-.37,.1-.57,.06-.51-.11-.83-.61-.72-1.11,.99-4.6-.57-13.87-1.29-17.64-.23-1.2-.6-2.39-1.09-3.53l-4.81-11.14c-.5-1.17-1.78-2.66-2.88-3.01-.49-.16-.76-.69-.61-1.18,.16-.49,.68-.77,1.18-.61,1.72,.55,3.36,2.5,4.03,4.05l4.81,11.14c.55,1.26,.95,2.58,1.21,3.92,.92,4.83,2.3,13.63,1.28,18.38-.07,.31-.28,.55-.55,.66Z"
        />
      </g>
      <g id="ds">
        <path
          d="M658.15,363.73l-2.69,1.16c-3.99,1.72-10.09-6.27-15.49-13.9-.32-.46-.61-.86-.86-1.2-.56-.77-1.04-1.62-1.43-2.51l-5.51-12.76c-.95-2.2-.83-4.89,.31-6.68,.28-.44,.86-.56,1.29-.29,.44,.28,.57,.86,.29,1.3-.79,1.25-.87,3.32-.17,4.93l5.51,12.76c.33,.76,.74,1.48,1.23,2.15,.25,.35,.54,.76,.87,1.22,6.83,9.64,11.27,14.1,13.22,13.26l2.69-1.16c.48-.21,1.03,.01,1.23,.49,.21,.48-.01,1.03-.49,1.23Z"
        />
      </g>
      <g id="dt">
        <path
          d="M655.33,364.6c-.32,.14-.68,0-.82-.33l-13.2-30.57c-.14-.32,0-.68,.33-.82s.68,0,.82,.33l13.2,30.57c.14,.32,0,.68-.33,.82Z"
        />
      </g>
      <g id="du">
        <path
          d="M709.84,337.2c-.32,.14-.68,0-.82-.33l-11.79-27.31c-.08-.18-.07-.39,.03-.56l.38-.65c.17-.3,.56-.4,.85-.23,.3,.17,.4,.55,.23,.85l-.22,.38,11.67,27.02c.14,.32,0,.68-.33,.82Z"
        />
      </g>
      <g id="dv">
        <path
          d="M620.3,216.67l-24.76,10.69c-.32,.14-.68,0-.82-.33-.14-.32,0-.68,.33-.82l24.19-10.44-4.27-9.88c-.14-.32,0-.68,.33-.82s.68,0,.82,.33l4.51,10.46c.14,.32,0,.68-.33,.82Z"
        />
      </g>
      <g id="dw">
        <path
          d="M606.84,253.51c-.08,.04-.19,.03-.27-.01-.15-.08-.21-.27-.13-.42l12.44-22.87c.08-.15,.27-.21,.42-.13,.15,.08,.21,.27,.13,.42l-12.44,22.87c-.03,.06-.09,.11-.15,.14Z"
        />
      </g>
      <g id="dx">
        <path
          d="M667.52,299.15c-.07,.03-.16,.03-.24,0-.16-.06-.24-.24-.18-.4l12.32-31.44c.06-.16,.24-.24,.4-.18,.16,.06,.24,.24,.18,.4l-12.32,31.44c-.03,.08-.09,.14-.17,.17Z"
        />
      </g>
      <g id="dy">
        <path
          d="M680.08,268.28c-.48,.21-1.03-.01-1.23-.49l-16.63-38.53c-.21-.48,.01-1.03,.49-1.23,.48-.21,1.03,.01,1.23,.49l16.63,38.53c.21,.48-.01,1.03-.49,1.23Z"
        />
      </g>
      <g id="dz">
        <path
          d="M663.2,229.18c-.07,.03-.14,.03-.22,.01l-23.3-7.45c-.16-.05-.25-.23-.2-.39,.05-.16,.23-.25,.39-.2l23.3,7.45c.16,.05,.25,.23,.2,.39-.03,.09-.09,.16-.17,.19Z"
        />
      </g>
      <g id="ea">
        <path
          d="M690.91,267.04l-9.58,4.13c-.16,.07-.34,0-.41-.16s0-.34,.16-.41l9.58-4.13c.16-.07,.34,0,.41,.16s0,.34-.16,.41Z"
        />
      </g>
      <g id="eb">
        <path
          d="M627.21,294.55l-9.23,3.98c-.16,.07-.34,0-.41-.16s0-.34,.16-.41l9.23-3.98c.16-.07,.34,0,.41,.16s0,.34-.16,.41Z"
        />
      </g>
      <g id="ec">
        <path
          d="M603.65,246.14l-6.99,3.02c-.16,.07-.34,0-.41-.16s0-.34,.16-.41l6.99-3.02c.16-.07,.34,0,.41,.16s0,.34-.16,.41Z"
        />
      </g>
      <g id="ed">
        <path
          d="M669.59,217.67l-9.58,4.13c-.16,.07-.34,0-.41-.16s0-.34,.16-.41l9.58-4.13c.16-.07,.34,0,.41,.16s0,.34-.16,.41Z"
        />
      </g>
      <g id="ee">
        <path
          d="M668.39,252.69l-1.4,.6c-.58,.25-1.26-.03-1.5-.6l-2.88-6.68c-.25-.58,.03-1.26,.6-1.5l1.4-.6c.58-.25,1.26,.03,1.5,.6l2.88,6.68c.25,.58-.01,1.25-.6,1.5Z"
          fill="#919191"
        />
        <path
          d="M668.51,252.98l-1.4,.6c-.74,.32-1.59-.02-1.91-.76l-2.88-6.68c-.32-.74,.02-1.59,.76-1.91l1.4-.6c.74-.32,1.59,.02,1.91,.76l2.88,6.68c.32,.74-.02,1.59-.76,1.91Zm-5.19-8.17c-.42,.18-.61,.67-.43,1.09l2.88,6.68c.18,.42,.67,.61,1.09,.43l1.4-.6c.43-.18,.62-.66,.43-1.09l-2.88-6.68c-.18-.42-.67-.61-1.09-.43l-1.4,.6Z"
        />
      </g>
      <g id="ef">
        <path
          d="M678.99,248.11l-1.4,.6c-.58,.25-1.26-.03-1.5-.6l-2.88-6.68c-.25-.58,.03-1.26,.6-1.5l1.4-.6c.58-.25,1.26,.03,1.5,.6l2.88,6.68c.25,.58-.01,1.25-.6,1.5Z"
          fill="#919191"
        />
        <path
          d="M679.11,248.4l-1.4,.6c-.74,.32-1.59-.02-1.91-.76l-2.88-6.68c-.32-.74,.02-1.59,.76-1.91l1.4-.6c.74-.32,1.59,.02,1.91,.76l2.88,6.68c.32,.74-.02,1.59-.76,1.91Zm-5.19-8.17c-.42,.18-.61,.67-.43,1.09l2.88,6.68c.18,.42,.67,.61,1.09,.43l1.4-.6c.43-.18,.62-.66,.43-1.09l-2.88-6.68c-.18-.42-.67-.61-1.09-.43l-1.4,.6Z"
        />
      </g>
      <g id="eg">
        <path
          d="M677.13,240.93l-3.49,1.51c-.16,.07-.34,0-.41-.16-.07-.16,0-.34,.16-.41l3.49-1.51c.16-.07,.34,0,.41,.16s0,.34-.16,.41Z"
        />
      </g>
      <g id="eh">
        <path
          d="M679.36,246.08l-3.49,1.51c-.16,.07-.34,0-.41-.16s0-.34,.16-.41l3.49-1.51c.16-.07,.34,0,.41,.16s0,.34-.16,.41Z"
        />
      </g>
      <g id="ei">
        <path
          d="M666.53,245.51l-3.49,1.51c-.16,.07-.34,0-.41-.16s0-.34,.16-.41l3.49-1.51c.16-.07,.34,0,.41,.16s0,.34-.16,.41Z"
        />
      </g>
      <g id="ej">
        <path
          d="M668.76,250.66l-3.49,1.51c-.16,.07-.34,0-.41-.16s0-.34,.16-.41l3.49-1.51c.16-.07,.34,0,.41,.16s0,.34-.16,.41Z"
        />
      </g>
      <g id="ek">
        <path
          d="M670.51,314.15h0l-3.74-8.66c-.11-.26,.01-.54,.26-.65h0c1.59-.69,3.44,.05,4.13,1.64l1.25,2.9c.79,1.82-.05,3.97-1.9,4.77Z"
          fill="#919191"
        />
        <path
          d="M670.63,314.43c-.16,.07-.34,0-.41-.16l-3.74-8.66c-.18-.41,.01-.88,.42-1.06,1.75-.76,3.79,.05,4.54,1.8l1.25,2.9c.86,1.99-.07,4.32-2.07,5.18Zm-3.48-9.31c-.08,.03-.14,.13-.09,.24l3.61,8.36c1.49-.81,2.14-2.64,1.46-4.22l-1.25-2.9c-.62-1.43-2.29-2.1-3.72-1.48Z"
        />
      </g>
      <g id="el">
        <path
          d="M651.26,141.67l.22-.09c1.77-.77,2.6-2.83,1.83-4.61l-19.5-45.17c-.77-1.77-2.83-2.6-4.61-1.83l-.22,.09c-1.77,.77-2.6,2.83-1.83,4.61l19.5,45.17c.77,1.79,2.83,2.6,4.61,1.83Z"
          fill="#ffd962"
        />
        <path
          d="M651.73,142.14l-.22,.1c-2.09,.9-4.53-.06-5.44-2.16l-19.5-45.17c-.9-2.09,.06-4.53,2.16-5.44l.22-.1c2.09-.9,4.53,.06,5.44,2.16l19.5,45.17c.9,2.09-.06,4.53-2.16,5.44Zm-22.5-51.52c-1.46,.63-2.14,2.33-1.51,3.79l19.5,45.17c.63,1.46,2.33,2.14,3.79,1.5l.22-.1c1.46-.63,2.14-2.33,1.51-3.79l-19.5-45.17c-.63-1.46-2.33-2.14-3.79-1.51l-.22,.1Z"
        />
      </g>
      <g id="em">
        <path
          d="M668.09,181.82l1.06-.46c1.54-.66,2.25-2.46,1.59-4l-14.94-34.6c-.66-1.54-2.46-2.25-4-1.59l-1.06,.46c-1.54,.66-2.25,2.46-1.59,4l14.94,34.6c.66,1.54,2.46,2.25,4,1.59Z"
          fill="#ffd962"
        />
        <path
          d="M669.4,181.93l-1.06,.46c-1.86,.8-4.02-.06-4.82-1.91l-14.94-34.6c-.8-1.86,.06-4.02,1.91-4.82l1.06-.46c1.86-.8,4.02,.06,4.82,1.91l14.94,34.6c.8,1.86-.06,4.02-1.91,4.82Zm-18.41-39.73c-1.23,.53-1.79,1.96-1.26,3.18l14.94,34.6c.53,1.23,1.96,1.79,3.18,1.26l1.06-.46c1.23-.53,1.79-1.96,1.26-3.18l-14.94-34.6c-.53-1.23-1.96-1.79-3.18-1.26l-1.06,.46Z"
        />
      </g>
      <g id="en">
        <path
          d="M633.46,91.33l-6.42,2.77c-.16,.07-.34,0-.41-.16s0-.34,.16-.41l6.42-2.77c.16-.07,.34,0,.41,.16,.07,.16,0,.34-.16,.41Z"
        />
      </g>
      <g id="eo">
        <path
          d="M634.52,93.77l-6.42,2.77c-.16,.07-.34,0-.41-.16s0-.34,.16-.41l6.42-2.77c.16-.07,.34,0,.41,.16s0,.34-.16,.41Z"
        />
      </g>
      <g id="ep">
        <path
          d="M635.92,97.03l-6.42,2.77c-.16,.07-.34,0-.41-.16s0-.34,.16-.41l6.42-2.77c.16-.07,.34,0,.41,.16s0,.34-.16,.41Z"
        />
      </g>
      <g id="eq">
        <path
          d="M637.68,101.11l-6.42,2.77c-.16,.07-.34,0-.41-.16s0-.34,.16-.41l6.42-2.77c.16-.07,.34,0,.41,.16s0,.34-.16,.41Z"
        />
      </g>
      <g id="er">
        <path
          d="M639.44,105.19l-6.42,2.77c-.16,.07-.34,0-.41-.16s0-.34,.16-.41l6.42-2.77c.16-.07,.34,0,.41,.16s0,.34-.16,.41Z"
        />
      </g>
      <g id="es">
        <path
          d="M641.56,110.08l-6.42,2.77c-.16,.07-.34,0-.41-.16-.07-.16,0-.34,.16-.41l6.42-2.77c.16-.07,.34,0,.41,.16s0,.34-.16,.41Z"
        />
      </g>
      <g id="et">
        <path
          d="M644.02,115.79l-6.42,2.77c-.16,.07-.34,0-.41-.16s0-.34,.16-.41l6.42-2.77c.16-.07,.34,0,.41,.16,.07,.16,0,.34-.16,.41Z"
        />
      </g>
      <g id="eu">
        <path
          d="M646.13,120.68l-6.42,2.77c-.16,.07-.34,0-.41-.16-.07-.16,0-.34,.16-.41l6.42-2.77c.16-.07,.34,0,.41,.16s0,.34-.16,.41Z"
        />
      </g>
      <g id="ev">
        <path
          d="M647.89,124.76l-6.42,2.77c-.16,.07-.34,0-.41-.16s0-.34,.16-.41l6.42-2.77c.16-.07,.34,0,.41,.16,.07,.16,0,.34-.16,.41Z"
        />
      </g>
      <g id="ew">
        <path
          d="M649.65,128.83l-6.42,2.77c-.16,.07-.34,0-.41-.16s0-.34,.16-.41l6.42-2.77c.16-.07,.34,0,.41,.16s0,.34-.16,.41Z"
        />
      </g>
      <g id="ex">
        <path
          d="M651.41,132.91l-6.42,2.77c-.16,.07-.34,0-.41-.16-.07-.16,0-.34,.16-.41l6.42-2.77c.16-.07,.34,0,.41,.16,.07,.16,0,.34-.16,.41Z"
        />
      </g>
      <g id="ey">
        <path
          d="M652.82,136.17l-6.42,2.77c-.16,.07-.34,0-.41-.16-.07-.16,0-.34,.16-.41l6.42-2.77c.16-.07,.34,0,.41,.16,.07,.16,0,.34-.16,.41Z"
        />
      </g>
      <g id="ez">
        <path
          d="M653.88,138.62l-6.42,2.77c-.16,.07-.34,0-.41-.16s0-.34,.16-.41l6.42-2.77c.16-.07,.34,0,.41,.16s0,.34-.16,.41Z"
        />
      </g>
      <g id="fa">
        <path
          d="M655.93,143.05l-6.65,2.87c-.16,.07-.34,0-.41-.16s0-.34,.16-.41l6.65-2.87c.16-.07,.34,0,.41,.16,.07,.16,0,.34-.16,.41Z"
        />
      </g>
      <g id="fb">
        <path
          d="M658.63,187.97l-156.42,67.53c-4.23,1.83-9.16-.12-10.99-4.36l-42.92-99.43c-1.83-4.23,.12-9.16,4.36-10.99l156.42-67.53c4.23-1.83,9.16,.12,10.99,4.36l42.92,99.43c1.81,4.24-.13,9.16-4.36,10.99Z"
          fill="#36abc8"
        />
        <path
          d="M659,188.83l-156.42,67.53c-4.71,2.03-10.19-.14-12.22-4.85l-42.92-99.43c-2.03-4.71,.14-10.19,4.85-12.22l156.42-67.53c4.71-2.03,10.19,.14,12.22,4.85l42.92,99.43c2.02,4.71-.16,10.2-4.85,12.22Zm-205.98-47.24c-3.76,1.62-5.49,6-3.87,9.76l42.92,99.43c1.62,3.76,6,5.49,9.76,3.87l156.42-67.53c3.75-1.62,5.48-5.99,3.87-9.76l-42.92-99.42c-1.62-3.76-6-5.49-9.76-3.87l-156.42,67.53Z"
        />
      </g>
      <g id="fc">
        <path
          d="M657.34,146.31l-6.65,2.87c-.16,.07-.34,0-.41-.16-.07-.16,0-.34,.16-.41l6.65-2.87c.16-.07,.34,0,.41,.16,.07,.16,0,.34-.16,.41Z"
        />
      </g>
      <g id="fd">
        <path
          d="M659.1,150.39l-6.65,2.87c-.16,.07-.34,0-.41-.16s0-.34,.16-.41l6.65-2.87c.16-.07,.34,0,.41,.16s0,.34-.16,.41Z"
        />
      </g>
      <g id="fe">
        <path
          d="M660.86,154.46l-6.65,2.87c-.16,.07-.34,0-.41-.16s0-.34,.16-.41l6.65-2.87c.16-.07,.34,0,.41,.16,.07,.16,0,.34-.16,.41Z"
        />
      </g>
      <g id="ff">
        <path
          d="M662.97,159.36l-6.65,2.87c-.16,.07-.34,0-.41-.16s0-.34,.16-.41l6.65-2.87c.16-.07,.34,0,.41,.16s0,.34-.16,.41Z"
        />
      </g>
      <g id="fg">
        <path
          d="M665.08,164.25l-6.65,2.87c-.16,.07-.34,0-.41-.16s0-.34,.16-.41l6.65-2.87c.16-.07,.34,0,.41,.16s0,.34-.16,.41Z"
        />
      </g>
      <g id="fh">
        <path
          d="M666.84,168.32l-6.65,2.87c-.16,.07-.34,0-.41-.16s0-.34,.16-.41l6.65-2.87c.16-.07,.34,0,.41,.16s0,.34-.16,.41Z"
        />
      </g>
      <g id="fi">
        <path
          d="M668.25,171.59l-6.65,2.87c-.16,.07-.34,0-.41-.16s0-.34,.16-.41l6.65-2.87c.16-.07,.34,0,.41,.16,.07,.16,0,.34-.16,.41Z"
        />
      </g>
      <g id="fj">
        <path
          d="M669.66,174.85l-6.65,2.87c-.16,.07-.34,0-.41-.16s0-.34,.16-.41l6.65-2.87c.16-.07,.34,0,.41,.16s0,.34-.16,.41Z"
        />
      </g>
      <g id="fk">
        <path
          d="M671.06,178.11l-6.65,2.87c-.16,.07-.34,0-.41-.16s0-.34,.16-.41l6.65-2.87c.16-.07,.34,0,.41,.16s0,.34-.16,.41Z"
        />
      </g>
      <g id="fl">
        <circle cx="512.11" cy="166.35" r="13.1" />
        <path
          d="M517.43,178.66c-6.79,2.93-14.69-.21-17.63-7-2.93-6.79,.21-14.69,7-17.63,6.79-2.93,14.69,.21,17.63,7,2.93,6.79-.21,14.7-7,17.63Zm-10.38-24.05c-6.47,2.79-9.46,10.33-6.67,16.8,2.79,6.47,10.33,9.46,16.8,6.67,6.47-2.79,9.46-10.33,6.67-16.8-2.79-6.47-10.33-9.46-16.8-6.67Z"
        />
      </g>
      <g id="fm">
        <circle
          cx="584.7"
          cy="135.01"
          r="13.1"
          transform="translate(-5.62 242.81) rotate(-23.35)"
        />
        <path
          d="M590.01,147.32c-6.79,2.93-14.69-.21-17.63-7-2.93-6.79,.21-14.69,7-17.63,6.79-2.93,14.69,.21,17.63,7,2.93,6.79-.21,14.7-7,17.63Zm-10.38-24.05c-6.47,2.79-9.46,10.33-6.67,16.8,2.79,6.47,10.33,9.46,16.8,6.67,6.47-2.79,9.46-10.33,6.67-16.8-2.79-6.47-10.33-9.46-16.8-6.67Z"
        />
      </g>
      <g id="fn">
        <circle cx="507.78" cy="162.38" r="3.3" fill="#fff" />
        <path
          d="M509.21,165.7c-1.83,.79-3.96-.06-4.75-1.88-.79-1.83,.06-3.96,1.88-4.75,1.83-.79,3.96,.06,4.75,1.89,.79,1.83-.06,3.96-1.88,4.75Zm-2.62-6.06c-1.51,.65-2.21,2.41-1.56,3.93,.65,1.51,2.41,2.21,3.93,1.56s2.21-2.41,1.56-3.92c-.65-1.51-2.41-2.21-3.93-1.56Z"
        />
      </g>
      <g id="fo">
        <circle cx="578.72" cy="131.76" r="3.3" fill="#fff" />
        <path
          d="M580.15,135.07c-1.83,.79-3.96-.06-4.75-1.88-.79-1.83,.06-3.96,1.88-4.75,1.83-.79,3.96,.06,4.75,1.89,.79,1.83-.06,3.96-1.88,4.75Zm-2.62-6.06c-1.51,.65-2.21,2.41-1.56,3.93,.65,1.51,2.41,2.21,3.93,1.56,1.51-.65,2.21-2.41,1.56-3.92-.65-1.51-2.41-2.21-3.93-1.56Z"
        />
      </g>
      <g>
        <polyline
          points="664.42 76.48 670.3 153.91 662.57 157.25 656.14 143.4 662.95 140.13 660.44 74.61"
          fill="#ffd962"
        />
        <path
          d="M670.43,154.2l-7.73,3.34c-.16,.07-.34,0-.41-.16l-6.43-13.84c-.07-.16,0-.34,.15-.41l6.62-3.18-2.5-65.32c0-.17,.13-.32,.3-.32s.32,.13,.32,.3l2.51,65.53c0,.12-.06,.24-.18,.29l-6.53,3.14,6.17,13.29,7.25-3.13-5.87-77.21c-.01-.17,.11-.32,.29-.34,.17-.01,.32,.12,.34,.29l5.88,77.43c0,.13-.07,.26-.19,.31Z"
        />
      </g>
      <g id="fp">
        <path
          d="M663.09,157.13l7.73-3.34-5.88-77.43,12.62-3.75,6.35,89.83c.22,3.21-1.61,6.21-4.56,7.48l-9.06,3.91-7.21-16.7Z"
          fill="#ffd962"
        />
        <path
          d="M679.61,170.49l-9.06,3.91c-.32,.14-.68,0-.82-.33l-7.21-16.7c-.14-.32,0-.68,.33-.82l7.33-3.16-5.85-76.98c-.02-.29,.17-.56,.45-.65l12.62-3.75c.18-.05,.38-.02,.53,.09s.25,.28,.27,.47l6.35,89.83c.24,3.47-1.75,6.72-4.93,8.1Zm-8.98,2.51l8.48-3.66c2.7-1.17,4.38-3.93,4.18-6.87l-6.29-89.05-11.39,3.38,5.85,76.93c.02,.27-.13,.52-.38,.62l-7.16,3.09,6.72,15.56Z"
        />
      </g>
      <g id="fq">
        <path
          d="M663.35,157.7c-.32,.14-.68,0-.82-.33l-6.17-14.28c-.14-.32,0-.68,.33-.82l6.16-2.66-2.49-65.1c-.01-.35,.26-.63,.6-.65,.34-.01,.64,.26,.65,.6l2.51,65.53c0,.26-.14,.5-.38,.6l-5.98,2.58,5.92,13.71c.14,.32,0,.68-.33,.82Z"
        />
      </g>
      <g>
        <polyline
          points="679.2 76.32 687.23 68.4 694.28 50.86 681.11 32.87 674.88 31.48 668.4 40.35 680.3 54.56 679.96 63.87 663.99 60.31 655.77 48.88 659.18 43.65 667.56 36.48 667.57 31.49 663.19 29.48 654.5 40.02 655.37 44.31 647.52 57.5 657.8 71 675.49 78.67"
          fill="#ffd962"
        />
        <path
          d="M675.61,78.96c-.08,.03-.17,.03-.25,0l-17.69-7.67s-.09-.06-.12-.1l-10.28-13.51c-.08-.1-.09-.24-.02-.35l7.79-13.08-.85-4.17c-.02-.09,0-.19,.07-.26l8.69-10.54c.09-.11,.24-.14,.37-.09l4.37,2.01c.11,.05,.18,.16,.18,.28v4.99c0,.09-.04,.18-.11,.24l-8.35,7.14-3.26,5.01,8.02,11.17,15.48,3.45,.32-8.82-11.82-14.11c-.09-.11-.1-.27-.01-.39l6.48-8.87c.07-.1,.2-.15,.32-.12l6.22,1.4c.07,.02,.14,.06,.18,.12l13.17,17.99c.06,.09,.08,.2,.04,.3l-7.05,17.54s-.04,.08-.07,.11l-8.03,7.92c-.12,.12-.32,.12-.44,0s-.12-.32,0-.44l7.99-7.87,6.96-17.32-13-17.75-5.91-1.33-6.22,8.51,11.74,14.02c.05,.06,.08,.14,.07,.21l-.34,9.31c0,.09-.05,.18-.12,.24-.08,.05-.17,.08-.26,.06l-15.97-3.55c-.08-.02-.14-.06-.19-.12l-8.22-11.44c-.08-.1-.08-.24,0-.35l3.4-5.23s.04-.05,.06-.07l8.28-7.08v-4.64s-3.97-1.83-3.97-1.83l-8.45,10.24,.84,4.14c.02,.08,0,.16-.04,.22l-7.74,13.01,10.1,13.27,17.62,7.63c.16,.07,.23,.25,.16,.41-.03,.08-.09,.13-.16,.16Z"
        />
      </g>
      <g id="fr">
        <path
          d="M660.08,41.38l-.15,1.34c-.11,.96-.96,1.64-1.9,1.53l-.47-.05c-1.64-.17-3.22,.67-4,2.11l-4.36,8.09c-.87,1.63-.77,3.6,.27,5.13l6.36,9.31c.91,1.34,2.34,2.22,3.94,2.44l11.78,1.63c1.7,.24,3.37-.72,4-2.33l3.62-8.98c.82-2.03,.47-4.35-.88-6.07l-5.71-7.18c-.96-1.22-2.29-2.09-3.81-2.49l-1.63-.43c-.61-.16-1.03-.74-.98-1.39l.2-2.66c.06-.75,.76-1.28,1.5-1.12l2.26,.48c1.6,.35,3.04,1.25,4.04,2.54l9.83,12.57c1.18,1.51,1.48,3.53,.79,5.33l-5.08,13.04c-1.02,2.63-3.72,4.22-6.52,3.81l-14.5-2.06c-1.83-.26-3.46-1.26-4.52-2.78l-9.41-13.47c-1.29-1.86-1.38-4.3-.21-6.24l6.92-11.42c1.18-1.94,3.37-3.05,5.64-2.84l1.35,.13c1.02,.07,1.76,.98,1.65,1.99Z"
          fill="#ffd962"
        />
        <path
          d="M676.7,78.22c-1.1,.48-2.35,.66-3.62,.47l-14.5-2.06c-1.99-.28-3.8-1.39-4.95-3.04l-9.41-13.47c-1.44-2.07-1.52-4.79-.23-6.93l6.92-11.42c1.3-2.14,3.74-3.37,6.23-3.14l1.35,.13c.64,.04,1.23,.34,1.65,.85,.42,.5,.63,1.17,.56,1.83,0,0,0,0,0,0l-.15,1.34c-.14,1.29-1.3,2.23-2.59,2.09l-.47-.05c-1.37-.15-2.73,.57-3.38,1.79l-4.36,8.1c-.76,1.43-.67,3.15,.24,4.49l6.36,9.31c.81,1.19,2.09,1.98,3.5,2.17l11.79,1.63c1.43,.2,2.8-.6,3.33-1.94l3.62-8.98c.73-1.81,.42-3.9-.8-5.45l-5.7-7.18c-.88-1.12-2.09-1.91-3.48-2.27l-1.63-.43c-.9-.24-1.51-1.1-1.45-2.03l.2-2.66c.04-.54,.32-1.04,.75-1.36,.43-.32,.98-.44,1.5-.33l2.26,.48c1.75,.38,3.31,1.37,4.4,2.77l9.83,12.57c1.31,1.68,1.64,3.95,.88,5.94l-5.08,13.04c-.67,1.73-1.98,3.04-3.58,3.73Zm-22.26-37.92c-1,.43-1.87,1.17-2.45,2.13l-6.92,11.42c-1.04,1.72-.97,3.9,.18,5.56l9.41,13.47c.95,1.37,2.45,2.29,4.1,2.52l14.5,2.06c2.52,.37,4.92-1.04,5.85-3.42l5.08-13.04c.61-1.58,.34-3.38-.7-4.72l-9.83-12.57c-.91-1.17-2.21-2-3.68-2.31l-2.26-.48c-.18-.04-.35,0-.49,.11-.15,.11-.23,.27-.25,.46l-.2,2.65c-.02,.34,.2,.65,.52,.73l1.63,.43c1.66,.43,3.09,1.37,4.14,2.71l5.7,7.18c1.5,1.9,1.87,4.46,.97,6.69l-3.61,8.98c-.74,1.87-2.66,2.99-4.67,2.71l-11.78-1.63c-1.76-.24-3.36-1.23-4.37-2.71l-6.36-9.31c-1.17-1.72-1.29-3.94-.31-5.78l4.36-8.1c.9-1.68,2.71-2.64,4.61-2.44l.47,.05c.6,.06,1.15-.38,1.21-.98l.15-1.34c.03-.33-.06-.65-.27-.9-.2-.24-.49-.38-.8-.4l-1.37-.13c-.9-.08-1.79,.07-2.59,.41Zm5.65,1.09h0s0,0,0,0Z"
        />
      </g>
      <g id="fs">
        <path
          d="M678.9,76.83c-.23,.1-.51,.05-.69-.13-.24-.25-.24-.64,0-.88l7.94-7.82,5.94-14.77c.59-1.46,.4-3.1-.49-4.39l-11.41-15.47-2.97-.86c-1.22-.35-2.53-.02-3.41,.88l-6.04,7.23c-.22,.26-.62,.3-.88,.08-.26-.22-.3-.62-.08-.88l6.08-7.27c1.25-1.26,3.03-1.73,4.68-1.25l3.18,.92c.13,.04,.25,.12,.33,.23l11.55,15.66c1.15,1.65,1.38,3.73,.64,5.58l-5.98,14.89c-.03,.08-.08,.15-.14,.21l-8.03,7.92c-.06,.06-.12,.1-.19,.13Z"
        />
      </g>
      <g id="ft">
        <path
          d="M672.47,42.42c-.11,.05-.24,.03-.33-.05-.13-.11-.14-.31-.03-.44l8.21-9.32c.11-.13,.31-.14,.44-.03,.13,.11,.14,.31,.03,.44l-8.21,9.32s-.07,.06-.11,.08Z"
        />
      </g>
      <g id="fu">
        <path
          d="M685.23,59.68c-.11,.05-.24,.03-.33-.05-.13-.12-.14-.31-.03-.44l7.82-8.87c.11-.13,.31-.14,.44-.03,.13,.12,.14,.31,.03,.44l-7.82,8.87s-.07,.06-.11,.08Z"
        />
      </g>
      <g id="fv">
        <path
          d="M659.45,40.7c-.22,.09-.48,.06-.67-.11-.26-.23-.28-.63-.05-.88l7.68-8.54-2.42-.7c-.69-.2-1.45,.03-1.92,.6l-7.65,9.29c-.22,.26-.61,.3-.88,.09-.27-.22-.31-.61-.09-.88l7.65-9.3c.79-.95,2.06-1.34,3.23-1l2.6,.75c.37,.11,.66,.4,.77,.77,.11,.37,.03,.76-.22,1.06l-7.83,8.7c-.06,.07-.14,.12-.22,.16Z"
        />
      </g>
      <g id="fw">
        <path
          d="M643.55,57.22c-.08,.04-.18,.03-.27,0-.15-.08-.21-.27-.13-.42l8.42-16.23s.03-.05,.05-.07l10.81-11.27c.12-.12,.32-.13,.44,0,.12,.12,.13,.32,0,.44l-10.78,11.24-8.39,16.19c-.03,.07-.09,.12-.15,.14Z"
        />
      </g>
      <g id="fx">
        <path
          d="M660.25,44.21c-.23,.1-.5,.06-.68-.13-.25-.24-.25-.64-.01-.88l7.02-7.21c.32-.33,.5-.77,.5-1.23l-.18-3.89c-.01-.34,.25-.64,.6-.65,.34-.02,.64,.25,.65,.6l.18,3.92c-.01,.82-.32,1.56-.85,2.12l-7.02,7.21c-.06,.06-.13,.11-.2,.14Z"
        />
      </g>
      <g id="fy">
        <path
          d="M663.57,60.54c-.13,.06-.29,.02-.38-.11l-8.22-11.44c-.07-.1-.08-.24-.01-.34l2.58-4.27c.09-.15,.28-.2,.43-.11,.15,.09,.2,.28,.11,.43l-2.47,4.09,8.1,11.27c.1,.14,.07,.34-.07,.44-.02,.01-.04,.02-.06,.03Z"
        />
      </g>
      <g id="fz">
        <path
          d="M648.74,57.59c-.1,.04-.22,.03-.32-.04-.14-.11-.16-.3-.05-.44l6.61-8.48c.11-.14,.3-.16,.44-.05,.14,.11,.16,.3,.05,.44l-6.61,8.48s-.08,.07-.12,.09Z"
        />
      </g>
      <g id="ga">
        <path
          d="M673.64,341.86c-2.06-3.43-6.51-4.54-9.94-2.48-3.43,2.06-4.54,6.51-2.48,9.94,.2,.33-5.94,13.52-5.94,13.52-1.18,3.04-1.09,6.43,.22,9.4l15.69,35.36c1.28,2.9,3.49,5.27,6.3,6.76l17.13,9.08c3.91,1.45,7.77-2.27,6.46-6.22l-26.07-64.15s.69-7.78-1.38-11.21Z"
          fill="#36abc8"
        />
        <path
          d="M698.69,424.22c-1.37,.59-2.93,.65-4.39,.1-.04-.01-.08-.03-.11-.05l-17.13-9.08c-2.98-1.58-5.36-4.14-6.72-7.21l-15.69-35.36c-1.43-3.24-1.52-6.84-.24-10.12,2.55-5.48,5.3-11.59,5.81-13.04-2.05-3.82-.76-8.63,2.99-10.89,3.87-2.33,8.91-1.07,11.23,2.8,1.84,3.05,1.76,9.51,1.52,11.54l25.99,63.96c.74,2.23,.16,4.57-1.49,6.16-.53,.51-1.13,.91-1.78,1.19Zm-3.68-1.63c1.48,.52,3.03,.19,4.16-.9,1.14-1.1,1.53-2.66,1.03-4.16l-26.05-64.09c-.07-.17-.09-.35-.05-.53,.12-.96,.47-7.67-1.26-10.55h0c-.87-1.44-2.25-2.47-3.88-2.87-1.63-.41-3.33-.15-4.78,.71-1.45,.87-2.47,2.25-2.87,3.88-.41,1.63-.15,3.33,.71,4.78,.32,.53,.45,.75-5.89,14.4-1.07,2.76-.99,5.85,.23,8.63l15.69,35.35c1.19,2.68,3.28,4.92,5.88,6.31l17.07,9.05Z"
        />
      </g>
      <g id="gb">
        <path
          d="M669.4,350.55c-.99,.43-2.09,.52-3.15,.25-1.28-.32-2.36-1.12-3.05-2.25-.68-1.13-.88-2.46-.56-3.75,.32-1.28,1.12-2.36,2.25-3.05,2.34-1.4,5.39-.65,6.79,1.69,.68,1.13,.88,2.46,.56,3.75-.32,1.28-1.12,2.37-2.25,3.05-.19,.12-.39,.22-.6,.31Zm-3.67-8.52c-.18,.08-.35,.16-.52,.27-.99,.59-1.69,1.54-1.97,2.66-.28,1.12-.11,2.28,.49,3.27,1.23,2.04,3.89,2.71,5.94,1.48,.99-.59,1.69-1.54,1.97-2.66,.28-1.12,.11-2.28-.49-3.27-1.13-1.88-3.46-2.59-5.42-1.74Z"
        />
      </g>
      <g id="gc">
        <path
          d="M687.9,336.55c-1.03-3.87,1.26-7.84,5.13-8.86,3.87-1.03,7.84,1.26,8.86,5.13,.1,.36,13.84,5.15,13.84,5.15,3,1.27,5.38,3.68,6.6,6.71l14.48,35.88c1.19,2.93,1.35,6.18,.47,9.22l-5.4,18.62c-1.68,3.82-7.03,4.01-8.97,.31l-27.93-63.36s-6.04-4.94-7.07-8.8Z"
          fill="#36abc8"
        />
        <path
          d="M729.67,411.83c-.67,.29-1.4,.46-2.16,.48-2.29,.08-4.38-1.13-5.45-3.16l-27.87-63.22c-2.01-1.73-6.3-5.72-7.2-9.13h0c-1.16-4.36,1.44-8.85,5.79-10.01,4.23-1.13,8.59,1.29,9.9,5.41,1.4,.64,7.7,2.92,13.35,4.89,3.26,1.37,5.85,4.01,7.16,7.25l14.48,35.88c1.26,3.1,1.44,6.6,.5,9.84l-5.41,18.62s-.03,.08-.04,.12c-.62,1.4-1.71,2.47-3.06,3.05Zm-33.82-66.8l27.9,63.31c.71,1.35,2.1,2.16,3.69,2.1,1.57-.05,2.89-.94,3.54-2.36l5.39-18.56c.82-2.84,.66-5.9-.44-8.61l-14.48-35.88c-1.12-2.78-3.34-5.04-6.1-6.2-14.15-4.93-14.21-5.16-14.38-5.78-.89-3.36-4.36-5.36-7.72-4.46-3.36,.9-5.36,4.36-4.46,7.72,.82,3.07,5.33,7.1,6.69,8.26,.11,.09,.27,.23,.36,.46Zm6.95-12.46h0s0,0,0,0Z"
        />
      </g>
      <g id="gd">
        <path
          d="M694.66,346.6h0s-18.14,7.6-18.14,7.6c-.48,.2-1.03-.03-1.23-.5-.2-.48,.03-.98,.5-1.23l18.14-7.6c.48-.2,1.03,.03,1.23,.5,.2,.47-.02,1.02-.49,1.22Z"
        />
      </g>
      <g id="ge">
        <circle cx="667.23" cy="388.66" r="4.5" fill="#919191" />
        <path
          d="M669.13,393.08c-2.18,.94-4.77,.15-6.03-1.94-.66-1.1-.86-2.39-.54-3.64,.31-1.25,1.09-2.3,2.19-2.96,1.1-.66,2.39-.85,3.64-.54,1.25,.31,2.3,1.09,2.96,2.19,1.37,2.27,.63,5.23-1.64,6.6-.19,.11-.38,.21-.57,.29Zm-3.55-8.26c-.17,.07-.34,.16-.51,.26h0c-.96,.58-1.63,1.49-1.9,2.57-.27,1.08-.1,2.21,.47,3.17,1.19,1.98,3.77,2.62,5.74,1.43,1.98-1.19,2.62-3.77,1.43-5.74-.58-.96-1.49-1.63-2.57-1.9-.9-.22-1.83-.15-2.66,.21Zm-.67,0h0s0,0,0,0Z"
        />
      </g>
      <g id="gf">
        <path
          d="M671.66,358.44c-.54,.23-1.14,.28-1.72,.14-.7-.17-1.29-.61-1.67-1.23-.77-1.28-.35-2.95,.93-3.72h0c1.29-.76,2.95-.35,3.72,.93,.77,1.28,.35,2.95-.93,3.72-.11,.06-.22,.12-.33,.17Zm-2.14-4.28c-.99,.59-1.3,1.88-.71,2.86,.29,.48,.74,.81,1.28,.95,.54,.13,1.1,.05,1.58-.24,.99-.59,1.3-1.88,.71-2.86-.59-.98-1.88-1.31-2.86-.71h0Z"
        />
      </g>
      <g id="gg">
        <polygon
          points="669.01 387.08 667.28 388.12 666.16 386.37 665.42 386.86 666.52 388.58 664.98 389.5 665.44 390.26 667 389.33 668.1 391.07 668.84 390.59 667.76 388.87 669.47 387.84 669.01 387.08"
        />
        <path
          d="M668,391.5l-1.1-1.75-1.56,.94-.78-1.3,1.53-.92-1.1-1.71,1.27-.82,1.12,1.76,1.73-1.04,.78,1.3-1.7,1.02,1.08,1.71-1.27,.82Zm-.9-2.6l1.09,1.73,.22-.14-1.09-1.73,1.71-1.03-.13-.22-1.72,1.03-1.11-1.74-.22,.14,1.11,1.73-1.54,.93,.13,.22,1.55-.93Z"
        />
      </g>
      <g>
        <g>
          <g>
            <path
              d="M543.03,207.43c.1,.19,21.88-7.25,44.21-21.83l-1.25-5.86c-11.87,12.75-30.51,21.83-49.45,18.42,1.36,3.3,3.63,6.45,6.49,9.27"
              fill="#fff"
            />
            <path
              d="M554.9,202.92c-7.09,3.06-11.71,4.59-11.88,4.55h-.01s0-.01,0-.01c-2.94-2.91-5.19-6.11-6.49-9.28l-.02-.05h.06c20.39,3.68,38.9-7.09,49.42-18.4l.04-.05v.06s1.27,5.88,1.27,5.88h-.02c-12.06,7.88-23.95,13.67-32.36,17.3Zm-11.85,4.49c.29,0,5.75-1.82,13.95-5.47,7.4-3.29,18.65-8.8,30.21-16.35l-1.23-5.77c-5.88,6.3-13.03,11.36-20.76,14.7-.42,.18-.85,.36-1.28,.53-4.39,1.77-8.88,2.95-13.34,3.51-4.73,.59-9.44,.47-14-.34,1.31,3.14,3.54,6.32,6.45,9.2Zm-.02,.02h0s.03-.01,.03-.01h-.03s0,.01,0,.01Z"
            />
          </g>
          <g>
            <path
              d="M566.89,197.79c-13.38,6.74-23.53,10.2-23.98,10.08l-.19-.05-.06-.11c-3-2.97-5.2-6.12-6.54-9.37l-.31-.76,.81,.15c20.22,3.64,38.59-7.06,49.05-18.28l.59-.63,1.49,7-.26,.17c-7.13,4.66-14.23,8.61-20.6,11.81Zm-23.71,9.16c2.26-.63,22.71-7.99,43.56-21.56l-1.01-4.72c-10.56,11.02-28.57,21.29-48.45,18.07,1.29,2.8,3.31,5.62,5.89,8.21Zm-.15,.49l.41-.2-.4,.2h0s0,0,0,0Z"
              fill="#1d1d1b"
            />
            <path
              d="M555,203.39c-7.01,3.03-11.74,4.61-12.09,4.51l-.21-.06-.06-.12c-3-2.98-5.2-6.13-6.54-9.38l-.34-.81,.87,.16c20.21,3.64,38.57-7.05,49.02-18.27l.63-.68v.06s1.51,7.02,1.51,7.02l-.28,.18c-6.4,4.18-13.33,8.15-20.6,11.81v-.03s0,.03,0,.03c-4.36,2.2-8.42,4.06-11.91,5.57Zm-12.25,4.4l.18,.05c.4,.11,10.28-3.19,23.95-10.08,7.27-3.66,14.2-7.64,20.59-11.81l.24-.16-1.48-6.92-.54,.58c-10.46,11.23-28.84,21.94-49.07,18.29l-.75-.13,.29,.7c1.34,3.24,3.54,6.39,6.53,9.36h0s.05,.11,.05,.11Zm11.9-5.26c-6.17,2.66-10.45,4.17-11.46,4.45h-.02s-.01,0-.01,0c-2.57-2.58-4.61-5.42-5.9-8.22l-.03-.06h.06c19.85,3.22,38.03-7.21,48.42-18.05l.04-.04v.06s1.02,4.74,1.02,4.74h-.02c-10.98,7.15-21.7,12.45-28.76,15.64-1.17,.53-2.29,1.02-3.35,1.48Zm-11.46,4.38c1.21-.34,6.89-2.35,14.78-5.92,7.06-3.19,17.77-8.48,28.73-15.62l-.99-4.64c-5.72,5.96-12.98,11-20.47,14.24-.08,.03-.15,.07-.23,.1-4.36,1.86-8.82,3.13-13.26,3.78-4.84,.71-9.69,.69-14.42-.07,1.28,2.77,3.3,5.58,5.85,8.13Zm-.34,.65l.21-.21v.03s.35-.18,.35-.18l.03,.06-.59,.3Z"
            />
          </g>
        </g>
        <g>
          <g>
            <path
              d="M562.38,218.44c-.12-.24,12.53-9.41,25.15-13.22-3.1,13.2-14.05,15.98-25.15,13.23h0Z"
              fill="#fff"
            />
            <path
              d="M577.82,217.91c-1.85,.8-3.91,1.29-6.16,1.46-2.88,.22-6.01-.08-9.3-.89h-.02s0-.03,0-.03c0,0,0-.02,0-.03,.11-.26,3.42-2.68,7.99-5.38,4.21-2.48,10.62-5.86,17.18-7.85l.05-.02v.05c-1.27,5.36-3.88,9.28-7.76,11.65-.63,.39-1.3,.73-1.99,1.03Zm-15.4,.51c4.8,1.18,11.69,1.86,17.36-1.6,3.85-2.36,6.45-6.24,7.7-11.55-6.56,1.99-12.94,5.36-17.15,7.85-4.73,2.79-7.69,5.02-7.92,5.31Z"
            />
          </g>
          <g>
            <path
              d="M578.86,217.88c-4.46,2.25-10.16,2.59-16.59,1l-.32-.08v-.24s-.07-.1-.07-.1l.08-.21c.31-.72,13.22-9.77,25.44-13.46l.74-.23-.18,.76c-1.29,5.47-3.96,9.48-7.94,11.91-.38,.23-.77,.45-1.17,.65Zm-15.55,.32c4.67,1.04,11.01,1.46,16.26-1.74,3.58-2.19,6.05-5.75,7.34-10.58-10.58,3.38-21.03,10.34-23.59,12.32Z"
              fill="#1d1d1b"
            />
            <path
              d="M577.98,218.33c-4.32,1.86-9.73,2.07-15.72,.58l-.34-.08-.02-.26-.06-.11,.09-.22c.31-.72,13.23-9.79,25.46-13.48l.8-.24-.19,.81c-1.29,5.48-3.96,9.49-7.95,11.93-.38,.23-.77,.45-1.17,.65h0c-.29,.15-.59,.29-.89,.42Zm-16,.45l.3,.07c6.4,1.59,12.13,1.24,16.57-1h0c.4-.2,.79-.42,1.17-.65,3.97-2.43,6.64-6.43,7.92-11.89l.16-.7-.69,.21c-12.21,3.69-25.11,12.72-25.42,13.45l-.08,.19,.05,.1h0s.01,.22,.01,.22Zm15.64-1.27c-4.89,2.11-10.37,1.61-14.32,.73l-.07-.02,.05-.04c2.22-1.72,12.74-8.86,23.6-12.33l.06-.02-.02,.06c-1.29,4.84-3.77,8.41-7.35,10.6-.64,.39-1.29,.73-1.96,1.01Zm-14.24,.68c3.93,.87,9.37,1.35,14.21-.74,.66-.29,1.31-.62,1.95-1.01,3.56-2.17,6.02-5.71,7.31-10.51-10.75,3.44-21.14,10.47-23.47,12.25Z"
            />
          </g>
        </g>
        <g>
          <g>
            <path
              d="M542.98,207.52c5.17,5.11,12.24,9.12,19.27,10.86-.12-.24,12.53-9.41,25.15-13.22,1.19-4.95,1.27-11.34-.19-19.45-22.33,14.58-44.13,22.01-44.23,21.82Z"
              fill="#a5191a"
            />
            <path
              d="M562.3,218.43l-.07-.02c-7.03-1.74-14.05-5.7-19.27-10.86h0s-.01-.02-.01-.02l-.09-.18,.13,.13c.29,0,5.76-1.82,13.96-5.47,7.41-3.29,18.67-8.8,30.23-16.35l.04-.03v.05c1.39,7.7,1.46,14.25,.2,19.47v.02s-.02,0-.02,0c-6.57,1.99-12.98,5.37-17.21,7.86-4.83,2.85-7.82,5.11-7.93,5.32l.03,.05Zm-19.26-10.88c5.2,5.13,12.19,9.06,19.17,10.79,.2-.32,3.47-2.71,7.98-5.37,4.21-2.48,10.6-5.86,17.17-7.84,1.25-5.19,1.18-11.71-.19-19.37-21.6,14.1-42.68,21.49-44.13,21.79Z"
            />
          </g>
          <g>
            <path
              d="M563.08,219.05l-.95-.23c-7.06-1.75-14.12-5.71-19.39-10.89l-.08-.02-.09-.18-1.23-2.45,1.78,1.76c2.26-.63,22.89-8.04,43.83-21.71l.57-.37,.12,.67c1.4,7.76,1.46,14.37,.19,19.64l-.06,.25-.25,.07c-11.51,3.48-23.08,11.44-24.74,12.87l.3,.59Zm-19.25-11.32c5.04,4.79,11.65,8.47,18.28,10.16,1.97-1.75,13.7-9.63,24.9-13.08,1.15-4.96,1.1-11.13-.14-18.35-19.48,12.62-38.56,19.93-43.04,21.28Z"
              fill="#1d1d1b"
            />
            <path
              d="M563.14,219.09l-.07-.02-.95-.23c-7.06-1.75-14.13-5.71-19.4-10.89l-.08-.02-.1-.19-1.32-2.63,1.91,1.89c1.22-.34,6.94-2.36,14.89-5.96,7.11-3.21,17.9-8.55,28.92-15.74l.61-.4v.05s.13,.67,.13,.67c1.4,7.77,1.46,14.38,.19,19.65l-.06,.27-.26,.08c-11.14,3.37-22.7,11.13-24.71,12.85l.32,.63Zm-20.45-11.22l.08,.03c5.26,5.17,12.32,9.14,19.37,10.88l.88,.22-.28-.55,.02-.02c1.96-1.69,13.58-9.5,24.76-12.88l.23-.07,.06-.23c1.27-5.27,1.21-11.87-.19-19.63l-.11-.62-.53,.34c-11.02,7.2-21.81,12.54-28.93,15.75-7.99,3.61-13.73,5.64-14.92,5.97h-.02s-.01,0-.01,0l-1.64-1.62,1.23,2.44Zm19.43,10.04h-.02c-6.6-1.68-13.26-5.39-18.29-10.17l-.04-.04,.05-.02c4.03-1.22,23.15-8.4,43.04-21.28l.04-.03v.05c1.25,7.23,1.29,13.41,.15,18.37v.02s-.02,0-.02,0c-10.88,3.35-22.64,11.08-24.89,13.08h-.01Zm-18.23-10.16c5.01,4.75,11.65,8.43,18.21,10.11,2.28-2.02,14.02-9.72,24.89-13.07,1.14-4.94,1.09-11.09-.14-18.28-19.79,12.82-38.82,19.98-42.96,21.24Z"
            />
          </g>
        </g>
        <g>
          <g>
            <path
              d="M562.44,218.28c-2.04-.49-3.83-1.1-5.81-1.94,.05-5.4,14.03-14.03,17.82-10.61l-1.8-.75c2.33-4.1,8.49-5.2,13.03,.7-11.96,4.1-23.36,12.38-23.24,12.61Z"
              fill="#e20613"
            />
            <path
              d="M562.5,218.32l-.07-.02c-1.96-.47-3.75-1.07-5.82-1.95h-.02s0-.03,0-.03c.03-3.35,5.41-7.95,10.41-10.15,.04-.02,.09-.04,.13-.06,2.18-.94,4.07-1.34,5.49-1.18,1.13-1.97,3.14-3.24,5.39-3.4,2.78-.19,5.52,1.26,7.69,4.09l.03,.04h-.04c-6.24,2.15-12.15,5.37-16,7.68-4.39,2.64-7.11,4.7-7.22,4.9l.03,.05Zm-5.84-2.01c2.04,.87,3.82,1.46,5.76,1.93,.19-.29,3.08-2.43,7.27-4.94,3.85-2.31,9.73-5.5,15.95-7.64-2.16-2.79-4.86-4.22-7.61-4.03-2.22,.15-4.2,1.4-5.32,3.34h.01c.73,.1,1.32,.35,1.76,.74l.14,.13-1.92-.81c-1.41-.18-3.32,.21-5.53,1.16-.04,.02-.09,.04-.13,.06-4.98,2.19-10.32,6.75-10.37,10.07Zm16.3-11.24l1.3,.54c-.35-.26-.79-.45-1.3-.54Z"
            />
          </g>
          <g>
            <path
              d="M562.86,218.61l-.47-.11c-1.97-.47-3.77-1.08-5.85-1.96l-.14-.06v-.15c.03-3.42,5.47-8.1,10.53-10.32,2.2-.97,4.12-1.39,5.59-1.26,1.17-1.97,3.21-3.23,5.48-3.39,2.85-.2,5.64,1.28,7.86,4.17l.19,.25-.3,.1c-11.32,3.88-22.02,11.45-23.05,12.42l.15,.31Zm-6-2.42c1.95,.82,3.65,1.39,5.5,1.84,1.29-1.27,11.93-8.62,22.95-12.47-2.09-2.6-4.67-3.93-7.28-3.75-2.06,.14-3.92,1.26-5.03,3.01,.64,.12,1.18,.37,1.59,.74l.98,.88-2.95-1.23c-1.39-.17-3.3,.24-5.52,1.21-4.86,2.14-10.07,6.53-10.25,9.77Z"
              fill="#1d1d1b"
            />
            <path
              d="M562.92,218.65l-.54-.13c-1.97-.47-3.78-1.08-5.85-1.96l-.16-.07v-.17c.03-3.43,5.48-8.12,10.55-10.35,.04-.02,.09-.04,.13-.06,2.12-.91,4-1.33,5.46-1.21,1.18-1.96,3.23-3.23,5.49-3.39,2.86-.2,5.66,1.29,7.89,4.18l.22,.28-.34,.12c-11.18,3.83-21.82,11.29-23.02,12.4l.17,.35Zm-6.48-2.2l.12,.05c2.07,.88,3.88,1.48,5.84,1.95l.4,.1-.13-.26,.02-.02c1.12-1.05,11.82-8.57,23.06-12.43l.25-.09-.16-.21c-2.21-2.88-4.99-4.35-7.83-4.16-2.25,.16-4.29,1.42-5.45,3.37v.02s-.03,0-.03,0c-1.45-.13-3.33,.28-5.45,1.2-.04,.02-.09,.04-.13,.06-5.05,2.22-10.48,6.88-10.51,10.29v.13Zm5.93,1.6h-.02c-1.85-.46-3.55-1.02-5.51-1.85h-.02s0-.03,0-.03c.09-1.51,1.29-3.4,3.38-5.32,1.93-1.77,4.44-3.4,6.89-4.48,.04-.02,.09-.04,.13-.06,2.15-.93,4.02-1.33,5.4-1.16h0s2.77,1.16,2.77,1.16l-.84-.75c-.4-.36-.93-.61-1.58-.73h-.05s.03-.05,.03-.05c1.11-1.75,3-2.88,5.05-3.02,2.62-.18,5.21,1.16,7.31,3.76l.03,.04-.04,.02c-1.52,.53-3.04,1.13-4.53,1.77-9.13,3.94-17.23,9.51-18.41,10.68h-.01Zm-5.48-1.88c1.94,.81,3.62,1.38,5.46,1.83,1.43-1.39,12.11-8.67,22.91-12.45-2.08-2.57-4.64-3.88-7.22-3.7-2.02,.14-3.87,1.24-4.97,2.95,.63,.13,1.16,.38,1.56,.74l1.12,1.01-3.12-1.31c-1.37-.17-3.23,.23-5.36,1.16-.04,.02-.09,.04-.13,.06-2.44,1.07-4.94,2.7-6.87,4.47-2.07,1.9-3.27,3.76-3.36,5.25Z"
            />
          </g>
        </g>
        <g>
          <g>
            <path
              d="M572.01,204.94c-4.8-4.2-12.36,.75-11.34,5.33,3.29-2.85,8.06-5.23,11.34-5.33Z"
              fill="#7c1615"
            />
            <path
              d="M560.66,210.33v-.05c-.48-2.07,.82-4.41,3.21-5.84,1.25-.74,2.69-1.14,4.04-1.12,1.53,.03,2.96,.58,4.12,1.6l.06,.05h-.08c-3.1,.09-7.86,2.33-11.32,5.32l-.04,.04Zm4.19-6.31c-.33,.14-.65,.3-.94,.48-2.35,1.4-3.63,3.68-3.21,5.71,3.43-2.96,8.13-5.17,11.23-5.3-2.28-1.95-5-1.8-7.09-.9Z"
            />
          </g>
          <g>
            <path
              d="M572.59,205.15l-.57,.02c-3.06,.09-7.77,2.3-11.19,5.27l-.28,.25-.08-.37c-.48-2.15,.85-4.58,3.31-6.04,2.25-1.34,5.64-1.91,8.39,.5l.43,.38Zm-6.82,1.46c2.01-1.01,4.01-1.68,5.66-1.85-2.49-1.83-5.43-1.28-7.42-.1-2.15,1.28-3.38,3.32-3.17,5.18,1.5-1.25,3.22-2.37,4.94-3.23Z"
              fill="#1d1d1b"
            />
            <path
              d="M560.52,210.74l-.09-.42c-.48-2.16,.85-4.61,3.33-6.08,2.27-1.35,5.66-1.92,8.43,.5l.49,.43-.65,.02c-3.06,.09-7.76,2.3-11.17,5.26l-.32,.28Zm4.24-6.94c-.34,.15-.67,.31-.97,.49-2.45,1.46-3.78,3.87-3.3,6.01l.07,.31,.24-.21c3.43-2.97,8.14-5.19,11.22-5.28h.49s-.37-.34-.37-.34c-2.37-2.07-5.21-1.93-7.38-.99Zm-3.95,6.1v-.06c-.22-1.89,1.03-3.94,3.18-5.21,1.96-1.17,4.95-1.75,7.46,.1l.07,.05h-.08c-1.6,.17-3.6,.83-5.64,1.86h0c-1.76,.89-3.47,2-4.93,3.23l-.05,.04Zm4.11-5.67c-.32,.14-.62,.29-.9,.46-2.11,1.25-3.34,3.24-3.16,5.09,1.45-1.21,3.15-2.32,4.9-3.2h0c2.01-1.01,3.99-1.67,5.58-1.85-2.11-1.51-4.55-1.31-6.42-.5Z"
            />
          </g>
        </g>
      </g>
      <g>
        <g id="gh">
          <polyline
            points="476.53 160.94 443.75 162.08 436.77 172.93 474.78 170.02"
            fill="#fff"
          />
          <path
            d="M475.28,170.39c-.1,.14-.26,.23-.45,.24l-38.01,2.92c-.24,.02-.46-.1-.58-.3-.12-.2-.12-.46,.01-.65l6.98-10.85c.12-.17,.3-.28,.5-.29l32.78-1.14c.34-.01,.63,.26,.64,.6,.01,.34-.26,.63-.6,.64l-32.46,1.12-6.13,9.53,36.77-2.82c.34-.03,.64,.23,.67,.57,.01,.16-.04,.31-.12,.42Z"
          />
        </g>
        <g id="gi">
          <path
            d="M477.67,116.67l-33.03,55.49c-.18,.3-.57,.4-.87,.22l-6.2,.33c-.3-.18-1.51,.02-1.33-.29l35.69-59.17c.18-.3,.57-.4,.87-.22l4.67,2.78c.29,.17,.4,.57,.21,.86Z"
          />
          <path
            d="M444.84,172.41c-.13,.17-.3,.28-.51,.34-.21,.06-.44,.04-.64-.05l-6.12,.33c-.06,0-.12-.01-.17-.04-.08-.04-.38-.04-.55-.05-.45-.01-.77-.02-.9-.27-.07-.12-.06-.27,.01-.39l35.69-59.18c.13-.21,.33-.37,.58-.43,.24-.06,.5-.02,.71,.1l4.67,2.78c.21,.12,.37,.33,.43,.58,.06,.25,.02,.5-.12,.71l-33.03,55.48s-.04,.06-.06,.09Zm-7.22-.02l6.13-.33c.06,0,.12,.01,.17,.04,.08,.05,.17,.06,.25,.04,.08-.02,.15-.08,.19-.15l33.03-55.49s0,0,0,0c.04-.07,.06-.15,.04-.23-.02-.08-.07-.15-.14-.19l-4.67-2.78c-.08-.05-.16-.06-.25-.04-.08,.02-.15,.08-.2,.15l-35.52,58.89c.07,0,.14,0,.2,0,.28,0,.56,.01,.75,.09Z"
          />
        </g>
        <g id="gj">
          <polygon
            points="482.68 140.66 483.04 138.27 485.39 137.75 486.01 135.42 488.39 135.15 489.25 132.9 491.66 132.88 492.75 130.73 495.14 130.96 496.45 128.93 498.81 129.41 500.32 127.53 502.61 128.27 504.32 126.55 506.52 127.52 508.39 125.99 510.49 127.18 512.5 125.85 514.46 127.25 516.6 126.15 518.42 127.75 520.66 126.88 522.28 128.66 524.61 128.03 526.05 129.96 528.42 129.57 529.64 131.65 532.05 131.52 533.04 133.71 535.45 133.83 536.21 136.12 538.6 136.48 539.12 138.83 541.45 139.45 541.73 141.84 543.97 142.69 543.99 145.1 546.14 146.19 545.9 148.59 547.94 149.89 547.46 152.25 549.34 153.76 548.61 156.06 550.32 157.76 549.35 159.96 550.88 161.83 549.69 163.93 551.02 165.94 549.62 167.9 550.71 170.06 549.12 171.86 549.99 174.1 548.21 175.72 548.84 178.05 546.91 179.49 547.3 181.86 545.22 183.08 545.35 185.49 543.16 186.48 543.04 188.89 540.75 189.65 540.39 192.04 538.04 192.56 537.42 194.89 535.03 195.17 534.17 197.42 531.76 197.44 530.68 199.59 528.28 199.36 526.98 201.38 524.62 200.9 523.11 202.78 520.81 202.05 519.11 203.76 516.9 202.8 515.04 204.33 512.94 203.13 510.93 204.46 508.97 203.06 506.83 204.16 505.01 202.56 502.77 203.43 501.15 201.65 498.82 202.28 497.38 200.35 495.01 200.74 493.79 198.66 491.38 198.79 490.39 196.6 487.97 196.49 487.22 194.19 484.83 193.83 484.31 191.48 481.98 190.86 481.7 188.47 479.45 187.61 479.44 185.21 477.29 184.12 477.51 181.72 475.49 180.42 475.97 178.06 474.09 176.55 474.82 174.25 473.11 172.55 474.08 170.35 472.54 168.48 473.74 166.38 472.41 164.37 473.81 162.41 472.71 160.27 474.31 158.45 473.44 156.21 475.22 154.59 474.59 152.26 476.52 150.82 476.13 148.45 478.21 147.23 478.08 144.82 480.27 143.83 480.38 141.41 482.68 140.66"
            fill="#fff"
          />
          <path
            d="M543.54,189.26c-.07,.1-.18,.17-.3,.21l-1.93,.64-.3,2.01c-.04,.25-.23,.46-.48,.51l-1.98,.44-.52,1.96c-.07,.25-.27,.43-.53,.46l-2.02,.24-.73,1.9c-.09,.24-.32,.4-.57,.4l-2.03,.02-.91,1.81c-.12,.23-.36,.36-.61,.34l-2.02-.19-1.1,1.7c-.14,.24-.4,.32-.65,.27l-1.99-.41-1.27,1.59c-.16,.2-.43,.28-.67,.2l-1.94-.61-1.43,1.44c-.18,.18-.45,.23-.69,.13l-1.87-.81-1.57,1.29c-.2,.16-.48,.19-.7,.06l-1.76-1.01-1.69,1.12c-.21,.14-.49,.14-.7-.01l-1.66-1.18-1.8,.93c-.23,.12-.5,.08-.7-.09l-1.53-1.35-1.89,.73c-.24,.09-.51,.03-.68-.16l-1.37-1.5-1.96,.53c-.25,.07-.51-.02-.66-.23l-1.21-1.63-2,.33c-.25,.04-.5-.08-.63-.3l-1.03-1.75-2.03,.11c-.26,.01-.49-.13-.6-.36l-.84-1.85-2.04-.09c-.26-.01-.48-.18-.56-.43l-.64-1.93-2-.31c-.25-.04-.46-.23-.51-.48l-.44-1.98-1.96-.52c-.25-.07-.43-.27-.46-.53l-.24-2.02-1.9-.73c-.24-.09-.4-.32-.4-.58v-2.02s-1.82-.91-1.82-.91c-.23-.12-.36-.36-.34-.61l.18-2.03-1.7-1.1c-.22-.14-.32-.4-.27-.65l.41-1.99-1.58-1.27c-.2-.16-.28-.43-.2-.67l.61-1.94-1.44-1.43c-.18-.18-.23-.46-.13-.69l.81-1.86-1.3-1.57c-.16-.2-.19-.48-.06-.7l1.01-1.76-1.12-1.69c-.14-.21-.14-.49,.01-.7l1.18-1.66-.93-1.8c-.12-.23-.1-.5,.09-.7l1.35-1.53-.73-1.89c-.09-.24-.03-.52,.16-.68l1.5-1.37-.53-1.96c-.07-.25,.02-.51,.23-.66l1.63-1.21-.33-2c-.04-.25,.08-.5,.3-.63l1.75-1.03-.11-2.03c-.01-.26,.13-.49,.36-.6l1.85-.84,.09-2.04c.01-.26,.18-.48,.43-.56l1.93-.64,.3-2.01c.04-.25,.23-.46,.48-.51l1.98-.44,.52-1.96c.07-.25,.28-.43,.53-.46l2.01-.23,.73-1.9c.09-.24,.32-.4,.57-.4l2.03-.02,.91-1.81c.11-.23,.36-.36,.61-.34l2.02,.19,1.11-1.71c.13-.23,.4-.32,.65-.27l1.99,.41,1.27-1.59c.16-.2,.43-.28,.67-.2l1.93,.62,1.44-1.45c.18-.18,.46-.23,.69-.13l1.86,.81,1.57-1.29c.2-.16,.48-.19,.7-.06l1.77,1,1.69-1.12c.21-.14,.49-.14,.7,.01l1.66,1.18,1.8-.93c.23-.12,.5-.08,.7,.09l1.53,1.35,1.89-.73c.24-.09,.51-.03,.68,.16l1.37,1.5,1.96-.53c.25-.07,.51,.02,.66,.23l1.21,1.63,2-.33c.25-.04,.5,.08,.63,.3l1.04,1.75,2.03-.11c.26-.01,.49,.13,.6,.36l.84,1.85,2.03,.1c.26,.01,.48,.18,.56,.42l.65,1.93,2.01,.31c.25,.04,.46,.23,.51,.48l.44,1.98,1.96,.52c.25,.07,.43,.27,.46,.53l.24,2.02,1.89,.72c.24,.09,.4,.32,.4,.58l.02,2.03,1.81,.91c.23,.12,.36,.36,.34,.62l-.2,2.02,1.72,1.1c.22,.14,.33,.4,.27,.65l-.41,1.99,1.59,1.27c.2,.16,.28,.43,.2,.67l-.61,1.94,1.44,1.43c.18,.18,.23,.46,.13,.69l-.81,1.86,1.29,1.57c.16,.2,.19,.48,.06,.7l-1,1.78,1.12,1.69c.14,.21,.14,.49-.01,.7l-1.18,1.66,.93,1.81c.12,.23,.1,.49-.09,.69l-1.34,1.52,.73,1.89c.09,.24,.02,.51-.16,.68l-1.5,1.37,.53,1.96c.07,.25-.02,.51-.23,.66l-1.63,1.21,.33,2c.04,.25-.08,.5-.3,.63l-1.75,1.03,.11,2.03c.01,.26-.13,.49-.36,.6l-1.85,.84-.1,2.03c0,.13-.05,.25-.13,.34Zm-3.28,.02c.07-.1,.18-.17,.3-.21l1.88-.63,.1-1.98c.01-.23,.15-.44,.36-.54l1.81-.82-.11-1.98c-.01-.23,.1-.45,.3-.57l1.71-1.01-.32-1.95c-.04-.23,.05-.46,.24-.6l1.59-1.19-.52-1.92c-.06-.23,.01-.47,.18-.62l1.46-1.34-.72-1.85c-.08-.22-.06-.46,.11-.64l1.31-1.48-.91-1.77c-.11-.21-.09-.45,.05-.64l1.15-1.62-1.09-1.65c-.13-.2-.14-.45-.02-.65l.98-1.74-1.26-1.53c-.15-.18-.18-.43-.09-.64l.8-1.82-1.4-1.4c-.16-.16-.22-.41-.15-.63l.6-1.9-1.55-1.25c-.18-.15-.27-.38-.22-.61l.4-1.94-1.68-1.07c-.2-.13-.31-.35-.28-.59l.2-1.98-1.77-.89c-.21-.1-.34-.32-.34-.55l-.02-1.98-1.84-.7c-.22-.08-.37-.28-.4-.51l-.23-1.97-1.92-.51c-.22-.06-.4-.24-.45-.47l-.43-1.93-1.96-.3c-.23-.04-.42-.2-.5-.42l-.63-1.88-1.98-.1c-.23-.01-.44-.15-.54-.36l-.82-1.81-1.98,.11c-.23,.01-.45-.1-.57-.3l-1.01-1.71-1.95,.32c-.23,.04-.46-.06-.6-.24l-1.19-1.59-1.92,.52c-.22,.06-.46,0-.62-.18l-1.34-1.46-1.85,.72c-.22,.08-.46,.04-.64-.11l-1.49-1.32-1.76,.91c-.21,.11-.46,.09-.65-.05l-1.62-1.15-1.65,1.09c-.2,.13-.45,.14-.65,.02l-1.74-.98-1.53,1.26c-.18,.15-.43,.18-.64,.09l-1.82-.8-1.4,1.41c-.16,.17-.41,.23-.63,.15l-1.89-.6-1.25,1.55c-.15,.18-.38,.27-.61,.22l-1.94-.4-1.08,1.67c-.12,.21-.35,.3-.58,.28l-1.97-.19-.89,1.77c-.1,.21-.32,.34-.55,.34l-1.99,.02-.71,1.86c-.08,.22-.28,.37-.51,.4l-1.96,.22-.51,1.92c-.06,.22-.24,.4-.47,.45l-1.93,.43-.3,1.96c-.04,.23-.2,.42-.42,.5l-1.89,.62-.09,1.99c-.01,.23-.15,.44-.37,.54l-1.81,.82,.11,1.98c.01,.23-.11,.45-.3,.57l-1.71,1.01,.32,1.95c.04,.23-.06,.46-.24,.6l-1.59,1.19,.52,1.92c.06,.23,0,.47-.18,.62l-1.46,1.34,.72,1.85c.08,.22,.06,.46-.11,.64l-1.32,1.49,.91,1.76c.11,.21,.09,.46-.05,.65l-1.15,1.62,1.09,1.65c.13,.2,.14,.45,.02,.65l-.99,1.72,1.27,1.54c.15,.18,.18,.43,.09,.65l-.8,1.82,1.4,1.4c.16,.16,.22,.41,.16,.63l-.6,1.9,1.55,1.25c.18,.15,.27,.38,.22,.61l-.4,1.94,1.66,1.07c.19,.13,.3,.35,.28,.58l-.18,1.98,1.77,.89c.21,.11,.34,.32,.34,.55v1.97s1.86,.71,1.86,.71c.22,.08,.37,.28,.4,.51l.23,1.97,1.92,.51c.22,.06,.4,.24,.45,.47l.43,1.93,1.96,.3c.23,.04,.42,.2,.5,.42l.62,1.89,1.99,.09c.23,.01,.44,.15,.54,.36l.82,1.81,1.98-.11c.23-.01,.45,.1,.57,.3l1.01,1.71,1.95-.32c.23-.04,.46,.06,.6,.24l1.19,1.59,1.92-.52c.22-.06,.46,0,.62,.18l1.34,1.46,1.85-.72c.22-.08,.46-.04,.64,.11l1.49,1.32,1.76-.91c.21-.11,.46-.09,.65,.05l1.62,1.15,1.65-1.09c.2-.13,.45-.14,.65-.02l1.72,.99,1.53-1.26c.18-.15,.43-.18,.64-.09l1.83,.79,1.4-1.41c.16-.16,.41-.22,.63-.15l1.9,.6,1.25-1.55c.15-.18,.38-.27,.61-.22l1.94,.4,1.07-1.66c.13-.22,.35-.3,.58-.28l1.97,.19,.89-1.77c.11-.21,.32-.34,.55-.34l1.99-.02,.71-1.86c.08-.22,.28-.37,.51-.4l1.97-.23,.51-1.92c.06-.22,.24-.4,.47-.45l1.93-.43,.3-1.96c.02-.1,.06-.2,.12-.28Z"
          />
        </g>
        <g id="gk">
          <path
            d="M570.16,76.16l63.08,13.83c.34,.08,.68-.14,.76-.48l1.16-5.31c.08-.34-.14-.68-.48-.76l-63.08-13.83c-.34-.08-.68,.14-.76,.48l-1.16,5.31c-.06,.35,.15,.69,.48,.76Z"
          />
          <path
            d="M633.27,90.31s-.07,0-.11-.02l-63.07-13.83c-.5-.1-.83-.6-.73-1.12l1.16-5.32c.12-.52,.63-.84,1.13-.72l63.07,13.83c.25,.06,.47,.21,.6,.42,.13,.21,.18,.46,.12,.71l-1.16,5.3c-.11,.48-.55,.79-1.02,.74Zm-61.79-20.4c-.07,0-.14,0-.2,.05-.07,.05-.12,.12-.14,.21l-1.16,5.3c-.03,.17,.08,.35,.24,.38h0s63.07,13.83,63.07,13.83c.17,.05,.35-.07,.39-.25l1.16-5.3c.02-.08,0-.17-.04-.24-.05-.07-.12-.13-.21-.15l-63.07-13.83s-.03,0-.04,0Z"
          />
        </g>
        <g id="gl">
          <polyline
            points="605.75 103.45 623.2 87.79 633.23 90 611.79 110.25"
            fill="#fff"
          />
          <path
            d="M611.73,110.87c-.14-.01-.28-.08-.39-.19-.24-.25-.22-.64,.02-.88l20.59-19.44-8.57-1.89-17.21,15.45c-.26,.23-.65,.21-.88-.05-.23-.26-.21-.65,.05-.88l17.45-15.66c.15-.13,.36-.19,.55-.14l10.03,2.21c.23,.05,.4,.22,.47,.44,.06,.22,0,.46-.17,.62l-21.44,20.25c-.14,.13-.32,.18-.49,.17Z"
          />
        </g>
        <g id="gm">
          <circle cx="512.59" cy="165.41" r="13.03" />
          <path
            d="M523.22,173.47c-4.44,5.86-12.82,7.02-18.68,2.58s-7.02-12.82-2.58-18.68c4.44-5.86,12.82-7.02,18.68-2.58,5.86,4.44,7.02,12.82,2.58,18.68Zm-20.76-15.73c-4.23,5.59-3.13,13.58,2.46,17.81,5.59,4.23,13.58,3.13,17.81-2.46,4.23-5.59,3.13-13.58-2.46-17.81-5.59-4.23-13.58-3.13-17.81,2.46Z"
          />
        </g>
        <g id="gn">
          <polygon
            points="586.7 96.42 588.88 95.38 590.62 97.04 592.9 96.24 594.46 98.07 596.82 97.51 598.17 99.5 600.57 99.19 601.72 101.3 604.14 101.24 605.06 103.47 607.46 103.66 608.15 105.96 610.52 106.41 610.96 108.78 613.27 109.47 613.47 111.88 615.7 112.8 615.64 115.21 617.75 116.36 617.44 118.75 619.42 120.12 618.87 122.47 620.69 124.03 619.89 126.31 621.55 128.05 620.52 130.24 621.98 132.14 620.72 134.21 621.99 136.26 620.52 138.18 621.56 140.36 619.89 142.1 620.7 144.39 618.87 145.94 619.42 148.3 617.44 149.66 617.75 152.06 615.64 153.2 615.7 155.62 613.47 156.54 613.27 158.95 610.97 159.63 610.53 162 608.16 162.44 607.46 164.75 605.06 164.95 604.13 167.18 601.73 167.11 600.58 169.23 598.18 168.92 596.82 170.91 594.47 170.35 592.91 172.17 590.62 171.37 588.88 173.03 586.69 172 584.79 173.46 582.73 172.2 580.68 173.47 578.76 172 576.58 173.04 574.83 171.38 572.55 172.18 570.99 170.35 568.64 170.91 567.28 168.92 564.88 169.23 563.73 167.12 561.32 167.18 560.39 164.95 557.99 164.76 557.3 162.44 554.94 162.01 554.5 159.64 552.19 158.94 551.99 156.54 549.76 155.62 549.83 153.21 547.71 152.06 548.01 149.67 546.03 148.3 546.59 145.95 544.76 144.39 545.57 142.11 543.9 140.37 544.94 138.18 543.47 136.28 544.73 134.21 543.47 132.16 544.94 130.24 543.9 128.06 545.56 126.32 544.76 124.03 546.58 122.48 546.03 120.12 548.02 118.76 547.71 116.36 549.81 115.22 549.76 112.8 551.98 111.88 552.18 109.47 554.49 108.79 554.93 106.42 557.3 105.98 557.99 103.67 560.4 103.47 561.32 101.24 563.73 101.3 564.88 99.19 567.27 99.5 568.63 97.51 570.99 98.07 572.55 96.24 574.83 97.05 576.57 95.38 578.76 96.42 580.66 94.95 582.73 96.21 584.78 94.95 586.7 96.42"
            fill="#fff"
          />
          <path
            d="M580.61,174.09c-.11-.01-.22-.05-.31-.12l-1.62-1.24-1.84,.88c-.23,.11-.51,.07-.7-.11l-1.47-1.4-1.93,.68c-.24,.09-.51,.01-.68-.18l-1.31-1.54-1.99,.47c-.25,.06-.51-.04-.66-.25l-1.14-1.67-2.02,.26c-.25,.03-.5-.09-.63-.32l-.96-1.78-2.04,.05c-.26,0-.49-.15-.59-.38l-.78-1.88-2.03-.17c-.25-.03-.47-.2-.55-.44l-.58-1.95-1.99-.36c-.25-.05-.45-.24-.5-.5l-.37-2-1.95-.59c-.24-.07-.42-.29-.44-.54l-.17-2.03-1.88-.78c-.24-.1-.39-.33-.38-.59l.06-2.02-1.79-.97c-.23-.12-.35-.37-.32-.63l.26-2.02-1.67-1.15c-.21-.15-.31-.41-.25-.66l.47-1.98-1.54-1.31c-.19-.17-.27-.44-.18-.68l.68-1.92-1.4-1.46c-.18-.19-.22-.46-.11-.69l.87-1.85-1.23-1.6c-.16-.2-.17-.48-.04-.7l1.06-1.74-1.07-1.73c-.13-.22-.12-.5,.04-.7l1.24-1.62-.88-1.84c-.11-.23-.07-.51,.11-.7l1.4-1.47-.68-1.93c-.08-.24-.01-.51,.18-.68l1.54-1.31-.47-1.99c-.06-.25,.04-.51,.25-.66l1.67-1.14-.26-2.02c-.03-.25,.09-.5,.32-.63l1.78-.97-.05-2.04c0-.26,.15-.49,.38-.59l1.87-.78,.17-2.03c.02-.26,.2-.47,.44-.55l1.95-.58,.36-1.99c.05-.25,.24-.45,.5-.5l2-.37,.59-1.95c.07-.25,.29-.42,.54-.44l2.03-.17,.78-1.88c.1-.24,.33-.39,.59-.38l2.03,.05,.97-1.78c.12-.22,.38-.36,.62-.32l2.02,.26,1.15-1.67c.15-.21,.4-.31,.66-.25l1.98,.47,1.31-1.54c.17-.19,.44-.26,.68-.18l1.92,.68,1.46-1.4c.19-.18,.46-.22,.69-.11l1.85,.87,1.6-1.23c.2-.16,.48-.17,.7-.04l1.74,1.06,1.73-1.07c.22-.13,.5-.12,.7,.04l1.62,1.24,1.84-.88c.23-.11,.51-.07,.7,.11l1.47,1.4,1.93-.68c.24-.09,.51-.01,.68,.18l1.31,1.54,1.99-.47c.25-.06,.51,.04,.66,.25l1.14,1.67,2.02-.26c.25-.03,.5,.09,.63,.32l.96,1.77,2.04-.05c.26,0,.49,.15,.59,.38l.78,1.88,2.03,.17c.25,0,.47,.2,.54,.44l.58,1.94,1.99,.38c.25,.05,.45,.24,.5,.5l.37,2,1.95,.59c.25,.07,.42,.29,.44,.54l.17,2.03,1.88,.78c.24,.1,.39,.33,.38,.59l-.05,2.03,1.78,.97c.22,.12,.35,.37,.32,.62l-.26,2.02,1.67,1.15c.21,.15,.31,.41,.25,.66l-.47,1.98,1.54,1.31c.19,.17,.27,.44,.18,.68l-.68,1.92,1.4,1.46c.18,.19,.22,.46,.11,.69l-.87,1.85,1.23,1.6c.16,.2,.17,.48,.04,.7l-1.06,1.74,1.07,1.73c.13,.22,.12,.5-.04,.7l-1.24,1.62,.88,1.84c.11,.23,.07,.51-.11,.7l-1.4,1.47,.68,1.93c.08,.24,.01,.51-.18,.68l-1.54,1.31,.47,1.99c.06,.25-.04,.51-.25,.66l-1.67,1.14,.26,2.02c.03,.25-.09,.5-.32,.63l-1.78,.97,.05,2.04c0,.26-.15,.49-.38,.59l-1.88,.78-.17,2.03c-.02,.26-.2,.47-.44,.54l-1.94,.58-.37,1.99c-.05,.25-.24,.45-.5,.5l-2,.37-.59,1.95c-.07,.25-.29,.42-.54,.44l-2.03,.17-.78,1.88c-.1,.24-.33,.39-.59,.38l-2.02-.06-.97,1.78c-.12,.22-.38,.34-.63,.32l-2.02-.26-1.15,1.67c-.15,.21-.4,.31-.66,.25l-1.98-.47-1.31,1.54c-.17,.2-.44,.26-.68,.18l-1.93-.68-1.46,1.4c-.19,.18-.46,.22-.69,.11l-1.85-.87-1.6,1.23c-.2,.16-.48,.17-.7,.04l-1.74-1.06-1.73,1.07c-.12,.07-.26,.1-.39,.09Zm-5.71-3.33c.13,.01,.26,.07,.36,.17l1.43,1.37,1.79-.86c.21-.1,.46-.07,.65,.07l1.58,1.21,1.69-1.04c.2-.12,.45-.12,.65,0l1.7,1.04,1.56-1.2c.18-.14,.43-.17,.64-.07l1.8,.85,1.43-1.37c.17-.16,.42-.21,.64-.14l1.88,.66,1.28-1.5c.15-.18,.38-.25,.62-.2l1.94,.46,1.12-1.64c.13-.19,.35-.3,.59-.26l1.97,.25,.95-1.75c.11-.21,.33-.33,.56-.32l1.98,.06,.76-1.83c.09-.21,.29-.36,.52-.38l1.98-.16,.57-1.9c.07-.22,.25-.39,.48-.43l1.96-.36,.37-1.95c.04-.23,.21-.41,.43-.48l1.89-.57,.16-1.98c.02-.23,.17-.43,.38-.52l1.83-.76-.05-1.99c0-.23,.12-.45,.32-.56l1.73-.94-.26-1.98c-.03-.23,.07-.46,.27-.59l1.64-1.12-.46-1.94c-.05-.23,.02-.46,.2-.62l1.5-1.28-.66-1.88c-.08-.22-.02-.47,.14-.63l1.37-1.43-.86-1.8c-.1-.21-.07-.46,.07-.65l1.21-1.58-1.04-1.69c-.12-.2-.12-.45,0-.65l1.04-1.7-1.2-1.56c-.14-.19-.17-.43-.07-.64l.85-1.8-1.37-1.43c-.16-.17-.22-.41-.14-.64l.66-1.88-1.5-1.28c-.18-.15-.25-.39-.2-.61l.46-1.94-1.64-1.12c-.19-.13-.29-.36-.26-.59l.25-1.97-1.73-.95c-.2-.11-.33-.33-.32-.56l.05-1.98-1.84-.76c-.21-.09-.36-.29-.38-.52l-.16-1.98-1.9-.57c-.22-.07-.39-.25-.43-.48l-.36-1.95-1.95-.37c-.23-.04-.41-.21-.48-.43l-.57-1.89-1.98-.16c-.24-.01-.43-.17-.52-.38l-.76-1.83-1.99,.05c-.24,0-.45-.12-.56-.33l-.94-1.73-1.98,.26c-.23,.03-.46-.07-.59-.27l-1.12-1.64-1.94,.46c-.23,.05-.47-.03-.62-.2l-1.28-1.5-1.88,.66c-.22,.08-.47,.02-.63-.14l-1.43-1.37-1.8,.86c-.21,.1-.46,.07-.65-.07l-1.58-1.21-1.69,1.04c-.2,.12-.45,.12-.65,0l-1.7-1.04-1.56,1.2c-.18,.14-.43,.17-.64,.07l-1.8-.85-1.43,1.37c-.17,.16-.42,.21-.64,.14l-1.88-.66-1.28,1.5c-.15,.18-.38,.25-.62,.2l-1.94-.46-1.12,1.64c-.13,.19-.38,.29-.59,.26l-1.97-.25-.95,1.73c-.11,.2-.33,.33-.56,.32l-1.98-.05-.76,1.84c-.09,.21-.29,.36-.52,.38l-1.98,.16-.57,1.9c-.07,.22-.25,.39-.48,.43l-1.95,.36-.36,1.94c-.04,.23-.21,.42-.43,.48l-1.91,.57-.16,1.98c-.02,.23-.17,.43-.38,.52l-1.83,.76,.05,1.99c0,.23-.12,.45-.32,.56l-1.73,.94,.26,1.98c.03,.23-.07,.46-.27,.59l-1.64,1.12,.46,1.94c.05,.23-.02,.46-.2,.62l-1.5,1.28,.66,1.88c.08,.22,.02,.47-.14,.63l-1.37,1.43,.86,1.8c.1,.21,.07,.46-.07,.65l-1.21,1.58,1.04,1.69c.12,.2,.12,.45,0,.65l-1.04,1.7,1.2,1.56c.14,.19,.17,.43,.07,.64l-.85,1.8,1.37,1.43c.16,.17,.22,.41,.14,.64l-.66,1.88,1.5,1.28c.18,.15,.25,.39,.2,.61l-.46,1.94,1.63,1.12c.19,.13,.29,.36,.26,.59l-.25,1.97,1.75,.95c.21,.11,.33,.33,.32,.56l-.06,1.98,1.83,.76c.21,.09,.36,.29,.38,.52l.16,1.98,1.9,.57c.22,.07,.39,.25,.43,.48l.36,1.95,1.94,.36c.23,.04,.42,.21,.48,.43l.57,1.91,1.98,.16c.22,.02,.43,.17,.52,.38l.76,1.83,1.99-.05c.24,0,.45,.12,.56,.32l.94,1.73,1.98-.26c.23-.03,.46,.07,.59,.27l1.12,1.64,1.94-.46c.23-.05,.47,.03,.62,.2l1.28,1.5,1.88-.66c.09-.03,.18-.04,.27-.03Z"
          />
        </g>
        <g id="go">
          <circle
            cx="582.97"
            cy="135.1"
            r="13.03"
            transform="translate(387.72 700.77) rotate(-84)"
          />
          <path
            d="M581.58,148.36c-7.31-.77-12.64-7.34-11.87-14.66,.77-7.31,7.34-12.64,14.66-11.87,7.31,.77,12.64,7.34,11.87,14.66-.77,7.31-7.34,12.64-14.66,11.87Zm2.72-25.91c-6.97-.73-13.24,4.34-13.97,11.32-.73,6.97,4.34,13.24,11.32,13.97,6.97,.73,13.24-4.34,13.97-11.32,.73-6.97-4.34-13.24-11.32-13.97Z"
          />
        </g>
        <g id="gp">
          <circle cx="506.9" cy="164.11" r="3.28" fill="#fff" />
          <path
            d="M509.76,166.28c-1.2,1.58-3.45,1.89-5.03,.69-1.58-1.2-1.89-3.45-.69-5.03,1.2-1.58,3.45-1.89,5.03-.69,1.58,1.2,1.89,3.45,.69,5.03Zm-5.23-3.96c-.99,1.31-.73,3.17,.57,4.16,1.31,.99,3.17,.73,4.16-.57,.99-1.31,.73-3.17-.57-4.16s-3.17-.73-4.16,.57Z"
          />
        </g>
        <g id="gq">
          <circle cx="579.37" cy="129.36" r="3.28" fill="#fff" />
          <path
            d="M579,132.93c-1.97-.21-3.4-1.98-3.2-3.95,.21-1.97,1.98-3.4,3.95-3.2,1.97,.21,3.4,1.98,3.2,3.95-.21,1.97-1.98,3.4-3.95,3.2Zm.69-6.53c-1.63-.17-3.09,1.01-3.26,2.64-.17,1.63,1.01,3.09,2.64,3.26,1.63,.17,3.09-1.01,3.26-2.64,.17-1.63-1.01-3.09-2.64-3.26Z"
          />
        </g>
        <g id="gr">
          <path
            d="M569.67,75.29l1.16-5.31c.08-.34,.41-.56,.76-.48l67.58,14.42c.34,.08-.62,.83-.7,1.17l-5.83,6.13c-.08,.34,.94-1.26,.59-1.34l-63.07-13.84c-.35-.06-.56-.41-.49-.74Z"
          />
          <path
            d="M632.6,91.58s-.02,0-.03,0c-.17-.04-.28-.25-.24-.42,.01-.05,.04-.11,.08-.15l.23-.24c.12-.2,.25-.46,.31-.63l-62.87-13.8c-.24-.04-.45-.19-.59-.4-.14-.21-.18-.47-.13-.71l1.16-5.3c.06-.25,.21-.47,.42-.6,.21-.13,.46-.18,.71-.12l67.58,14.42c.15,.03,.26,.13,.3,.26,.09,.27-.13,.51-.42,.84-.12,.13-.32,.36-.34,.44-.01,.04-.05,.11-.08,.14l-5.55,5.83c-.16,.25-.35,.45-.54,.43Zm-61.12-21.78c-.07,0-.14,0-.2,.05-.07,.05-.13,.12-.15,.21l-1.16,5.3s0,0,0,0c-.02,.08,0,.16,.04,.23,.05,.07,.12,.12,.2,.13l63.08,13.84s.19,.05,.27,.22l4.63-4.86c.08-.19,.26-.4,.45-.62,.04-.05,.09-.1,.14-.15l-67.26-14.35s-.03,0-.04,0Zm-1.81,5.49h0s0,0,0,0Z"
          />
        </g>
      </g>
    </g>
  </g>
</svg>
