<?xml version="1.0" encoding="UTF-8"?><svg id="Layer_1" xmlns="http://www.w3.org/2000/svg" viewBox="0 0 85.04 85.04"><circle cx="42.52" cy="42.52" r="42.52" style="fill:#d1d3d4;"/><path d="M76.46,37.37c.05-.93-.26-1.82-.89-2.51-.44-.48-.99-.82-1.58-1l.08-1.1v-.16c0-3.62-2.8-6.63-6.38-6.9l2.98-5.17-5.16-.89-18.12-3.2-1.09,6.27,8.1,1.43c-1.04.08-2.07.27-3.08.56-1.43-.07-2.68-.13-3.61-.16-1.19-.03-3.01-.05-4.98-.05s-3.79.02-4.99.05c-.93.03-2.21.09-3.69.16-1.01-.29-2.04-.48-3.08-.56l8.09-1.43-1.09-6.27-18.11,3.2-5.16.89,2.96,5.17c-3.59.29-6.38,3.29-6.38,6.9v.06l.06,1.12c-1.64.35-2.85,1.84-2.75,3.58l.73,12.66c.04.55.22,1.06.48,1.51-.12.39-.18.79-.16,1.21l.6,10.33c.1,1.84,1.62,3.29,3.47,3.29h.22c.22-.02.43-.06.63-.11,1.22,1.42,3.02,2.32,5.02,2.32h45.79c2,0,3.82-.91,5.04-2.35.24.07.49.12.75.14h.19c1.84,0,3.37-1.44,3.47-3.27l.6-10.34c.02-.41-.04-.82-.16-1.21.27-.46.44-.97.48-1.54l.74-12.64Z" style="fill:#a7a9ac;"/><path d="M65.36,66.39H19.57c-2.34,0-4.27-1.82-4.4-4.16l-1.7-29.61c0-2.51,1.95-4.58,4.46-4.72,0,0,14.89-1,19.87-1.14,2.46-.07,7.39-.07,9.85,0,4.95.14,19.79,1.14,19.79,1.14,2.5.14,4.45,2.21,4.45,4.71l-2.12,29.69c-.16,2.31-2.09,4.1-4.4,4.1Z" style="fill:#d1d3d4;"/><path d="M65.36,66.89H19.57c-2.6,0-4.75-2.03-4.9-4.63l-1.7-29.61c0-2.8,2.16-5.09,4.93-5.25.14,0,14.96-1,19.88-1.14,2.49-.07,7.39-.07,9.88,0,4.91.14,19.66,1.13,19.81,1.14,2.75.16,4.92,2.45,4.92,5.21l-2.12,29.72c-.18,2.56-2.33,4.56-4.9,4.56ZM42.69,27.2c-1.84,0-3.67.02-4.88.05-4.91.14-19.7,1.13-19.85,1.14-2.24.13-3.99,1.98-3.99,4.22l1.7,29.58c.12,2.07,1.83,3.69,3.91,3.69h45.79c2.04,0,3.76-1.6,3.9-3.63l2.12-29.69c0-2.2-1.75-4.05-3.99-4.18-.15-.01-14.88-1-19.77-1.14-1.22-.04-3.08-.05-4.94-.05Z" style="fill:#35342c;"/><path id="path1176-5" d="M42.35,52.13l3.71,2.14v4.06l-3.66,2.11-3.6-2.08v-4.23l3.55-2Z" style="fill:#fff;"/><path d="M42.4,61.02l-4.1-2.37v-4.82l4.06-2.28,4.2,2.42v4.63l-4.16,2.4ZM39.3,58.07l3.1,1.79,3.16-1.82v-3.48l-3.21-1.85-3.05,1.71v3.65Z" style="fill:#35342c;"/><path d="M29.82,26.31c-2.21,0-4.29.56-6.11,1.54l-3.49-6.04-2.08.37,3.9,6.76c-3.08,2.35-5.08,6.05-5.08,10.22,0,7.1,5.75,12.85,12.85,12.85s12.85-5.75,12.85-12.85-5.75-12.85-12.85-12.85Z" style="fill:#fff;"/><path d="M29.82,52.51c-7.36,0-13.35-5.99-13.35-13.35,0-4.05,1.79-7.79,4.93-10.34l-4.04-7.01,3.12-.55,3.42,5.93c1.83-.9,3.87-1.38,5.92-1.38,7.36,0,13.35,5.99,13.35,13.35s-5.99,13.35-13.35,13.35ZM18.93,22.55l3.77,6.53-.35.27c-3.1,2.36-4.88,5.94-4.88,9.82,0,6.81,5.54,12.35,12.35,12.35s12.35-5.54,12.35-12.35-5.54-12.35-12.35-12.35c-2.05,0-4.08.51-5.87,1.48l-.43.23-3.56-6.16-1.03.18Z" style="fill:#35342c;"/><polygon points="19.2 24 18.14 22.18 36.17 19 36.51 20.95 19.2 24"/><path d="M18.94,24.56l-1.59-2.75,19.22-3.39.52,2.94-18.15,3.2ZM18.93,22.55l.52.9,16.48-2.91-.17-.97-16.83,2.97Z"/><path d="M55.52,26.31c2.21,0,4.29.56,6.11,1.54l3.49-6.04,2.08.37-3.9,6.76c3.08,2.35,5.08,6.05,5.08,10.22,0,7.1-5.75,12.85-12.85,12.85s-12.85-5.75-12.85-12.85,5.75-12.85,12.85-12.85Z" style="fill:#fff;"/><path d="M55.52,52.51c-7.36,0-13.35-5.99-13.35-13.35s5.99-13.35,13.35-13.35c2.05,0,4.09.48,5.92,1.38l3.42-5.93,3.12.55-4.04,7.01c3.14,2.55,4.93,6.3,4.93,10.34,0,7.36-5.99,13.35-13.35,13.35ZM55.52,26.81c-6.81,0-12.35,5.54-12.35,12.35s5.54,12.35,12.35,12.35,12.35-5.54,12.35-12.35c0-3.88-1.78-7.46-4.88-9.82l-.35-.27,3.77-6.53-1.03-.18-3.56,6.16-.43-.23c-1.79-.97-3.82-1.48-5.87-1.48Z" style="fill:#35342c;"/><polygon points="66.14 24 67.19 22.18 49.17 19 48.83 20.95 66.14 24"/><path d="M66.4,24.56l-18.15-3.2.52-2.94,19.22,3.39-1.59,2.75ZM49.41,20.54l16.48,2.91.52-.9-16.83-2.97-.17.97Z"/><g id="g1174"><path id="path1046-7-6-6" d="M32.72,39.48c0,1.6-1.3,2.9-2.9,2.9s-2.9-1.3-2.9-2.9h0c0-1.6,1.3-2.9,2.9-2.9h0c1.6,0,2.9,1.3,2.9,2.9h0Z" style="fill:#010101;"/><path d="M29.82,42.4c-1.61,0-2.92-1.31-2.92-2.92s1.31-2.92,2.92-2.92,2.92,1.31,2.92,2.92-1.31,2.92-2.92,2.92ZM29.82,36.6c-1.59,0-2.88,1.29-2.88,2.88s1.29,2.88,2.88,2.88,2.88-1.29,2.88-2.88-1.29-2.88-2.88-2.88Z" style="fill:#35342c;"/></g><path id="path1046-7-5" d="M58.47,39.97c-.27,1.58-1.77,2.64-3.35,2.37s-2.64-1.77-2.37-3.35c.27-1.58,1.77-2.64,3.35-2.37h0c1.58.27,2.64,1.77,2.37,3.35Z" style="fill:#010101;"/><path d="M55.62,42.4c-.17,0-.33-.01-.5-.04-1.59-.27-2.66-1.78-2.39-3.37.13-.77.55-1.44,1.19-1.89s1.41-.63,2.18-.5c.77.13,1.44.55,1.89,1.19.45.64.63,1.41.5,2.18s-.55,1.44-1.19,1.89c-.5.35-1.08.54-1.68.54ZM55.61,36.6c-.59,0-1.17.18-1.66.53-.63.44-1.05,1.11-1.17,1.87-.13.76.04,1.52.49,2.15.45.63,1.11,1.05,1.87,1.17.76.13,1.52-.04,2.15-.49.63-.44,1.05-1.11,1.17-1.87.13-.76-.04-1.52-.49-2.15-.45-.63-1.11-1.04-1.87-1.17-.16-.03-.33-.04-.49-.04Z" style="fill:#35342c;"/><rect x="11.14" y="35.89" width="2.55" height="15.21" rx="1.28" ry="1.28" transform="translate(-2.48 .78) rotate(-3.29)" style="fill:#d1d3d4;"/><path d="M12.78,51.59c-.93,0-1.72-.73-1.77-1.68l-.73-12.63c-.03-.47.13-.93.45-1.28.32-.35.75-.56,1.22-.59.47-.03.93.13,1.28.45.35.32.56.75.59,1.22l.73,12.63c.06.98-.69,1.82-1.67,1.88h0s-.07,0-.1,0ZM12.05,36.4s-.03,0-.05,0c-.21.01-.4.1-.54.26s-.21.35-.2.56l.73,12.63c.02.43.39.77.82.73.43-.03.76-.39.73-.82l-.73-12.63c-.01-.21-.1-.4-.26-.54-.14-.13-.33-.2-.52-.2Z" style="fill:#35342c;"/><rect x="12.12" y="51.28" width="2.55" height="12.91" rx="1.28" ry="1.28" transform="translate(-3.29 .87) rotate(-3.29)" style="fill:#d1d3d4;"/><path d="M13.7,64.68c-.93,0-1.72-.73-1.77-1.68l-.59-10.34c-.06-.98.69-1.82,1.67-1.88.97-.05,1.82.69,1.88,1.67l.59,10.34c.06.98-.69,1.82-1.67,1.88h0s-.07,0-.1,0ZM13.1,51.79s-.03,0-.04,0c-.43.03-.75.39-.73.82l.59,10.34c.02.43.41.75.82.73.43-.03.76-.39.73-.82l-.59-10.34c-.02-.41-.37-.73-.78-.73Z" style="fill:#35342c;"/><rect x="71.35" y="35.89" width="2.55" height="15.21" rx="1.28" ry="1.28" transform="translate(142.63 91.09) rotate(-176.71)" style="fill:#d1d3d4;"/><path d="M72.26,51.59s-.07,0-.1,0h0c-.98-.06-1.73-.9-1.67-1.88l.73-12.63c.06-.98.91-1.73,1.88-1.67.47.03.91.24,1.22.59.32.35.47.81.45,1.28l-.73,12.63c-.05.94-.84,1.68-1.77,1.68ZM72.22,50.59c.44.03.8-.3.82-.73l.73-12.63c.01-.21-.06-.41-.2-.56s-.33-.25-.54-.26c-.43-.01-.8.3-.82.73l-.73,12.63c-.02.43.3.8.73.82Z" style="fill:#35342c;"/><rect x="70.36" y="51.28" width="2.55" height="12.91" rx="1.28" ry="1.28" transform="translate(139.84 119.49) rotate(-176.71)" style="fill:#d1d3d4;"/><path d="M71.34,64.68s-.07,0-.1,0h0c-.98-.06-1.73-.9-1.67-1.88l.59-10.34c.06-.98.91-1.73,1.88-1.67.98.06,1.73.9,1.67,1.88l-.59,10.34c-.05.94-.84,1.68-1.77,1.68ZM71.3,63.68c.4.02.8-.3.82-.73l.59-10.34c.02-.43-.3-.8-.73-.82-.41-.03-.8.3-.82.73l-.59,10.34c-.02.43.3.8.73.82Z" style="fill:#35342c;"/></svg>