<?xml version="1.0" encoding="UTF-8"?><svg id="Layer_1" xmlns="http://www.w3.org/2000/svg" viewBox="0 0 595.28 595.28"><path d="M465.13,103.81c-11.42,1.74-22.82,1.35-32.95-4.72s-14.75-17.84-5.18-26.46c2.4-2.16,12.42-8.53,15.33-8.57,5.97-.09,15.27,10.65,20.93,13.54,3.83,1.96,6.38,2.75,8.98-1.47,3.09-5-2.56-13.5-5.91-17.44-6.67-7.84-21.27-13.42-10.81-26.16,8.58-10.45,22.97-13.67,34.31-5.5,15.34,11.06,17.94,31.28,12.96,48.45-.73,2.51-3.96,9.05-4,10.78-.06,3.19,1.95,10.02,2.31,13.93,4.01,43.22-19.49,72.5-53.77,94.48-1.72,1.1-9.68,5.12-9.96,6.37l11.46,93c-.36,5.58-3.84,10.17-9.01,12.11-1.7.64-6.14.93-6.39,2.76-.23,1.69,1.31,7.67,1.46,10.07.4,6.32-.13,13.28-1.09,19.53-.92,5.92-3.76,12.87-4.2,18.35-.84,10.52,1.42,23.02,1.96,33.58,1.13,22.35-13.81,50.42-27.86,67.18-4.1,4.89-9.04,9.06-12.96,13.95l.47,1.92,40.54,45.34c2.49,4.12,4.34,10.21-.56,13.29-30.93,6.73-62.11,12.71-93.22,18.64-1.9-.35-3.14-2.46-4.55-3.65l-50.34-57.14c-.62-1.57-5.17,2.61-5.31,2.91-.41.81-.36,1.59.01,2.4.5,1.08,7.63,7.93,9.12,9.6,10.78,12.1,21.39,24.35,32.11,36.5,2.86,3.99,3.76,11.63-2.03,13.26-30.92,5.9-61.68,12.82-92.68,18.15-1.79-1.89-3.77-3.62-5.54-5.53-23.74-25.5-45.91-52.67-69.24-78.54-3.01-4.46-1.39-9.7,3.85-11.33,15.51-4.82,35.88-5.08,51.35-10.07,2.69-.87,1.9-4.9,2.43-7.64,3.02-15.53,13.35-36.14,25.54-46.43,1.3-1.1,4.73-2.82,5.38-3.49,1.65-1.71-1.05-15.62-.36-18.83-1.83-8.67-5.54-16-6.65-25.02-.73-5.95-.23-11.82-.5-17.69-.11-2.56-1.67-4.01-3.88-5.04-.28,13.69-15.99,28.82-29.43,20.55-4.28-2.64-6.59-6.55-9.44-10.47-.29,2.81-1.02,6.62-1.01,9.36.03,8.39,5.78,19.26-9.05,14.37-12.54-4.13-25.47-16.62-24.51-30.71.51-7.48,4.3-14.94,8.65-20.85l-18.95-.97c-16.64-1.41-35-3.27-46.55-16.78-15.93-18.64,2.22-31.3,16.13-41.94,13.26-10.14,28.41-19.05,43.12-26.93,2.17-1.16,15.76-7.21,16.24-7.98.31-.5.08-1.8-.04-2.45-2.77-15.59-9.52-31.86-12.35-47.63-1.31-11.12,12.09-12.81,20.14-14.87,27.71-7.09,55.91-12.45,83.63-19.53,7.82-5.61,14.22-13.02,21.32-19.5,2.15-.6,3.31,2.39,4.46,3.53,1,1,3.62,2.32,3.77,3.93.09,1.03-4.84,4.96-5.69,6.16l.72.25,77-17.77c.63-.61-3.49-3.81-4.09-4.3-2.08-1.72-14.01-9.3-14.38-10.1-.35-.75-.34-1.24-.14-2.03.16-.62,3.84-7.14,4.22-7.33,1.21-.59,1.97-.15,3.05.33,4.43,1.95,15.05,10.58,19.03,14.07,2.34,2.04,6.42,7.31,8.84,8.43,3.4,1.58,7.52,1.91,11.8,4.04,11.14,5.53,22.01,12.92,33.05,18.76,6.82,5.23,3.83,8.63,5.79,14.86.13.42-.24.98.72.69,1.97-.6,10.36-7.55,12.25-9.34,8.61-8.15,20.15-27.36,20.15-39.35v-7.92ZM435.97,187.87c-.53.92.34,7.91,1.11,8.06,18.21-10.28,37.6-24.41,48.41-42.74,9.43-15.99,13.54-34.43,11.79-52.98-.38-4-2.52-11.13-2.41-14.38.08-2.34,3.61-9.22,4.46-12.36,4.29-15.81,1.27-33.32-12.64-43.27-3.28-2.34-15.86-8.07-14.82-.08.34,2.63,9.57,8.79,11.99,11.07,8.72,8.23,12.58,19.86,8.04,31.56-3.54,9.13-18.54,11.77-26.97,9.44-6.56-1.81-10.41-6.96-15.66-10.73-2.18-1.56-6.98-5.65-6.68-.54.78,13.59,23.72,19.47,34.79,18.48,6.95-.62,10.06-5.79,12.03,3.82,2.32,11.29,1.05,27.35-1.84,38.51-6.24,24.1-22.26,37.84-42.32,50.77-1.36.88-9,4.9-9.26,5.37ZM468.49,28c-5.39,1.57-13.36,7.9-12.45,14.12.65,4.38,6.62,7.37,9.58,10.1,4.58,4.24,11.44,13.8,11.52,20.18l-1.68,6.94c8.3-1.29,13.17-3.43,14.58-12.29,1.23-7.76-.96-16.46-6.66-22.03-5.13-5.01-15.35-9.18-14.88-17.03ZM434.91,184.41c.47.56,11.43-6.49,12.62-7.29,25.06-16.76,38.44-35.2,39.69-66.34.11-2.66-.3-18.15-1.92-19.24-1.01-.68-6.64,1.07-8.42,1.22-14.27,1.19-37.17-6.49-37.66-23.5-7.54,4.18-16.76,8.5-12.34,18.82,4.05,9.45,19.57,13.31,28.92,12.86,2.39-.11,10.54-2.32,11.74-1.71,1.7.87,1.57,8.21,1.46,10.11-1.25,20.92-13.27,38.44-29.34,50.79-1.71,1.31-6.42,3.76-6.95,5.56l2.21,18.72ZM384.6,145.47c-.47-.28-5-7.56-6.13-8.98-1.24-1.56-7.72-9.37-8.84-9.88-.69-.32-1.35-.36-2.08-.21l-86.67,20.36c-6.3,4.57-11.8,10.29-17.74,15.36-5.27,4.5-10.75,8.81-16.17,13.13-.53.08-4.77-5.04-5.41-5.95-.57-.8-1.54-1.65-1.27-2.65,4.28-4.67,10.62-8.29,15.18-12.68.38-.37,1.5-1.16.71-1.69l-84.2,19.91c-1.76.58-7.08,2.69-7.59,4.43-.75,2.56,2.05,3.4,3.91,4.54,11.2,6.84,23.09,12.67,34.4,19.34,7.49,2.92,21.93,2,29.75.01,6.87-1.75,6.95-5.17,11.26-9.85,13.05-14.15,33.37-20.05,52.06-15.1,3.75.99,11.77,5.25,14.58,4.99,2.05-.19,18.13-4.23,19.46-5.03,1.47-.88,3.86-5.1,5.3-6.7,13.34-14.76,32.62-21.29,52.21-16.2,3.1.81,10.99,4.89,12.83,4.97s16.31-3.89,18.72-4.82c1.86-.72,6.6-2.53,4.32-4.82l-35.99-20.15c-.66-.1-.92.01-.71.72.52,1.78,5.89,7.31,7.12,9.68.29.56.72,1.08.51,1.77-.19.65-8.39,6.15-9.47,5.51ZM334.15,235.28c-3.02,22.49-24.22,42.05-46.77,43.68-41.16,2.97-69.21-36.87-53.05-74.63l-14.11,2.2c-3.35,1.16-2.99,4.57-3.65,7.43,7.59,44.34,16.28,88.57,25.2,132.65,1.85,4.3,8.17,1.51,11.77.72,56.05-12.31,113.56-27.2,169.28-41.36,8.76-2.23,23.09-2.8,21.67-15.26l-17.75-137.95c-6.15,4.79-14.17,5.9-21.58,7.68-.2.73.19.8.47,1.2,1.5,2.18,6.33,5.66,8.63,8.64,30.22,39.09-5.58,93.07-53.64,81.47-10.76-2.6-18.96-8.64-26.47-16.47ZM368.59,154.81c-19.16,1.71-35.6,16.45-40.55,34.78-.49,1.81-1.69,6.3-1.48,7.92.14,1.06,3.54,6.4,4.31,8.18,2.39,5.52,3.63,11.38,4.23,17.36.21,2.05-.36,4.69.12,6.6.73,2.87,9.83,10.54,12.58,12.37,26.1,17.28,62.75,4.29,71.75-25.68,10.07-33.5-16.46-64.6-50.96-61.52ZM278.87,177.36c-35.6,2.72-56.96,41.93-39.02,73.28,18.95,33.1,67.02,32.87,85.42-.48,18.68-33.85-7.98-75.73-46.41-72.8ZM326.94,180.58l-12.95,2.88c-.8.76,3.1,3.34,3.61,3.82,2.05,1.96,3.99,4.01,5.75,6.25l3.59-12.95ZM216.11,206.49c-5.5-.02-11.06-.65-16.17-2.79l-34.46-19.76-.67,1.15,11.45,43.26c1.55,1.06,10.16-4.38,12.62-4.04l24.11,16.24c.14,4.14,2.74,10.25-1.83,12.58l-23.83,12.16c-1.29.79-1.01,1.92-.86,3.22.66,5.49,4.79,20.45,6.73,25.91,1.96,5.51,8.43,7.32,13.05,10.94,5.34,4.19,10.39,10.08,13.77,15.98,4.46,7.77,4.81,14.26,11.91,20.72.89.81,6.38,5.36,7.2,4.55l-24.41-127.45c-.09-4.27-.56-8.7,1.38-12.65ZM207.47,241.99c.17-.72-.1-.77-.51-1.17-2.23-2.21-10.85-7.46-14.02-9.49-1.43-.92-3.72-2.81-5.39-2.8-1.26,0-7.08,2.62-8.72,3.3-21.6,9.06-47.93,24.28-66.32,38.76-4.97,3.91-15.89,12.45-17.67,18.32-2.95,9.72,5.45,20.15,14.26,23.13-1.84-13.04,9.23-20.34,18.56-26.78,24.57-16.94,53.22-29.79,79.8-43.28ZM209.87,244.87l-2.26.38c-24.87,13.23-50.79,24.84-74.46,40.21-6.88,4.47-19.76,12.59-21.03,21.2-1.17,7.92,3.06,9.94,9.93,11.41,16.61,3.55,37.27,3.09,54.47,4.55,1.69.14,10.93.9,11.56,1.39s.83,1.3.61,2.1c-.1.36-3.84,4.7-4.64,5.95-5.9,9.28-11.69,27.7-7.19,38.19.86,2,4.59,5.42,6.65,3.97,1.09-.77-.42-5.72-.5-7.24-.72-12.93,4.46-49.19,24.8-37.76,8.4,4.72,11.6,13.73,5.18,21.7-1.69,2.1-10.55,8.74-10.74,9.43-.51,1.88,3.19,2.17,4.43,2.06,5.53-.49,13.2-8.32,14.83-13.52,5.04-16.04-4.63-25.45-19.32-28.93-23.15-5.47-47.77-4.04-71.25-6.48-5.97-.62-12.27-2.2-10.69-9.72,1.19-5.64,15.51-13.28,20.56-16.38,22.07-13.56,45.14-25.48,68.08-37.48,1.63-1.1.82-3.33.97-5.02ZM138.39,293.81l51.06,2.82,1.15-2.57c-2.26-7.37-3.66-15.97-6.63-23.04-.41-.97-.95-3.09-2.15-3.11-1.79-.03-12.88,6.42-15.28,7.78-8.13,4.59-18.51,10.41-26.02,15.73-.85.6-2.27,1.15-2.15,2.41ZM213.71,319.72c.36-.35-.93-1.93-1.24-2.35-15.01-20.23-36.41-19.24-59.45-20.2-9.36-.39-18.96-2.92-26.38,3.86-5.54,5.06-3.35,7.74,3.4,8.56,16.56,2.01,34.29,1.59,51.22,3.48,10.95,1.22,22.26,2.32,32.44,6.66ZM378.29,321.16l51.96-7.77c1.57-.61.7-5.59-1.21-5.1l-50.75,12.86ZM415.23,355.71c2.79-1.21,10.21-.46,11.55-3.08,1.32-2.57,2.64-10,3.17-13.14,1.09-6.42,2.37-15.57,1.09-21.9-.17-.85-.62-1.6-1.55-1.58l-54.11,8.25c-1.3.91-.03,6.61.01,8.18.21,7.2.35,14.88,0,22.06-.07,1.37-1.35,6.67-.5,7.22.69.35,1.43.26,2.16.23,1.61-.08,14.98-2.17,15.63-2.62,1.81-1.27-1.66-12.95,2.58-14.69,2.15-.88,12.28-2.53,14.97-2.78,3.05-.28,5.48-.31,5.44,3.5,0,.43-.46.83-.46,1v9.36ZM371.04,323.13c-.57-.48-9.08,1.43-9.6,2.06-.24.3-.37.64-.42,1.02-.17,10.07.18,20.16,0,30.23-.07,4.05-1.01,8.76-.52,12.96.46,3.96,5.35-.28,6.66-2.02,5.65-7.5,4.98-19.32,5.38-28.25l-1.51-16ZM183,326.92c-4.16.52-12.82-2.14-16.27-.2-6.84,3.84-10.74,19.38-8.93,26.61,1.23,4.92,10.12,15.79,14.9,17.25.75.23.76-.07.72-.71-.13-1.83-.88-3.85-.98-5.74-.49-8.64.98-15.79,4.11-23.75,1.83-4.66,4.52-8.85,6.46-13.45ZM357.65,325.96c-2.07.91-9.97,1.63-10.79,3.36,0,13,1.5,27.73,9.6,38.38l1.19-41.74ZM198.83,359.54c.77-3.46,4.74-4.78,7.21-6.95,5.14-4.5,9.72-9.32,4.56-16.09-2.2-2.89-7.67-6.4-11.41-5.64s-9.25,9.97-9.5,13.57c-.18,2.57,1.66,6.82,3.01,9.02.65,1.06,5.23,6.76,6.14,6.09ZM343.26,330.76l-22.57,6.55c-.03,11.02-.71,22.83-3.27,33.57-.58,2.41-2.21,5.45-2.47,7.6-.54,4.34.23,11.69.5,16.32.75,13.31,2.8,22.4-.62,35.85-1.45,5.69-4.17,11.01-5.14,16.69,1.49.08,9.78-.04,10.35-.93.63-5.89,2.07-11.66,3.81-17.3,3.08-10.01,8.44-21.38,15.12-29.5,4.01-4.86,9.74-8.18,13.79-13.02l-1.37-21.49c-4.98-10.76-6.62-22.66-8.12-34.35ZM302,377.3c2.23-.28,9.56-.59,11.01-1.7.89-.68,3.36-11.14,3.72-13.07.68-3.62,3.04-22.64.65-24.36-.5-.36-1.08-.2-1.63-.17-7.63.48-18.18,2.83-25.84,4.43-9.25,1.94-18.44,4.42-27.52,7.02-.59.43-.7.99-.72,1.69-.04,2.51.89,6.5.98,9.14.1,2.88-.07,5.77.02,8.65l-1.4,14.34c.4.89,1.25.8,2.08.77,4.95-.17,10.94-2.52,16.09-2.42,1.22-3.17-.84-13.01,1.95-14.6,1.17-.67,15.18-3.16,17.01-3.18,1.04,0,3.6.61,3.6,1.72v11.76ZM395.56,347.31c-.74,2.29.55,8.5,0,11.28l17.21-2.95c-.38-3.05.65-6.41.57-9.29-.02-.74.18-2.35-.79-2.58-2.2.87-16.63,2.41-17,3.54ZM243.94,390.25l.42-36.64c-.37-1.07-1.91-.67-2.82-1.02-2.61-1.01-5.15-2.39-7.67-3.6-.21,14.03.94,30.05,10.07,41.26ZM247.36,392.58c4.43,1.5,7.74-4.25,9.14-7.76,4.1-10.31,2.71-22.34,2.31-33.19-.04-.54-.23-.99-.79-1.16-.81-.25-9.51,1.74-10.15,3.17l-.51,38.94ZM425.74,358.16l-49.66,8.07,1.25,32.66c6.39-4.3,13.96-7.15,21.83-6.25,3.58.41,2.55,2.39,2.63,5.29.33.32,8.16-.85,9.14-1.18,1.62-.56,5.71-7.81,7.47-9.81,3.02-3.42,3.9-4.22,8.83-2.93l-1.48-25.86ZM299.6,366.26l-16.82,2.61c-.43,2.84-.83,6.14-.95,9.12-.02.59-.13,3.17.27,3.15l17.51-3.37v-11.52ZM372.53,400.81l-1.92-32.14c-4.6,6.43-9.94,6.56-16.3,2.4l1.51,23.91,16.71,5.83ZM313.99,406.09l-.96-24.71-.79-1.13-49.53,8.39,1.38,31.84c2.72-.59,4.85-2.63,7.55-3.72,4.31-1.75,9.66-2.57,14.29-2.04,3.58.41,2.55,2.39,2.63,5.29.33.32,8.3-.9,9.14-1.18,2.34-.76,6.9-10.6,10.55-12.96,2.37-1.52,3.23.39,5.73.22ZM365.33,480.93c7.79-.2,15-5.28,20.64-10.31,15.92-14.18,29.85-33.49,37.07-53.61,2.18-6.07,7.33-22.38,4.12-27.89-.57-.98-2.34-2.84-3.5-2.73-1.31.12-5.42,6.1-6.41,7.55-12.22,17.88-23.05,39.38-34.44,58.17-5.37,8.86-12.15,18.18-16.89,27.25-.28.53-.76.84-.58,1.58ZM259.77,422.87l-2.4-32.14-3.39,3.56c-2.14,1.77-4.52,2.06-7.19,1.51-2.19-.46-3.63-2.21-5.73-2.66l1.97,23.21c4.58,3.49,11.27,4.52,16.74,6.53ZM352.37,391.69c-1.19-1.24-8.59,6.33-9.58,7.45-8.38,9.44-18.67,29.15-19.68,41.74-.15,1.86.02,11.74.96,12.71.74.76.82-.17,1-.67,1.08-2.93,1.69-6.68,2.7-9.77,4.29-13.13,10.09-25.39,17.97-36.73,1.08-1.56,6.69-8.14,6.92-8.96.38-1.38-.78-4.08-.29-5.76ZM398.42,396.03c-12.5-1.85-22.26,6.78-29.44,15.86-11.76,14.87-30.39,49.23-21.49,67.93,2.5,5.26,2.86.73,5.09-1.81,12.07-19.52,24.36-38.99,35.39-59.13,4-7.31,8.59-14.61,10.46-22.85ZM370.6,403.7c-2.85-.17-12.47-5.13-14.41-4.61-1.48.4-5.91,6.65-7.09,8.29-10.64,14.73-17.98,32.37-21.59,50.16,4.81,6.17,9.46,12.61,15.03,18.11-2.41-13.42,2-26.93,7.5-39.03,5.11-11.25,12.01-22.35,20.32-31.5l.24-1.43ZM408.99,400.33c-.29-.26-7.13.82-7.81,1.06-1.4.51-5.2,9.77-6.33,11.9-1.6,3-3.52,5.85-4.97,8.95l-29.35,50.05c2.4-.67,5.88-.26,7.4-2.43l26.27-43.31,14.79-26.23ZM252.1,503c8.46-.1,15.3-5.78,21.34-11.05,15.63-13.64,29.84-33.84,36.73-53.48,2.22-6.34,5.59-17.96,4.8-24.49-.23-1.88-2.58-5.72-4.54-5.53-1.78.17-6.29,7.96-7.66,9.66l-50.66,84.88ZM211.32,475.18c.87-.15.81-.98,1.02-1.61,4.99-14.94,8.29-26.55,17.01-40.09,2.68-4.17,9.86-11.86,10.1-16.19.07-1.18-.6-2.68-.31-4-10.17,6.25-18.32,19.1-23.11,29.9-4.18,9.42-8.27,21.93-4.71,31.99ZM280.78,417.74c-13.04,1.23-21.89,11.53-28.88,21.5-10.2,14.55-25.36,44.34-17.93,61.97.74,1.76,1.51,4.18,3.45,1.76,14.1-23.61,30.49-47.31,42.74-71.93,1.12-2.26,5.05-10.28,5.02-12.28-.03-1.8-3.16-1.14-4.41-1.02ZM229.07,497.25v-13.67c0-2.48,2.35-10.33,3.23-13.08,5.25-16.36,14.93-31.2,25.56-44.49-3.83-.53-10.4-4.71-13.8-4.97-.86-.06-1.52.38-2.15.88-2.41,1.93-8.27,10.92-10.16,13.96-5.72,9.16-10.58,19.99-13.84,30.3-.85,2.68-3.65,11.32-3.23,13.54.15.81,8.77,11.38,10.09,12.96s2.64,3.33,4.31,4.57ZM296.24,422.4c-.34-.25-6.9.82-7.8,1.07-2.41.69-3.29,5.32-4.42,7.57-10.6,21.01-23.93,41.21-35.98,61.42l-.26,1.9c2.62-.85,5.81-.28,7.4-2.91,13.92-22.88,27.94-45.7,41.06-69.05ZM319.75,448.31c-2.49,1.02-9.76,1.16-11.31,2.84-2.47,4.81-4.97,9.64-7.87,14.2-3.63,5.71-7.98,10.78-11.95,16.23l48.89,55.24,3.46.12,86.74-17.14-40.15-45.53c-1.22-.32-3.63,2.49-3.89,3.66-.91,3.85.39,15.87-1.12,18.56-.28.5-.73.89-1.2,1.2l-36.47,7.19-3.53-.19-23.04-26.86c-1.96-2.39-1.54-5.74-1.46-8.65s.72-16.47,1.42-18.25c.42-1.08,1.51-1.46,1.47-2.6ZM322.14,455.99c-.06-.05-1.01-.18-.95.24-.23,6.2-1.12,12.39-.86,18.61,6.66,7.79,12.92,16.05,20.05,23.37.65-6.2.68-12.5.27-18.74-6.04-7.24-11.64-15.4-18.03-22.29-.35-.38-.42-1.13-.48-1.19ZM206.51,470.38l-51.33,10.31c23.06,26.18,46.06,52.46,69.58,78.2l2.57.2,87.15-17.22-40.13-45.5c-1.32-.26-3.92,2.71-3.9,4.12l-.6,17.63c-.22,1.32-1.51,1.92-2.68,2.12-11.57,1.25-24.09,5.68-35.51,6.71-1.17.11-2.41.28-3.53-.19l-24.26-28.99c-.13-8.21,1.06-16.48,1.23-24.73l1.43-2.65ZM344.22,482.38v19.19c3.17-1.36,35.51-5.62,35.51-7.44v-14.15c-5.32,2.01-10.93,5.56-16.93,4.22-5.05-1.13.76-6.21,1.57-8.3.28-.71-.11-.76-.71-.72-1.54.11-5.32.79-6.45,1.71-1.7,1.4-4.98,9.19-6.72,9.62-2.66.66-4.23-3.05-6.26-4.13ZM228.11,520.28v-17.99c0-1.55-17.43-21.09-19.44-24.23-1.09-.2-.66.47-.71,1.19-.14,1.9.11,3.85,0,5.76-.19,3.24-1.66,10.44,0,12.96l18.45,21.86,1.71.45ZM153.18,481.99c-2.03-1.19-2.21,3.07-1.24,4.35,23.78,27.4,47.89,54.62,72.33,81.44.42-2.52.92-4.37-.96-6.48-22.11-24.61-43.73-49.64-65.98-74.13-.67-.74-3.86-5.02-4.15-5.19ZM287.52,483.91c-1.94-1.13-3.91,2.06-2.05,3.73,16.5,17.89,31.87,36.9,48.43,54.73,1.1,1.18,2.3,2.4,3.6,3.35.07-2.53.34-4.92-1.44-6.96-14.87-16.48-29.49-33.19-44.39-49.66-.67-.74-3.87-5.03-4.16-5.19ZM230.99,504.45v17.99c0,.64,1.92.95,2.57.67l31.86-6.07,1.08-1.32.48-14.15c-4.91,2.35-10.42,5.39-16.07,4.79-7.13-.75-.75-5.49.24-9.11-.18-.16-4.22.51-4.82.69-6.94,2.08-6.15,17.73-15.33,6.5ZM429.98,528.31c1.26-1.36.82-6.94-2.01-6.13l-86.48,17.21c-3.12.45-.19,4.98-2.08,7.27l90.56-18.35ZM316.74,550.39c1.28-1.37.97-6.91-2-6.13l-86.48,17.21c-2.59.32-.98,1.67-1.07,3.2-.08,1.38-.7,2.67-.52,4.08l90.08-18.35Z" style="fill:#0c0e0e;"/><path d="M278.87,177.36c38.43-2.93,65.08,38.95,46.41,72.8-18.4,33.35-66.47,33.58-85.42.48-17.95-31.34,3.42-70.56,39.02-73.28ZM267.82,215.72c-15.07,1.86-9.86,25.85,5.25,20.14,10.83-4.09,6.97-21.64-5.25-20.14Z" style="fill:#fefefe;"/><path d="M384.6,145.47c1.08.64,9.28-4.86,9.47-5.51.21-.69-.22-1.22-.51-1.77-1.22-2.37-6.6-7.9-7.12-9.68-.21-.71.05-.82.71-.72l35.99,20.15c2.29,2.29-2.46,4.1-4.32,4.82-2.41.93-16.85,4.9-18.72,4.82s-9.72-4.16-12.83-4.97c-19.59-5.09-38.87,1.43-52.21,16.2-1.44,1.59-3.83,5.82-5.3,6.7-1.33.8-17.41,4.84-19.46,5.03-2.8.26-10.82-4-14.58-4.99-18.69-4.95-39.01.96-52.06,15.1-4.32,4.68-4.39,8.1-11.26,9.85-7.82,1.99-22.26,2.91-29.75-.01-11.3-6.67-23.2-12.5-34.4-19.34-1.86-1.13-4.66-1.98-3.91-4.54.51-1.74,5.82-3.84,7.59-4.43l84.2-19.91c.79.53-.32,1.33-.71,1.69-4.56,4.39-10.9,8.01-15.18,12.68-.26,1,.7,1.85,1.27,2.65.65.9,4.88,6.03,5.41,5.95,5.42-4.32,10.9-8.63,16.17-13.13,5.94-5.07,11.45-10.79,17.74-15.36l86.67-20.36c.73-.15,1.4-.1,2.08.21,1.11.51,7.6,8.32,8.84,9.88,1.12,1.42,5.66,8.71,6.13,8.98Z" style="fill:#5caade;"/><path d="M368.59,154.81c34.5-3.08,61.03,28.02,50.96,61.52-9.01,29.96-45.65,42.95-71.75,25.68-2.75-1.82-11.85-9.49-12.58-12.37-.49-1.9.09-4.54-.12-6.6-.6-5.98-1.84-11.84-4.23-17.36-.77-1.78-4.17-7.11-4.31-8.18-.21-1.62.99-6.1,1.48-7.92,4.95-18.33,21.39-33.07,40.55-34.78ZM359.45,190.29c-12.07,2.05-10.52,22.97,4.57,20.4,12.33-2.09,10.05-22.89-4.57-20.4Z" style="fill:#fefefe;"/><path d="M206.51,470.38l-1.43,2.65c-.18,8.25-1.36,16.52-1.23,24.73l24.26,28.99c1.12.47,2.37.29,3.53.19,11.42-1.03,23.94-5.46,35.51-6.71,1.17-.2,2.46-.8,2.68-2.12l.6-17.63c-.03-1.41,2.58-4.38,3.9-4.12l40.13,45.5-87.15,17.22-2.57-.2c-23.52-25.75-46.52-52.02-69.58-78.2l51.33-10.31Z" style="fill:#eee50f;"/><path d="M319.75,448.31c.04,1.14-1.05,1.53-1.47,2.6-.7,1.78-1.34,15.3-1.42,18.25s-.5,6.27,1.46,8.65l23.04,26.86,3.53.19,36.47-7.19c.47-.31.92-.7,1.2-1.2,1.5-2.69.21-14.71,1.12-18.56.26-1.16,2.67-3.98,3.89-3.66l40.15,45.53-86.74,17.14-3.46-.12-48.89-55.24c3.97-5.45,8.32-10.52,11.95-16.23,2.9-4.57,5.4-9.39,7.87-14.2,1.55-1.68,8.82-1.82,11.31-2.84Z" style="fill:#eee50f;"/><path d="M216.11,206.49c-1.94,3.95-1.46,8.38-1.38,12.65l24.41,127.45c-.82.81-6.32-3.74-7.2-4.55-7.1-6.47-7.45-12.95-11.91-20.72-3.38-5.89-8.43-11.79-13.77-15.98-4.62-3.62-11.09-5.43-13.05-10.94-1.94-5.46-6.07-20.41-6.73-25.91-.15-1.29-.43-2.43.86-3.22l23.83-12.16c4.57-2.33,1.97-8.44,1.83-12.58l-24.11-16.24c-2.47-.34-11.07,5.1-12.62,4.04l-11.45-43.26.67-1.15,34.46,19.76c5.1,2.14,10.66,2.77,16.17,2.79Z" style="fill:#215faa;"/><path d="M207.47,241.99c-26.58,13.49-55.23,26.34-79.8,43.28-9.34,6.44-20.41,13.74-18.56,26.78-8.81-2.99-17.21-13.42-14.26-23.13,1.78-5.87,12.7-14.4,17.67-18.32,18.39-14.48,44.72-29.7,66.32-38.76,1.64-.69,7.46-3.3,8.72-3.3,1.66,0,3.96,1.89,5.39,2.8,3.17,2.03,11.79,7.28,14.02,9.49.4.4.68.44.51,1.17Z" style="fill:#eee50f;"/><path d="M434.91,184.41l-2.21-18.72c.53-1.79,5.24-4.24,6.95-5.56,16.07-12.35,28.09-29.87,29.34-50.79.11-1.9.24-9.24-1.46-10.11-1.19-.61-9.35,1.6-11.74,1.71-9.35.45-24.87-3.41-28.92-12.86-4.42-10.32,4.8-14.64,12.34-18.82.49,17.02,23.39,24.69,37.66,23.5,1.79-.15,7.41-1.89,8.42-1.22,1.62,1.09,2.03,16.58,1.92,19.24-1.25,31.15-14.63,49.58-39.69,66.34-1.19.8-12.15,7.84-12.62,7.29Z" style="fill:#eee50f;"/><path d="M209.87,244.87c-.15,1.69.66,3.92-.97,5.02-22.94,12-46.01,23.92-68.08,37.48-5.05,3.11-19.38,10.74-20.56,16.38-1.58,7.52,4.73,9.1,10.69,9.72,23.48,2.44,48.1,1,71.25,6.48,14.69,3.47,24.36,12.89,19.32,28.93-1.63,5.2-9.3,13.03-14.83,13.52-1.25.11-4.94-.18-4.43-2.06.19-.69,9.04-7.33,10.74-9.43,6.42-7.97,3.22-16.97-5.18-21.7-20.34-11.43-25.53,24.83-24.8,37.76.08,1.52,1.59,6.47.5,7.24-2.06,1.45-5.79-1.97-6.65-3.97-4.5-10.49,1.29-28.92,7.19-38.19.8-1.25,4.54-5.59,4.64-5.95.22-.8.05-1.59-.61-2.1s-9.87-1.25-11.56-1.39c-17.2-1.46-37.86-1-54.47-4.55-6.87-1.47-11.1-3.48-9.93-11.41,1.27-8.61,14.14-16.73,21.03-21.2,23.67-15.37,49.59-26.98,74.46-40.21l2.26-.38Z" style="fill:#f6c50c;"/><path d="M435.97,187.87c.27-.46,7.9-4.49,9.26-5.37,20.05-12.93,36.08-26.66,42.32-50.77,2.89-11.16,4.16-27.22,1.84-38.51-1.97-9.61-5.08-4.44-12.03-3.82-11.07.98-34-4.89-34.79-18.48-.29-5.11,4.51-1.02,6.68.54,5.26,3.77,9.1,8.91,15.66,10.73,8.43,2.33,23.43-.31,26.97-9.44,4.54-11.7.68-23.34-8.04-31.56-2.42-2.29-11.65-8.44-11.99-11.07-1.03-7.99,11.55-2.26,14.82.08,13.91,9.94,16.93,27.46,12.64,43.27-.85,3.14-4.39,10.03-4.46,12.36-.11,3.26,2.04,10.38,2.41,14.38,1.75,18.55-2.36,36.99-11.79,52.98-10.81,18.33-30.19,32.46-48.41,42.74-.77-.15-1.64-7.14-1.11-8.06Z" style="fill:#f6c50c;"/><path d="M398.42,396.03c-1.87,8.24-6.45,15.54-10.46,22.85-11.03,20.14-23.32,39.61-35.39,59.13-2.23,2.54-2.59,7.07-5.09,1.81-8.89-18.7,9.73-53.07,21.49-67.93,7.19-9.08,16.95-17.71,29.44-15.86Z" style="fill:#438bc8;"/><path d="M280.78,417.74c1.25-.12,4.38-.77,4.41,1.02.03,2-3.89,10.02-5.02,12.28-12.25,24.62-28.64,48.32-42.74,71.93-1.94,2.42-2.71,0-3.45-1.76-7.43-17.62,7.73-47.41,17.93-61.97,6.99-9.98,15.83-20.28,28.88-21.5Z" style="fill:#438bc8;"/><path d="M365.33,480.93c-.18-.73.3-1.04.58-1.58,4.74-9.07,11.52-18.39,16.89-27.25,11.39-18.78,22.21-40.29,34.44-58.17.99-1.45,5.1-7.43,6.41-7.55,1.16-.11,2.93,1.75,3.5,2.73,3.21,5.51-1.94,21.82-4.12,27.89-7.22,20.13-21.15,39.44-37.07,53.61-5.64,5.02-12.85,10.11-20.64,10.31Z" style="fill:#438bc8;"/><path d="M252.1,503l50.66-84.88c1.37-1.7,5.88-9.49,7.66-9.66,1.97-.19,4.31,3.65,4.54,5.53.79,6.53-2.58,18.15-4.8,24.49-6.89,19.64-21.1,39.84-36.73,53.48-6.04,5.27-12.88,10.95-21.34,11.05Z" style="fill:#438bc8;"/><path d="M313.99,406.09c-2.5.18-3.37-1.74-5.73-.22-3.66,2.35-8.22,12.19-10.55,12.96-.85.28-8.81,1.5-9.14,1.18-.08-2.9.95-4.88-2.63-5.29-4.63-.53-9.98.3-14.29,2.04-2.7,1.1-4.83,3.13-7.55,3.72l-1.38-31.84,49.53-8.39.79,1.13.96,24.71Z" style="fill:#438bc8;"/><path d="M425.74,358.16l1.48,25.86c-4.93-1.29-5.81-.49-8.83,2.93-1.76,1.99-5.84,9.24-7.47,9.81-.97.34-8.81,1.51-9.14,1.18-.08-2.9.95-4.88-2.63-5.29-7.88-.91-15.45,1.95-21.83,6.25l-1.25-32.66,49.66-8.07Z" style="fill:#438bc8;"/><path d="M415.23,355.71v-9.36c0-.17.45-.57.46-1,.04-3.81-2.39-3.78-5.44-3.5-2.69.25-12.82,1.9-14.97,2.78-4.24,1.75-.77,13.43-2.58,14.69-.65.46-14.03,2.54-15.63,2.62-.74.04-1.47.12-2.16-.23-.85-.55.43-5.85.5-7.22.35-7.18.21-14.86,0-22.06-.05-1.57-1.31-7.27-.01-8.18l54.11-8.25c.93-.03,1.38.72,1.55,1.58,1.27,6.33,0,15.48-1.09,21.9-.53,3.14-1.85,10.57-3.17,13.14-1.34,2.62-8.77,1.87-11.55,3.08ZM393.76,338.79c.38.44,1.39.58,1.98.56,1.75-.06,17.61-3.16,18.33-3.76.44-.36.57-.7.67-1.25.22-1.15.58-8.04.24-8.85-.22-.51-1.13-1.36-1.79-1.33-3.35,1.4-16.78,1.95-18.86,3.68-.62.51-.61.98-.7,1.69-.16,1.21-.36,8.67.14,9.25Z" style="fill:#438bc8;"/><path d="M302,377.3v-11.76c0-1.1-2.56-1.72-3.6-1.72-1.83.02-15.83,2.51-17.01,3.18-2.79,1.59-.73,11.44-1.95,14.6-5.16-.1-11.14,2.25-16.09,2.42-.83.03-1.68.12-2.08-.77l1.4-14.34c-.1-2.88.08-5.77-.02-8.65-.09-2.64-1.02-6.63-.98-9.14.01-.7.12-1.25.72-1.69,9.08-2.6,18.27-5.08,27.52-7.02,7.66-1.6,18.2-3.95,25.84-4.43.55-.03,1.13-.19,1.63.17,2.39,1.72.03,20.74-.65,24.36-.36,1.93-2.83,12.39-3.72,13.07-1.45,1.11-8.78,1.43-11.01,1.7ZM297.09,346.72c-1.86.2-15.38,2.66-16,3.19-1.23,1.05-2.14,10.8.14,11.47,1.13.33,18.85-3.06,19.57-3.75.4-.39.6-1.16.68-1.72.12-.76.43-7.51.32-7.89-.59-2.08-2.99-1.48-4.71-1.3Z" style="fill:#438bc8;"/><path d="M229.07,497.25c-1.67-1.24-2.99-2.99-4.31-4.57s-9.94-12.15-10.09-12.96c-.41-2.23,2.38-10.86,3.23-13.54,3.26-10.31,8.12-21.14,13.84-30.3,1.9-3.04,7.76-12.03,10.16-13.96.62-.5,1.28-.94,2.15-.88,3.41.26,9.97,4.43,13.8,4.97-10.64,13.29-20.31,28.13-25.56,44.49-.88,2.75-3.23,10.6-3.23,13.08v13.67Z" style="fill:#215faa;"/><path d="M213.71,319.72c-10.18-4.34-21.5-5.44-32.44-6.66-16.93-1.89-34.66-1.47-51.22-3.48-6.75-.82-8.94-3.5-3.4-8.56,7.42-6.78,17.02-4.25,26.38-3.86,23.03.96,44.44-.03,59.45,20.2.31.42,1.6,2,1.24,2.35Z" style="fill:#f1951e;"/><path d="M468.49,28c-.47,7.85,9.75,12.02,14.88,17.03,5.7,5.56,7.89,14.26,6.66,22.03-1.4,8.87-6.28,11.01-14.58,12.29l1.68-6.94c-.09-6.38-6.94-15.94-11.52-20.18-2.95-2.73-8.93-5.73-9.58-10.1-.92-6.22,7.05-12.55,12.45-14.12Z" style="fill:#f1951e;"/><path d="M316.74,550.39l-90.08,18.35c-.18-1.41.44-2.7.52-4.08.09-1.53-1.51-2.88,1.07-3.2l86.48-17.21c2.98-.78,3.28,4.76,2,6.13Z" style="fill:#f6c50c;"/><path d="M429.98,528.31l-90.56,18.35c1.89-2.3-1.04-6.82,2.08-7.27l86.48-17.21c2.82-.81,3.27,4.77,2.01,6.13Z" style="fill:#f6c50c;"/><path d="M183,326.92c-1.94,4.59-4.63,8.78-6.46,13.45-3.13,7.97-4.6,15.11-4.11,23.75.11,1.9.86,3.91.98,5.74.04.64.03.94-.72.71-4.78-1.46-13.67-12.33-14.9-17.25-1.81-7.22,2.09-22.77,8.93-26.61,3.46-1.94,12.11.72,16.27.2Z" style="fill:#f1951e;"/><path d="M230.99,504.45c9.18,11.22,8.39-4.43,15.33-6.5.61-.18,4.64-.85,4.82-.69-.99,3.62-7.37,8.36-.24,9.11,5.65.6,11.16-2.44,16.07-4.79l-.48,14.15-1.08,1.32-31.86,6.07c-.65.27-2.57-.04-2.57-.67v-17.99Z" style="fill:#438bc8;"/><path d="M344.22,482.38c2.03,1.08,3.6,4.79,6.26,4.13,1.74-.43,5.01-8.22,6.72-9.62,1.13-.93,4.91-1.61,6.45-1.71.61-.04.99,0,.71.72-.81,2.1-6.62,7.17-1.57,8.3,6,1.34,11.61-2.21,16.93-4.22v14.15c0,1.81-32.34,6.07-35.51,7.44v-19.19Z" style="fill:#438bc8;"/><path d="M296.24,422.4c-13.12,23.35-27.14,46.17-41.06,69.05-1.59,2.63-4.78,2.06-7.4,2.91l.26-1.9c12.04-20.21,25.37-40.42,35.98-61.42,1.14-2.25,2.02-6.88,4.42-7.57.9-.26,7.45-1.33,7.8-1.07Z" style="fill:#215ea8;"/><path d="M408.99,400.33l-14.79,26.23-26.27,43.31c-1.52,2.17-5,1.76-7.4,2.43l29.35-50.05c1.44-3.09,3.37-5.94,4.97-8.95,1.13-2.12,4.93-11.39,6.33-11.9.68-.24,7.51-1.33,7.81-1.06Z" style="fill:#215ea8;"/><path d="M371.04,323.13l1.51,16c-.41,8.93.26,20.75-5.38,28.25-1.31,1.74-6.2,5.98-6.66,2.02-.48-4.2.45-8.9.52-12.96.17-10.07-.18-20.16,0-30.23.04-.38.17-.72.42-1.02.52-.63,9.02-2.54,9.6-2.06Z" style="fill:#215ea8;"/><path d="M198.83,359.54c-.91.67-5.48-5.03-6.14-6.09-1.35-2.2-3.19-6.44-3.01-9.02.25-3.6,5.63-12.79,9.5-13.57s9.21,2.74,11.41,5.64c5.16,6.77.57,11.59-4.56,16.09-2.47,2.17-6.43,3.49-7.21,6.95Z" style="fill:#f1951e;"/><path d="M372.53,400.81l-16.71-5.83-1.51-23.91c6.37,4.16,11.7,4.03,16.3-2.4l1.92,32.14Z" style="fill:#215faa;"/><path d="M247.36,392.58l.51-38.94c.64-1.43,9.34-3.43,10.15-3.17.56.17.75.63.79,1.16.4,10.85,1.79,22.89-2.31,33.19-1.4,3.51-4.71,9.27-9.14,7.76Z" style="fill:#215ea8;"/><path d="M153.18,481.99c.29.17,3.48,4.45,4.15,5.19,22.24,24.48,43.87,49.52,65.98,74.13,1.88,2.11,1.38,3.96.96,6.48-24.43-26.82-48.55-54.04-72.33-81.44-.97-1.28-.78-5.54,1.24-4.35Z" style="fill:#f6c50c;"/><path d="M259.77,422.87c-5.46-2.01-12.16-3.04-16.74-6.53l-1.97-23.21c2.09.45,3.54,2.21,5.73,2.66,2.67.56,5.05.26,7.19-1.51l3.39-3.56,2.4,32.14Z" style="fill:#215ea8;"/><path d="M228.11,520.28l-1.71-.45-18.45-21.86c-1.66-2.52-.19-9.72,0-12.96.11-1.91-.13-3.86,0-5.76.05-.71-.37-1.39.71-1.19,2.01,3.13,19.44,22.67,19.44,24.23v17.99Z" style="fill:#215ea8;"/><path d="M322.14,455.99c.06.05.13.81.48,1.19,6.4,6.89,12,15.05,18.03,22.29.41,6.24.38,12.54-.27,18.74-7.13-7.32-13.39-15.58-20.05-23.37-.26-6.22.63-12.42.86-18.61-.06-.42.9-.29.95-.24Z" style="fill:#215ea8;"/><path d="M352.37,391.69c-.49,1.68.67,4.39.29,5.76-.23.82-5.83,7.4-6.92,8.96-7.88,11.33-13.68,23.6-17.97,36.73-1.01,3.09-1.62,6.85-2.7,9.77-.18.5-.26,1.43-1,.67-.94-.97-1.1-10.85-.96-12.71,1-12.59,11.3-32.3,19.68-41.74.99-1.11,8.39-8.69,9.58-7.45Z" style="fill:#215ea8;"/><path d="M211.32,475.18c-3.56-10.06.53-22.57,4.71-31.99,4.79-10.81,12.94-23.66,23.11-29.9-.29,1.32.37,2.82.31,4-.24,4.33-7.41,12.02-10.1,16.19-8.72,13.54-12.02,25.15-17.01,40.09-.21.63-.15,1.46-1.02,1.61Z" style="fill:#215ea8;"/><path d="M357.65,325.96l-1.19,41.74c-8.1-10.65-9.6-25.38-9.6-38.38.82-1.72,8.72-2.45,10.79-3.36Z" style="fill:#215ea8;"/><path d="M243.94,390.25c-9.12-11.21-10.27-27.23-10.07-41.26,2.52,1.22,5.05,2.59,7.67,3.6.91.35,2.45-.05,2.82,1.02l-.42,36.64Z" style="fill:#215ea8;"/><path d="M287.52,483.91c.29.17,3.48,4.45,4.16,5.19,14.9,16.46,29.51,33.17,44.39,49.66,1.77,2.04,1.5,4.43,1.44,6.96-1.3-.95-2.5-2.17-3.6-3.35-16.56-17.83-31.93-36.84-48.43-54.73-1.86-1.66.11-4.85,2.05-3.73Z" style="fill:#f6c50c;"/><path d="M299.6,366.26v11.52l-17.51,3.37c-.4.02-.29-2.56-.27-3.15.12-2.98.53-6.28.95-9.12l16.82-2.61Z" style="fill:#215ea8;"/><path d="M395.56,347.31c.36-1.13,14.8-2.67,17-3.54.96.23.77,1.84.79,2.58.07,2.88-.95,6.24-.57,9.29l-17.21,2.95c.55-2.77-.74-8.99,0-11.28Z" style="fill:#215ea8;"/><path d="M378.29,321.16l50.75-12.86c1.91-.49,2.78,4.49,1.21,5.1l-51.96,7.77Z" style="fill:#215ea8;"/><path d="M326.94,180.58l-3.59,12.95c-1.75-2.23-3.7-4.29-5.75-6.25-.51-.49-4.41-3.06-3.61-3.82l12.95-2.88Z" style="fill:#438bc8;"/><path d="M334.15,235.28c7.51,7.83,15.71,13.87,26.47,16.47,48.06,11.6,83.87-42.38,53.64-81.47-2.3-2.97-7.13-6.46-8.63-8.64-.28-.41-.67-.48-.47-1.2,7.41-1.78,15.43-2.89,21.58-7.68l17.75,137.95c1.42,12.46-12.91,13.03-21.67,15.26-55.72,14.16-113.23,29.04-169.28,41.36-3.6.79-9.91,3.58-11.77-.72-8.91-44.08-17.61-88.31-25.2-132.65.65-2.86.29-6.27,3.65-7.43l14.11-2.2c-16.16,37.76,11.89,77.6,53.05,74.63,22.54-1.63,43.75-21.19,46.77-43.68ZM359.45,261.74c-1.93.39-2.51,2.45-3.69,3.55-7.42,6.88-16.72,12.52-26.52,15.22-2.28.63-11.32,1.99-12.15,2.72-2.27,2.03,2.08,8.05,3.64,9.85,11.4,13.2,38.56,9.54,43.02-8.29,1.6-6.4,1.37-14.79-1.4-20.86-.65-1.42-1.04-2.57-2.9-2.19Z" style="fill:#438bc9;"/><path d="M370.6,403.7l-.24,1.43c-8.32,9.14-15.21,20.25-20.32,31.5-5.5,12.1-9.91,25.6-7.5,39.03-5.57-5.5-10.22-11.93-15.03-18.11,3.61-17.8,10.95-35.44,21.59-50.16,1.18-1.64,5.61-7.89,7.09-8.29,1.94-.52,11.56,4.43,14.41,4.61Z" style="fill:#215faa;"/><path d="M359.45,261.74c1.85-.37,2.25.78,2.9,2.19,2.77,6.07,3.01,14.46,1.4,20.86-4.46,17.83-31.62,21.48-43.02,8.29-1.56-1.81-5.91-7.82-3.64-9.85.82-.73,9.87-2.1,12.15-2.72,9.8-2.7,19.11-8.34,26.52-15.22,1.18-1.1,1.76-3.16,3.69-3.55ZM359.57,267.42c-.4-.3-2.62,1.53-3.1,1.93-1.79,1.47-3.2,2.97-5.18,4.41-9.19,6.67-19.43,10.51-30.57,12.6,5.39,11.11,19.93,13.33,30.39,8.33s11.55-17.35,8.46-27.28Z" style="fill:#0c0e0e;"/><path d="M267.82,215.72c12.23-1.51,16.08,16.05,5.25,20.14-15.12,5.71-20.32-18.28-5.25-20.14Z" style="fill:#0c0e0e;"/><path d="M359.45,190.29c14.62-2.49,16.9,18.31,4.57,20.4-15.09,2.56-16.64-18.35-4.57-20.4Z" style="fill:#0c0e0e;"/><path d="M393.76,338.79c-.5-.59-.3-8.05-.14-9.25.1-.72.09-1.18.7-1.69,2.09-1.73,15.51-2.28,18.86-3.68.66-.02,1.58.82,1.79,1.33.34.81-.02,7.7-.24,8.85-.1.54-.23.89-.67,1.25-.72.6-16.58,3.69-18.33,3.76-.59.02-1.6-.12-1.98-.56ZM412.83,326.92l-16.34,2.62c-.42.3-1.19,7.18-.94,7.45,2.82-1.21,14.66-1.87,16.33-3.09.71-.52,1.25-6.67.94-6.98Z" style="fill:#0c0e0e;"/><path d="M297.09,346.72c1.72-.18,4.12-.78,4.71,1.3.11.38-.2,7.13-.32,7.89-.09.56-.28,1.33-.68,1.72-.72.69-18.44,4.08-19.57,3.75-2.28-.67-1.37-10.42-.14-11.47.62-.53,14.15-2.99,16-3.19ZM282.32,351.87v7.2l16.33-3.1c.95-.67.11-5.25.95-6.73-.04-.94-15.93,2.53-17.28,2.63Z" style="fill:#0c0e0e;"/><path d="M359.57,267.42c3.09,9.93,1.84,22.35-8.46,27.28s-25.01,2.78-30.39-8.33c11.14-2.09,21.38-5.93,30.57-12.6,1.98-1.44,3.4-2.94,5.18-4.41.49-.4,2.7-2.24,3.1-1.93Z" style="fill:#fdfdfd;"/><path d="M412.83,326.92c.31.31-.23,6.46-.94,6.98-1.67,1.22-13.51,1.88-16.33,3.09-.26-.28.52-7.16.94-7.45l16.34-2.62Z" style="fill:#215ea8;"/><path d="M282.32,351.87c1.35-.1,17.24-3.57,17.28-2.63-.84,1.48,0,6.06-.95,6.73l-16.33,3.1v-7.2Z" style="fill:#215ea8;"/></svg>