<?xml version="1.0" encoding="UTF-8"?><svg id="Layer_2" xmlns="http://www.w3.org/2000/svg" viewBox="0 0 398.9 135.93"><g id="Layer_2-2"><rect x="316.28" y="38.54" transform="translate(433.44 -295.99) rotate(90)" style="fill:#fff;"/><path d="M398.9,121.15h-68.38V16.3h68.38v104.86ZM338.52,113.15h52.38V24.3h-52.38v88.86Z" style="fill:#231f20;"/><path d="M202.13-.46h126.42v103.93c0,19-15.43,34.43-34.43,34.43h-57.55c-19,0-34.43-15.43-34.43-34.43V-.46h0Z" transform="translate(334.07 -196.61) rotate(90)" style="fill:#fff;"/><path d="M338.52,135.93h-107.93c-21.19,0-38.43-17.24-38.43-38.43v-57.55c0-21.19,17.24-38.43,38.43-38.43h107.93v134.42ZM230.59,9.52c-16.78,0-30.43,13.65-30.43,30.43v57.55c0,16.78,13.65,30.43,30.43,30.43h99.93V9.52h-99.93Z" style="fill:#231f20;"/><path d="M375.18,55.11h-20.94c-2.21,0-4-1.79-4-4s1.79-4,4-4h20.94c2.21,0,4,1.79,4,4s-1.79,4-4,4Z" style="fill:#231f20;"/><path d="M375.18,90.34h-20.94c-2.21,0-4-1.79-4-4s1.79-4,4-4h20.94c2.21,0,4,1.79,4,4s-1.79,4-4,4Z" style="fill:#231f20;"/><path d="M196.16,72.73h-96.32c-16.33,0-29.62-13.29-29.62-29.62,0-11.92-9.7-21.62-21.62-21.62H4c-2.21,0-4-1.79-4-4s1.79-4,4-4h44.6c16.33,0,29.62,13.29,29.62,29.62,0,11.92,9.7,21.62,21.62,21.62h96.32c2.21,0,4,1.79,4,4s-1.79,4-4,4Z" style="fill:#231f20;"/><circle cx="110.69" cy="65.02" r="61.02" style="fill:#fff;"/><path d="M110.69,130.04c-35.85,0-65.02-29.17-65.02-65.02S74.83,0,110.69,0s65.02,29.17,65.02,65.02-29.17,65.02-65.02,65.02ZM110.69,8c-31.44,0-57.02,25.58-57.02,57.02s25.58,57.02,57.02,57.02,57.02-25.58,57.02-57.02-25.58-57.02-57.02-57.02Z" style="fill:#231f20;"/><path d="M102.02,116.4c-.61,0-1.22-.14-1.8-.43-1.97-1-2.76-3.41-1.76-5.38l21.06-41.57h-30.68l26.94-53.19c1-1.97,3.41-2.76,5.38-1.76,1.97,1,2.76,3.41,1.76,5.38l-21.06,41.57h30.68l-26.94,53.19c-.71,1.39-2.11,2.19-3.57,2.19Z" style="fill:#231f20;"/></g></svg>